<svg width="60" height="38" viewBox="0 0 60 38" fill="none" xmlns="http://www.w3.org/2000/svg">
<path fill-rule="evenodd" clip-rule="evenodd" d="M17.8891 11.401C18.4428 10.737 18.8165 9.814 18.7149 8.894C17.9148 8.926 16.9472 9.423 16.3774 10.085C15.8614 10.672 15.4148 11.612 15.5381 12.514C16.4279 12.582 17.3354 12.065 17.8891 11.401ZM20.188 17.239C20.1703 15.249 21.8285 14.292 21.9053 14.245C20.9698 12.899 19.519 12.712 19.0022 12.691C17.7658 12.57 16.5871 13.412 15.9622 13.412C15.3349 13.412 14.3699 12.71 13.3424 12.732C11.9947 12.751 10.7522 13.507 10.0585 14.7C8.662 17.109 9.7039 20.666 11.0673 22.615C11.7349 23.569 12.5285 24.64 13.5744 24.602C14.5811 24.563 14.9587 23.957 16.1752 23.957C17.389 23.956 17.7324 24.6 18.7925 24.582C19.8743 24.559 20.5609 23.608 21.2243 22.65C21.9869 21.545 22.303 20.472 22.319 20.419C22.2973 20.404 20.212 19.617 20.188 17.239ZM33.0679 11.4C32.6646 11.016 32.1445 10.716 31.522 10.51C30.905 10.307 30.164 10.204 29.3197 10.204C28.7791 10.202 28.2387 10.229 27.7011 10.287C27.2529 10.337 26.8061 10.399 26.3615 10.473L26.2311 10.496V24.481H27.5217V18.589C27.9564 18.663 28.454 18.702 29.0029 18.702C29.7334 18.702 30.4177 18.609 31.0371 18.428C31.6328 18.26 32.1879 17.974 32.6678 17.586C33.1301 17.204 33.5019 16.726 33.757 16.186C34.021 15.632 34.1553 14.98 34.1553 14.247C34.1553 13.641 34.0585 13.095 33.8697 12.626C33.6872 12.169 33.4145 11.752 33.0679 11.4ZM31.8819 16.742C31.2195 17.292 30.2817 17.57 29.0918 17.57C28.7645 17.57 28.4549 17.556 28.1707 17.53C27.9523 17.51 27.7355 17.474 27.5225 17.422V11.475C27.693 11.444 27.9043 11.415 28.1522 11.388C28.4668 11.355 28.8452 11.338 29.279 11.338C29.777 11.334 30.2733 11.397 30.7538 11.528C31.1631 11.639 31.5478 11.826 31.8877 12.077C32.1973 12.315 32.4406 12.623 32.6094 12.995C32.7798 13.372 32.8655 13.822 32.8655 14.331C32.8647 15.388 32.5334 16.199 31.8819 16.742ZM41.8701 23.172C41.8557 22.776 41.8501 22.379 41.8501 21.983V18.095C41.8501 17.634 41.8027 17.164 41.7107 16.697C41.6222 16.232 41.4403 15.79 41.1762 15.396C40.9139 15.006 40.5465 14.685 40.0871 14.439C39.6279 14.195 39.031 14.071 38.3117 14.071C37.7866 14.071 37.2739 14.139 36.7897 14.272C36.2811 14.417 35.8004 14.643 35.366 14.942L35.2611 15.014L35.6973 16.023L35.855 15.918C36.1991 15.69 36.5756 15.512 36.9721 15.392C37.3728 15.269 37.7901 15.205 38.2099 15.204C38.7477 15.204 39.1775 15.301 39.4838 15.491C39.7951 15.683 40.0295 15.921 40.1808 16.2C40.3385 16.487 40.4416 16.793 40.4873 17.11C40.5361 17.44 40.5593 17.736 40.5593 17.989V18.101C38.6461 18.093 37.1521 18.408 36.1599 19.04C35.1188 19.704 34.5907 20.648 34.5907 21.847C34.5907 22.192 34.6531 22.54 34.7764 22.883C34.901 23.231 35.0908 23.542 35.3387 23.808C35.5886 24.077 35.911 24.296 36.2967 24.46C36.6808 24.625 37.1329 24.709 37.6378 24.709C38.3526 24.72 39.0563 24.53 39.6655 24.16C39.9313 23.998 40.1672 23.813 40.369 23.614C40.4548 23.529 40.5369 23.44 40.6146 23.347H40.6642L40.7827 24.482H42.0268L41.9924 24.3C41.9241 23.927 41.8832 23.55 41.8701 23.172ZM40.5593 21.18C40.5593 21.316 40.5265 21.503 40.4641 21.727C40.3805 21.97 40.2636 22.199 40.1168 22.41C39.79 22.884 39.315 23.238 38.7654 23.42C38.4316 23.528 38.0818 23.581 37.7306 23.576C37.4989 23.576 37.2691 23.537 37.0505 23.461C36.8383 23.388 36.6435 23.273 36.4784 23.122C36.3051 22.96 36.1684 22.764 36.0766 22.547C35.975 22.315 35.9237 22.027 35.9237 21.693C35.9237 21.146 36.0726 20.702 36.3647 20.377C36.6793 20.032 37.0741 19.767 37.5155 19.606C38.0152 19.42 38.5383 19.302 39.0701 19.255C39.5651 19.208 40.0621 19.186 40.5593 19.191V21.18ZM50.6297 14.298L48.2211 20.777C48.0708 21.168 47.9306 21.562 47.8026 21.946C47.7402 22.137 47.6809 22.319 47.6225 22.491H47.577C47.5169 22.302 47.4554 22.113 47.3928 21.925C47.2682 21.545 47.1337 21.172 46.996 20.817L44.4202 14.298H43.0432L46.7279 23.67C46.8247 23.896 46.8391 23.999 46.8391 24.041C46.8391 24.054 46.8345 24.131 46.7264 24.416C46.5251 24.924 46.2626 25.407 45.9447 25.853C45.6493 26.251 45.3789 26.574 45.1379 26.812C44.8579 27.089 44.569 27.316 44.2754 27.488C43.9754 27.663 43.7017 27.805 43.4591 27.912L43.3201 27.973L43.7689 29.052L43.9114 29C44.028 28.956 44.2475 28.857 44.5802 28.697C44.9163 28.533 45.2885 28.273 45.6852 27.922C46.0371 27.615 46.3494 27.267 46.6152 26.885C46.8871 26.499 47.1593 26.046 47.4266 25.542C47.6905 25.039 47.9546 24.468 48.2123 23.842C48.47 23.212 48.7468 22.509 49.0326 21.753L52.0084 14.298H50.6297ZM54.6267 0.791702L55.2365 0.792297C55.4038 0.793197 55.5709 0.7955 55.7389 0.7995C56.0437 0.8075 56.4023 0.824003 56.7472 0.885803C57.0666 0.942803 57.337 1.031 57.5986 1.162C58.1275 1.427 58.5573 1.853 58.8252 2.376C58.9581 2.635 59.0463 2.902 59.1037 3.219C59.1653 3.557 59.183 3.912 59.1903 4.216C59.1949 4.38 59.1974 4.546 59.1982 4.713C59.1997 4.913 59.1997 5.115 59.1997 5.316V32.684C59.1997 32.885 59.1997 33.086 59.1982 33.29C59.1976 33.455 59.1947 33.62 59.1903 33.784C59.1822 34.088 59.1653 34.443 59.1037 34.783C59.0539 35.076 58.96 35.359 58.8252 35.624C58.5558 36.147 58.1256 36.572 57.597 36.839C57.3293 36.972 57.0429 37.065 56.7472 37.115C56.4144 37.168 56.0783 37.196 55.7414 37.2C55.5733 37.204 55.4053 37.207 55.2348 37.207C55.0323 37.208 54.8284 37.208 54.6259 37.208H5.36599C5.1651 37.208 4.96441 37.208 4.76121 37.207C4.59317 37.207 4.42512 37.204 4.2611 37.2C3.92328 37.196 3.58623 37.167 3.25282 37.115C2.9561 37.066 2.66878 36.972 2.40048 36.838C2.13756 36.706 1.89769 36.533 1.69008 36.326C1.4815 36.121 1.3077 35.883 1.1746 35.624C1.03921 35.358 0.94529 35.074 0.89536 34.781C0.841 34.452 0.81181 34.118 0.80816 33.784C0.80413 33.619 0.80183 33.454 0.80087 33.289L0.80029 32.806V5.195L0.80087 4.713C0.80183 4.547 0.80413 4.382 0.80816 4.216C0.81623 3.914 0.83294 3.559 0.89536 3.217C0.94491 2.924 1.03901 2.641 1.1746 2.376C1.4431 1.853 1.87272 1.428 2.40145 1.162C2.66917 1.028 2.9559 0.935603 3.25186 0.886703C3.58565 0.832803 3.9229 0.803901 4.2611 0.800301C4.42819 0.796301 4.59547 0.793997 4.76198 0.793297L5.37329 0.791702H54.6267ZM54.6267 0H5.37329L4.75795 0.000801086C4.5851 0.00150109 4.41225 0.00399751 4.2394 0.00869751C3.86144 0.0136975 3.48424 0.0466023 3.11108 0.107002C2.73792 0.170402 2.37629 0.288202 2.03808 0.456802C1.35994 0.799902 0.80816 1.346 0.4617 2.017C0.29096 2.351 0.17151 2.709 0.10794 3.079C0.04629 3.448 0.01287 3.821 0.00806999 4.195C0.00402999 4.365 0.00154009 4.536 0.000770092 4.707L0 5.316V32.684L0.000770092 33.294C0.00154009 33.465 0.00403007 33.636 0.00883007 33.806C0.0192001 34.178 0.0414801 34.553 0.10889 34.921C0.17611 35.296 0.28712 35.643 0.4617 35.983C0.80663 36.655 1.35917 37.202 2.03885 37.543C2.38205 37.717 2.73351 37.826 3.11108 37.893C3.48328 37.959 3.86259 37.981 4.2394 37.991C4.41225 37.996 4.58433 37.998 4.75795 37.998C4.96287 38 5.16837 38 5.37329 38H54.6267C54.8316 38 55.0371 38 55.2421 37.998C55.4149 37.998 55.5877 37.995 55.7606 37.991C56.1366 37.981 56.5159 37.959 56.8889 37.893C57.2619 37.83 57.6231 37.712 57.961 37.543C58.6408 37.202 59.1936 36.656 59.5383 35.983C59.7135 35.643 59.8239 35.296 59.8911 34.921C59.9583 34.553 59.98 34.178 59.9904 33.806C59.9952 33.635 59.9975 33.464 59.9983 33.294C60 33.09 60 32.888 60 32.684V5.316C60 5.112 60 4.91 59.9983 4.706C59.9977 4.535 59.995 4.365 59.9904 4.194C59.9858 3.82 59.9526 3.447 59.8911 3.078C59.8279 2.709 59.7088 2.351 59.5383 2.016C59.1924 1.344 58.6403 0.798001 57.961 0.456001C57.6231 0.287501 57.2619 0.169503 56.8889 0.106003C56.5158 0.0458028 56.1386 0.0129032 55.7606 0.00800323C55.587 0.00300323 55.4139 0.0015 55.2421 0H54.6267Z" fill="white"/>
</svg>
