<svg width="60" height="38" fill="none" xmlns="http://www.w3.org/2000/svg"><path fill-rule="evenodd" clip-rule="evenodd" d="M17.89 11.401c.553-.664.927-1.587.825-2.507-.8.032-1.768.529-2.338 1.191-.516.587-.962 1.527-.839 2.429.89.068 1.797-.449 2.351-1.113zm2.298 5.838c-.018-1.99 1.64-2.947 1.717-2.994-.935-1.346-2.386-1.533-2.903-1.554-1.236-.121-2.415.721-3.04.721-.627 0-1.592-.702-2.62-.68-1.347.019-2.59.775-3.284 1.968-1.396 2.409-.354 5.966 1.01 7.915.667.954 1.46 2.025 2.506 1.987 1.007-.039 1.385-.645 2.601-.645 1.214-.001 1.557.643 2.617.625 1.082-.023 1.769-.974 2.432-1.932.763-1.105 1.079-2.178 1.095-2.231-.022-.015-2.107-.802-2.131-3.18zm12.88-5.839c-.403-.384-.923-.684-1.546-.89-.617-.203-1.358-.306-2.202-.306-.54-.002-1.081.025-1.619.083-.448.05-.895.112-1.34.186l-.13.023v13.985h1.29v-5.892a8.92 8.92 0 001.482.113 7.26 7.26 0 002.034-.274 4.563 4.563 0 001.63-.842c.463-.382.835-.86 1.09-1.4.264-.554.398-1.206.398-1.939 0-.606-.096-1.152-.285-1.621a3.708 3.708 0 00-.802-1.226zm-1.186 5.342c-.663.55-1.6.828-2.79.828-.327 0-.637-.014-.921-.04a4.442 4.442 0 01-.648-.108v-5.947c.17-.031.381-.06.63-.087.314-.033.692-.05 1.126-.05a5.44 5.44 0 011.475.19c.41.111.794.298 1.134.549.31.238.553.546.721.918.17.377.256.827.256 1.336 0 1.057-.332 1.868-.983 2.411zm9.988 6.43c-.014-.396-.02-.793-.02-1.189v-3.888a7.25 7.25 0 00-.14-1.398 3.517 3.517 0 00-.534-1.301 2.983 2.983 0 00-1.089-.957c-.46-.244-1.056-.368-1.775-.368a5.75 5.75 0 00-1.522.201 4.86 4.86 0 00-1.424.67l-.105.072.436 1.009.158-.105c.344-.228.72-.406 1.117-.526.4-.123.818-.187 1.238-.188.538 0 .968.097 1.274.287.311.192.545.43.697.709.158.287.26.593.306.91.05.33.072.626.072.879v.112c-1.913-.008-3.407.307-4.4.939-1.04.664-1.568 1.608-1.568 2.807 0 .345.062.693.185 1.036.125.348.315.659.563.925.25.269.572.488.958.652.384.165.836.249 1.34.249a3.795 3.795 0 002.978-1.362h.05l.118 1.135h1.244l-.035-.182a7.754 7.754 0 01-.122-1.128zm-1.31-1.992c0 .136-.034.323-.096.547-.084.243-.2.472-.347.683a2.652 2.652 0 01-1.352 1.01 3.214 3.214 0 01-1.034.156 2.07 2.07 0 01-.68-.115 1.635 1.635 0 01-.573-.339 1.687 1.687 0 01-.401-.575 2.138 2.138 0 01-.153-.854c0-.547.149-.991.44-1.316.315-.345.71-.61 1.152-.771a5.962 5.962 0 011.554-.351 14.24 14.24 0 011.49-.064v1.989zm10.07-6.882l-2.409 6.479c-.15.391-.29.785-.418 1.169-.063.191-.122.373-.18.545h-.046c-.06-.189-.122-.378-.184-.566-.125-.38-.26-.753-.397-1.108l-2.576-6.519h-1.377l3.685 9.372c.097.226.111.329.111.371 0 .013-.005.09-.113.375a6.78 6.78 0 01-.781 1.437 8.466 8.466 0 01-.807.959 4.4 4.4 0 01-.863.676c-.3.175-.573.317-.816.424l-.139.061.449 1.079.142-.052c.117-.044.337-.143.67-.303.335-.164.707-.424 1.104-.775a5.69 5.69 0 00.93-1.037c.272-.386.544-.839.812-1.343a20.4 20.4 0 00.785-1.7c.258-.63.535-1.333.82-2.089l2.976-7.455H50.63zM54.627.792h.61c.167.001.334.003.502.007.305.008.663.025 1.008.087.32.057.59.145.852.276.529.265.958.691 1.226 1.214.133.259.221.526.279.843.061.338.079.693.086.997.005.164.007.33.008.497.002.2.002.402.002.603v27.368c0 .201 0 .402-.002.606 0 .165-.003.33-.008.494a6.681 6.681 0 01-.086.999 2.8 2.8 0 01-1.507 2.056 3.055 3.055 0 01-.85.276 6.916 6.916 0 01-1.006.085c-.168.004-.336.007-.506.007l-.61.001H5.367l-.605-.001c-.168 0-.336-.003-.5-.007a7.09 7.09 0 01-1.008-.085 3.004 3.004 0 01-.853-.277 2.76 2.76 0 01-.71-.512 2.742 2.742 0 01-.515-.702 2.95 2.95 0 01-.28-.843 6.562 6.562 0 01-.087-.997c-.004-.165-.006-.33-.007-.495V4.713c0-.166.003-.331.007-.497.008-.302.025-.657.087-.999a2.91 2.91 0 01.28-.841A2.784 2.784 0 012.4 1.162a3 3 0 01.85-.275A6.783 6.783 0 014.262.8c.167-.004.334-.006.501-.007l.611-.001h49.254zm0-.792H4.758c-.173.002-.346.004-.519.009a7.7 7.7 0 00-1.128.098 3.85 3.85 0 00-1.073.35 3.603 3.603 0 00-1.93 2.622 7.343 7.343 0 00-.1 1.116c-.004.17-.006.341-.007.512L0 5.316v27.978c.002.171.004.342.009.512.01.372.032.747.1 1.115.067.375.178.722.353 1.062a3.573 3.573 0 001.577 1.56c.343.174.695.283 1.072.35a7.62 7.62 0 001.128.098A63.109 63.109 0 005.373 38h49.254c.205 0 .41 0 .615-.002.173 0 .346-.003.519-.007.376-.01.755-.032 1.128-.098a3.818 3.818 0 001.072-.35 3.566 3.566 0 001.577-1.56c.176-.34.286-.687.353-1.062.067-.368.089-.743.1-1.115.004-.171.007-.342.007-.512.002-.204.002-.406.002-.61V5.316c0-.204 0-.406-.002-.61 0-.171-.003-.341-.008-.512a7.336 7.336 0 00-.099-1.116 3.585 3.585 0 00-1.93-2.622 3.85 3.85 0 00-1.072-.35A7.712 7.712 0 0055.76.008 22.63 22.63 0 0055.241 0h-.615z" fill="#fff"/></svg>