<svg width="119" height="31" fill="none" xmlns="http://www.w3.org/2000/svg"><path d="M17.965 14.556a5.649 5.649 0 003.447 5.196 12.918 12.918 0 01-1.793 3.652c-1.056 1.582-2.163 3.126-3.922 3.155-1.707.04-2.281-1.006-4.24-1.006-1.978 0-2.59.977-4.228 1.045-1.674.063-2.953-1.686-4.049-3.251-2.187-3.197-3.89-9.01-1.607-12.964A6.279 6.279 0 016.857 7.16c1.675-.034 3.23 1.132 4.261 1.132 1.01 0 2.934-1.395 4.917-1.188a5.975 5.975 0 014.713 2.549 5.849 5.849 0 00-2.783 4.903zM14.74 5.002a4.84 4.84 0 01-3.824 1.807 5.48 5.48 0 011.351-3.97 5.859 5.859 0 013.79-1.96 5.753 5.753 0 01-1.317 4.123zm23.935 17.633h-5.591L31.74 26.6h-2.367l5.296-14.667h2.46L42.425 26.6h-2.408l-1.342-3.965zm-5.011-1.83h4.431l-2.184-6.434h-.06l-2.187 6.435zm20.198.447c0 3.322-1.779 5.458-4.463 5.458a3.627 3.627 0 01-3.365-1.87h-.05v5.296h-2.195v-14.23h2.125v1.778h.041a3.795 3.795 0 013.406-1.892c2.712.002 4.5 2.147 4.5 5.46zm-2.256 0c0-2.167-1.119-3.59-2.827-3.59-1.677 0-2.805 1.453-2.805 3.59 0 2.155 1.128 3.597 2.805 3.597 1.708 0 2.827-1.411 2.827-3.597zm14.026 0c0 3.322-1.779 5.458-4.463 5.458a3.627 3.627 0 01-3.365-1.87h-.05v5.296h-2.196v-14.23h2.125v1.778h.04a3.795 3.795 0 013.407-1.892c2.712.002 4.502 2.147 4.502 5.46zm-2.256 0c0-2.167-1.119-3.59-2.826-3.59-1.677 0-2.805 1.453-2.805 3.59 0 2.155 1.128 3.597 2.805 3.597 1.707 0 2.826-1.411 2.826-3.597zm10.035 1.26c.162 1.454 1.575 2.409 3.507 2.409 1.85 0 3.181-.955 3.181-2.267 0-1.139-.803-1.82-2.704-2.288l-1.9-.457c-2.693-.651-3.944-1.91-3.944-3.953 0-2.531 2.205-4.27 5.337-4.27 3.1 0 5.224 1.739 5.295 4.269h-2.216c-.132-1.463-1.343-2.347-3.11-2.347-1.77 0-2.98.893-2.98 2.196 0 1.037.773 1.647 2.663 2.112l1.616.398c3.01.712 4.26 1.92 4.26 4.067 0 2.743-2.186 4.462-5.663 4.462-3.252 0-5.448-1.677-5.591-4.331h2.249zm13.743-9.137v2.53h2.033v1.74h-2.033v5.895c0 .916.407 1.342 1.3 1.342.242-.003.483-.02.722-.05v1.728c-.401.075-.81.11-1.219.102-2.165 0-3.01-.814-3.01-2.887v-6.13h-1.553v-1.739h1.554v-2.53h2.206zm3.212 7.876c0-3.364 1.982-5.478 5.071-5.478 3.1 0 5.073 2.114 5.073 5.478 0 3.375-1.962 5.478-5.073 5.478-3.109.003-5.07-2.102-5.07-5.478zm7.907 0c0-2.307-1.058-3.67-2.836-3.67-1.777 0-2.834 1.373-2.834 3.671 0 2.318 1.057 3.67 2.834 3.67 1.78 0 2.836-1.353 2.836-3.67zm4.047-5.346h2.093v1.82h.051a2.55 2.55 0 012.573-1.931 3.39 3.39 0 01.752.081v2.053a3.046 3.046 0 00-.986-.132 2.211 2.211 0 00-2.287 2.46v6.343h-2.196V15.905zm15.589 7.553c-.296 1.941-2.185 3.273-4.604 3.273-3.111 0-5.042-2.083-5.042-5.427 0-3.355 1.942-5.53 4.95-5.53 2.959 0 4.82 2.032 4.82 5.275v.752h-7.553v.132a2.784 2.784 0 002.875 3.028 2.421 2.421 0 002.47-1.503h2.084zm-7.42-3.191h5.346a2.574 2.574 0 00-2.623-2.714 2.708 2.708 0 00-2.723 2.692v.022zM32.105 3.87h.943c.648.08 1.239-.38 1.32-1.028.003-.033.006-.063.007-.096 0-.65-.488-1.07-1.318-1.07a1.257 1.257 0 00-1.417 1.07l-.004.033H30.6A2.21 2.21 0 0133.09.72c1.388 0 2.365.777 2.365 1.894a1.638 1.638 0 01-1.28 1.612v.083c.902.04 1.603.802 1.568 1.704a2.354 2.354 0 01-2.633 2.094 2.34 2.34 0 01-2.636-2.005c-.004-.028-.008-.053-.01-.08h1.05c.063.674.683 1.108 1.596 1.108s1.51-.488 1.51-1.177c0-.697-.563-1.128-1.544-1.128h-.972v-.957.003zm4.831 2.563c0-.958.714-1.51 1.979-1.587l1.441-.083v-.458c0-.563-.37-.88-1.089-.88-.585 0-.991.216-1.109.593h-1.016c.108-.913.968-1.5 2.174-1.5 1.334 0 2.086.662 2.086 1.787v3.633h-1.01V7.19h-.083a1.789 1.789 0 01-1.597.836 1.609 1.609 0 01-1.776-1.593zm3.419-.453v-.444l-1.3.082c-.732.05-1.063.297-1.063.768 0 .478.416.757.987.757a1.254 1.254 0 001.376-1.163zm3.831-2.476V7.94h-1.05V2.621h3.503v.884h-2.453zM53 5.278c0 1.69-.854 2.75-2.197 2.75a1.73 1.73 0 01-1.637-.893h-.083v2.574h-1.05V2.62h1.012v.88h.078c.33-.611.977-.984 1.67-.969C52.147 2.532 53 3.587 53 5.278zm-1.079 0c0-1.123-.532-1.802-1.42-1.802-.883 0-1.435.693-1.435 1.806 0 1.11.552 1.802 1.432 1.802.89 0 1.423-.678 1.423-1.806zm2.477 4.565v-.902c.114.014.228.02.344.02a.91.91 0 00.961-.743l.078-.258-1.925-5.339h1.143l1.334 4.225h.083l1.329-4.225h1.112L56.874 8.16c-.455 1.295-.959 1.71-2.042 1.71a5.085 5.085 0 01-.434-.025v-.001zm5.277-3.413h1.045c.102.468.542.713 1.157.713.7 0 1.129-.308 1.129-.787 0-.513-.385-.757-1.129-.757h-.795v-.815h.782c.635 0 .958-.244.958-.687 0-.39-.313-.688-.958-.688-.586 0-1.016.249-1.083.67H59.77a1.864 1.864 0 012.096-1.558c1.265 0 1.988.572 1.988 1.47.012.516-.338.97-.84 1.089v.082c.6.077 1.047.592 1.04 1.197 0 1.011-.86 1.681-2.174 1.681-1.163-.004-2.107-.536-2.205-1.61zm5.889 1.509V2.62h1.04v3.658h.083l2.451-3.659h1.041v5.32h-1.04V4.26h-.079l-2.455 3.678h-1.041zM75.91 3.505h-1.674V7.94h-1.05V3.505H71.51V2.62h4.4v.884zm5.654 2.997a2.16 2.16 0 01-2.306 1.538 2.416 2.416 0 01-2.456-2.744 2.453 2.453 0 012.453-2.778c1.48 0 2.374 1.011 2.374 2.682v.366h-3.755v.06a1.403 1.403 0 001.416 1.522 1.274 1.274 0 001.265-.645h1.01zm-3.69-1.713h2.685A1.285 1.285 0 0079.25 3.41a1.36 1.36 0 00-1.377 1.378zm8.14-2.169h2.399c1.04 0 1.65.527 1.65 1.353a1.14 1.14 0 01-.898 1.122v.084c.645.041 1.145.58 1.138 1.226 0 .929-.699 1.534-1.865 1.534h-2.422V2.62h-.001zm1.041.807v1.377h1.04c.636 0 .94-.244.94-.694 0-.415-.265-.683-.823-.683h-1.157zm0 2.148v1.558H88.3c.62 0 .953-.275.953-.778 0-.533-.376-.781-1.083-.781h-1.115v.001z" fill="#fff"/></svg>