<svg width="119" height="31" viewBox="0 0 119 31" fill="none" xmlns="http://www.w3.org/2000/svg">
<path d="M17.9655 14.5565C17.968 16.8228 19.3248 18.8682 21.4118 19.7518C21.0108 21.0562 20.4056 22.2888 19.6188 23.4038C18.5628 24.9856 17.4562 26.53 15.6973 26.5586C13.9901 26.5982 13.4159 25.5532 11.4568 25.5532C9.479 25.5532 8.8674 26.53 7.2295 26.5982C5.5553 26.6609 4.276 24.9119 3.1804 23.3466C0.992511 20.1511 -0.711388 14.3376 1.5733 10.3831C2.6459 8.4551 4.6516 7.2316 6.8566 7.1601C8.5319 7.126 10.0873 8.292 11.118 8.292C12.1278 8.292 14.0517 6.8972 16.035 7.104C17.9204 7.1619 19.6677 8.1067 20.7485 9.6527C19.0421 10.7027 17.992 12.5531 17.9655 14.5565ZM14.7403 5.0019C13.8101 6.159 12.4002 6.8252 10.9156 6.8092C10.8218 5.3586 11.3081 3.9301 12.2675 2.83816C13.2396 1.7321 14.5925 1.03266 16.057 0.879061C16.1715 2.37232 15.6991 3.8514 14.7403 5.0019ZM38.6752 22.6349H33.0839L31.7408 26.6004H29.3736L34.6701 11.933H37.1297L42.4251 26.6004H40.0172L38.6752 22.6349ZM33.6636 20.8056H38.0955L35.9109 14.3706H35.8504L33.6636 20.8056ZM53.8618 21.2522C53.8618 24.5742 52.0831 26.7104 49.3991 26.7104C48.0117 26.7827 46.7049 26.056 46.0342 24.8393H45.9836V30.1358H43.7891V15.9051H45.9143V17.6838H45.955C46.6552 16.4741 47.9636 15.7472 49.3606 15.7918C52.0732 15.794 53.8618 17.939 53.8618 21.2522ZM51.6057 21.2522C51.6057 19.0852 50.487 17.6629 48.7787 17.6629C47.1023 17.6629 45.9737 19.1149 45.9737 21.2522C45.9737 23.4071 47.1023 24.8492 48.7787 24.8492C50.487 24.8492 51.6057 23.4379 51.6057 21.2522ZM65.6318 21.2522C65.6318 24.5742 63.8531 26.7104 61.1691 26.7104C59.7817 26.7827 58.4749 26.056 57.8042 24.8393H57.7536V30.1358H55.558V15.9051H57.6832V17.6838H57.7239C58.4241 16.4741 59.7325 15.7472 61.1295 15.7918C63.8421 15.794 65.6318 17.939 65.6318 21.2522ZM63.3757 21.2522C63.3757 19.0852 62.257 17.6629 60.5498 17.6629C58.8734 17.6629 57.7448 19.1149 57.7448 21.2522C57.7448 23.4071 58.8734 24.8492 60.5498 24.8492C62.257 24.8492 63.3757 23.4379 63.3757 21.2522ZM73.411 22.5117C73.5727 23.9659 74.9862 24.9207 76.9178 24.9207C78.768 24.9207 80.099 23.9659 80.099 22.6536C80.099 21.5151 79.296 20.8331 77.3952 20.3656L75.4944 19.9091C72.8016 19.2579 71.5509 17.9984 71.5509 15.9557C71.5509 13.4246 73.7564 11.6866 76.8881 11.6866C79.9879 11.6866 82.112 13.4246 82.1835 15.9546H79.967C79.835 14.4916 78.6239 13.6083 76.8562 13.6083C75.0874 13.6083 73.8774 14.5015 73.8774 15.8039C73.8774 16.8412 74.6496 17.4506 76.5405 17.9159L78.1564 18.3141C81.166 19.0258 82.4156 20.2347 82.4156 22.3808C82.4156 25.1242 80.2299 26.8435 76.7528 26.8435C73.5012 26.8435 71.3045 25.166 71.1615 22.5117H73.411ZM87.1544 13.3751V15.9051H89.1872V17.6453H87.1544V23.5402C87.1544 24.4565 87.5614 24.8822 88.4546 24.8822C88.6959 24.8789 88.9368 24.8624 89.1762 24.8327V26.5597C88.7745 26.6354 88.3661 26.6697 87.9574 26.662C85.7915 26.662 84.9478 25.848 84.9478 23.7745V17.6453H83.3935V15.9062H84.9478V13.3751H87.1544ZM90.3664 21.2511C90.3664 17.8873 92.348 15.7731 95.437 15.7731C98.537 15.7731 100.51 17.8873 100.51 21.2511C100.51 24.6259 98.548 26.7291 95.437 26.7291C92.328 26.7324 90.3664 24.627 90.3664 21.2511ZM98.273 21.2511C98.273 18.9444 97.215 17.5815 95.437 17.5815C93.66 17.5815 92.603 18.9543 92.603 21.2522C92.603 23.5699 93.66 24.9218 95.437 24.9218C97.217 24.9218 98.273 23.5688 98.273 21.2522V21.2511ZM102.32 15.9051H104.413V17.7256H104.464C104.756 16.5538 105.83 15.7476 107.037 15.794C107.29 15.7929 107.542 15.8204 107.789 15.8754V17.928C107.47 17.8303 107.137 17.7857 106.803 17.796C106.157 17.7696 105.533 18.0267 105.093 18.4996C104.654 18.9725 104.443 19.614 104.516 20.2556V26.5993H102.32V15.9051ZM117.909 23.4577C117.613 25.3992 115.724 26.7313 113.305 26.7313C110.194 26.7313 108.263 24.6479 108.263 21.3039C108.263 17.9489 110.205 15.7742 113.213 15.7742C116.172 15.7742 118.033 17.8059 118.033 21.0487V21.8011H110.48V21.9331C110.409 22.729 110.684 23.5171 111.234 24.0965C111.784 24.676 112.557 24.991 113.355 24.9614C114.42 25.061 115.424 24.4496 115.825 23.4577H117.909ZM110.489 20.2666H115.835C115.875 19.5513 115.614 18.8517 115.117 18.3366C114.619 17.8214 113.929 17.5373 113.212 17.5529C111.717 17.5443 110.498 18.7493 110.489 20.2446V20.2666ZM32.1049 3.8711H33.0476C33.6961 3.9514 34.2869 3.491 34.3676 2.84256C34.3709 2.80956 34.3742 2.77986 34.3753 2.74686C34.3753 2.09676 33.8869 1.67656 33.0575 1.67656C32.3706 1.58122 31.7362 2.0601 31.6396 2.74686L31.6363 2.77986H30.6001C30.6365 2.16813 30.9253 1.59897 31.3974 1.20835C31.8696 0.817721 32.4828 0.640691 33.0905 0.719561C34.4776 0.719561 35.4555 1.49726 35.4555 2.61376C35.4622 3.3859 34.9287 4.0578 34.1751 4.2264V4.3089C35.0771 4.3485 35.7778 5.1108 35.7426 6.0128C35.6777 6.6423 35.3619 7.2192 34.8667 7.6132C34.3714 8.0073 33.7384 8.1853 33.1103 8.1072C32.4947 8.1913 31.8708 8.0273 31.3763 7.6511C30.8817 7.275 30.5569 6.7176 30.4736 6.1019C30.4703 6.0744 30.4659 6.0491 30.4637 6.0216H31.5142C31.5769 6.6959 32.1973 7.1304 33.1103 7.1304C34.0233 7.1304 34.6195 6.642 34.6195 5.9534C34.6195 5.256 34.0574 4.8248 33.0762 4.8248H32.1038V3.8678H32.1049V3.8711ZM36.9361 6.4341C36.9361 5.476 37.65 4.9238 38.915 4.8468L40.356 4.7643V4.3056C40.356 3.7435 39.9864 3.4256 39.267 3.4256C38.6818 3.4256 38.2759 3.6423 38.1582 4.0185H37.1418C37.2496 3.1055 38.1098 2.51806 39.3165 2.51806C40.6497 2.51806 41.4021 3.1814 41.4021 4.3056V7.9389H40.3912V7.1909H40.3087C39.9659 7.7371 39.3557 8.0565 38.7115 8.0269C38.2595 8.0741 37.8086 7.9279 37.4703 7.6244C37.1321 7.321 36.938 6.8885 36.9361 6.4341ZM40.3549 5.9809V5.5365L39.0558 5.619C38.3232 5.6685 37.9921 5.916 37.9921 6.3868C37.9921 6.8653 38.4079 7.1436 38.9788 7.1436C39.3166 7.1774 39.6538 7.0728 39.9131 6.8537C40.1725 6.6345 40.3319 6.3196 40.3549 5.9809ZM44.1862 3.5048V7.94H43.1368V2.62146H46.6392V3.5048H44.1862ZM52.9994 5.278C52.9994 6.9687 52.1447 8.028 50.8016 8.028C50.1285 8.0748 49.4896 7.7262 49.1648 7.1348H49.0823V9.7088H48.0329V2.62146H49.0438V3.5004H49.1219C49.4519 2.88986 50.0987 2.51696 50.7928 2.53236C52.1458 2.53126 52.9994 3.5873 52.9994 5.278ZM51.9203 5.278C51.9203 4.1549 51.3879 3.4762 50.5002 3.4762C49.6169 3.4762 49.0647 4.1692 49.0647 5.2824C49.0647 6.3912 49.6169 7.0842 50.4969 7.0842C51.3879 7.0842 51.9203 6.4055 51.9203 5.278ZM54.3975 9.843V8.941C54.5108 8.9553 54.6252 8.9619 54.7407 8.9608C55.2037 8.9948 55.618 8.6748 55.7021 8.2183L55.7802 7.9598L53.8552 2.62146H54.9981L56.3324 6.8455H56.4149L57.7437 2.62146H58.8558L56.8736 8.1589C56.4193 9.4536 55.9155 9.8683 54.832 9.8683C54.6869 9.8664 54.5419 9.8584 54.3975 9.8441V9.843ZM59.6742 6.4297H60.7192C60.8215 6.8983 61.2615 7.1425 61.8764 7.1425C62.576 7.1425 63.005 6.8345 63.005 6.356C63.005 5.8434 62.62 5.5992 61.8764 5.5992H61.0811V4.7841H61.8632C62.4979 4.7841 62.8213 4.5399 62.8213 4.0966C62.8213 3.7061 62.5078 3.4091 61.8632 3.4091C61.2769 3.4091 60.8468 3.6577 60.7797 4.079H59.7688C59.9265 3.0752 60.8589 2.38256 61.8654 2.52136C63.1304 2.52136 63.8531 3.0934 63.8531 3.991C63.8654 4.5069 63.5149 4.9611 63.0127 5.08V5.1625C63.6133 5.2395 64.0599 5.7543 64.0533 6.3593C64.0533 7.3702 63.1931 8.0401 61.8786 8.0401C60.7159 8.0357 59.7721 7.5044 59.6742 6.4297ZM65.5625 7.9389V2.62036H66.6031V6.2779H66.6856L69.1375 2.61926H70.1781V7.9389H69.1375V4.2605H69.0594L66.6042 7.9389H65.5625ZM75.9091 3.5048H74.2349V7.94H73.1844V3.5048H71.5102V2.62146H75.9102V3.5048H75.9091ZM81.5631 6.5023C81.2679 7.5052 80.2969 8.1529 79.2575 8.0401C78.5485 8.0586 77.8672 7.7647 77.3942 7.2363C76.9212 6.7078 76.7044 5.9981 76.8012 5.2956C76.7071 4.5909 76.9234 3.88 77.394 3.3472C77.8646 2.81429 78.5433 2.51181 79.2542 2.51806C80.7348 2.51806 81.628 3.529 81.628 5.1999V5.5662H77.8726V5.6256C77.8387 6.0203 77.9734 6.411 78.2433 6.7011C78.5132 6.9911 78.8932 7.1535 79.2894 7.148C79.8031 7.2096 80.3014 6.9555 80.5544 6.5034L81.5631 6.5023ZM77.8726 4.7885H80.5577C80.5841 4.4278 80.4573 4.0727 80.2083 3.8103C79.9594 3.548 79.6114 3.4027 79.2498 3.4102C78.8829 3.4054 78.5297 3.5491 78.2703 3.8086C78.011 4.0682 77.8675 4.4216 77.8726 4.7885ZM86.0137 2.62036H88.4117C89.4523 2.62036 90.0628 3.1473 90.0628 3.9734C90.0661 4.5124 89.6921 4.9821 89.1641 5.0954V5.179C89.809 5.2204 90.3087 5.7593 90.3015 6.4055C90.3015 7.3339 89.603 7.9389 88.437 7.9389H86.0148V2.62036H86.0137ZM87.0543 3.4267V4.8039H88.0949C88.7296 4.8039 89.0332 4.5597 89.0332 4.1098C89.0332 3.6951 88.7692 3.4267 88.2115 3.4267H87.0543ZM87.0543 5.575V7.1326H88.2995C88.9199 7.1326 89.2521 6.8576 89.2521 6.3549C89.2521 5.8225 88.8759 5.5739 88.1686 5.5739H87.0543V5.575Z" fill="white"/>
</svg>
