<svg width="131" height="86" viewBox="0 0 131 86" fill="none" xmlns="http://www.w3.org/2000/svg">
<path d="M12.2734 47.3936V44.3717C12.2734 43.2271 11.5882 42.4716 10.4387 42.4716C9.86401 42.4716 9.22297 42.6776 8.78087 43.3187C8.4493 42.7692 7.96299 42.4716 7.23353 42.4716C6.74723 42.4716 6.26092 42.6319 5.88513 43.1813V42.586H4.86832V47.3936H5.88513V44.738C5.88513 43.891 6.32723 43.4789 6.99038 43.4789C7.65352 43.4789 8.0072 43.9367 8.0072 44.738V47.3936H9.02402V44.738C9.02402 43.891 9.51033 43.4789 10.1293 43.4789C10.8146 43.4789 11.1461 43.9367 11.1461 44.738V47.3936H12.2734ZM27.3711 42.5632H25.7132V41.098H24.6964V42.5632H23.768V43.5247H24.6964V45.7453C24.6964 46.8442 25.1385 47.5081 26.2879 47.5081C26.73 47.5081 27.2163 47.3478 27.5479 47.1647L27.2605 46.2489C26.9732 46.455 26.6195 46.5008 26.3763 46.5008C25.89 46.5008 25.691 46.2032 25.691 45.6995V43.5476H27.3489V42.5632H27.3711ZM36.0141 42.4716C35.4394 42.4716 35.0415 42.7692 34.7982 43.1813V42.586H33.7815V47.3936H34.7982V44.6694C34.7982 43.868 35.1298 43.4102 35.7709 43.4102C35.9698 43.4102 36.213 43.4561 36.412 43.5018L36.6993 42.4945C36.5003 42.4716 36.213 42.4716 36.0141 42.4716ZM22.95 42.9753C22.4638 42.6319 21.7785 42.4716 21.049 42.4716C19.8775 42.4716 19.1038 43.0668 19.1038 44.0283C19.1038 44.8296 19.6785 45.2874 20.6954 45.4248L21.1817 45.4706C21.7122 45.5621 21.9996 45.7224 21.9996 45.9742C21.9996 46.3176 21.6017 46.5695 20.9385 46.5695C20.2754 46.5695 19.7228 46.3176 19.3912 46.0658L18.9049 46.867C19.4354 47.2791 20.1649 47.4622 20.8944 47.4622C22.2427 47.4622 23.0385 46.7984 23.0385 45.9055C23.0385 45.0585 22.3975 44.6007 21.4469 44.4404L20.9607 44.3946C20.5185 44.3488 20.1869 44.2344 20.1869 43.9367C20.1869 43.5933 20.5185 43.3874 21.0712 43.3874C21.6459 43.3874 22.2427 43.6392 22.5301 43.7993L22.95 42.9753ZM50.0285 42.4716C49.4538 42.4716 49.0559 42.7692 48.8127 43.1813V42.586H47.7959V47.3936H48.8127V44.6694C48.8127 43.868 49.1443 43.4102 49.7854 43.4102C49.9842 43.4102 50.2275 43.4561 50.4264 43.5018L50.7137 42.4945C50.5148 42.4716 50.2275 42.4716 50.0285 42.4716ZM37.0308 44.9898C37.0308 46.455 38.0034 47.5081 39.5066 47.5081C40.1919 47.5081 40.6782 47.3478 41.1645 46.9586L40.6782 46.1116C40.2803 46.4092 39.9044 46.5695 39.4624 46.5695C38.6446 46.5695 38.0477 45.9742 38.0477 45.0128C38.0477 44.097 38.6224 43.5018 39.4624 43.4561C39.9044 43.4561 40.2803 43.6162 40.6782 43.9139L41.1645 43.0668C40.6782 42.6547 40.1919 42.5174 39.5066 42.5174C38.0034 42.4716 37.0308 43.5246 37.0308 44.9898ZM46.4475 44.9898V42.586H45.4307V43.1813C45.0991 42.7234 44.6128 42.4716 43.9718 42.4716C42.6676 42.4716 41.6508 43.5246 41.6508 44.9898C41.6508 46.455 42.6676 47.5081 43.9718 47.5081C44.657 47.5081 45.1433 47.2562 45.4307 46.7984V47.3936H46.4475V44.9898ZM42.7119 44.9898C42.7119 44.1428 43.2423 43.4331 44.1265 43.4331C44.9444 43.4331 45.5412 44.097 45.5412 44.9898C45.5412 45.8368 44.9665 46.5466 44.1265 46.5466C43.2423 46.5008 42.7119 45.8368 42.7119 44.9898ZM30.5321 42.4716C29.1836 42.4716 28.211 43.4789 28.211 44.9898C28.211 46.5008 29.1836 47.5081 30.5983 47.5081C31.2836 47.5081 31.9468 47.302 32.4993 46.8442L32.0131 46.0887C31.6152 46.3863 31.1288 46.5923 30.6646 46.5923C30.0236 46.5923 29.4047 46.2948 29.2499 45.4477H32.6983V45.0356C32.7204 43.4789 31.8363 42.4716 30.5321 42.4716ZM30.5321 43.3644C31.1731 43.3644 31.593 43.7765 31.7036 44.5091H29.2721C29.3604 43.868 29.8026 43.3644 30.5321 43.3644ZM55.8199 44.9898V40.6631H54.8032V43.1813C54.4716 42.7234 53.9852 42.4716 53.3442 42.4716C52.04 42.4716 51.0233 43.5246 51.0233 44.9898C51.0233 46.455 52.04 47.5081 53.3442 47.5081C54.0295 47.5081 54.5158 47.2562 54.8032 46.7984V47.3936H55.8199V44.9898ZM52.0622 44.9898C52.0622 44.1428 52.5927 43.4331 53.4768 43.4331C54.2948 43.4331 54.8916 44.097 54.8916 44.9898C54.8916 45.8368 54.3168 46.5466 53.4768 46.5466C52.6147 46.5008 52.0622 45.8368 52.0622 44.9898ZM17.9986 44.9898V42.586H16.9817V43.1813C16.6501 42.7234 16.1639 42.4716 15.5229 42.4716C14.2187 42.4716 13.2018 43.5246 13.2018 44.9898C13.2018 46.455 14.2187 47.5081 15.5229 47.5081C16.2081 47.5081 16.6944 47.2562 16.9817 46.7984V47.3936H17.9986V44.9898ZM14.2187 44.9898C14.2187 44.1428 14.7491 43.4331 15.6334 43.4331C16.4512 43.4331 17.048 44.097 17.048 44.9898C17.048 45.8368 16.4733 46.5466 15.6334 46.5466C14.7491 46.5008 14.2187 45.8368 14.2187 44.9898Z" fill="white"/>
<path d="M37.9149 5.93457H22.6184V34.3905H37.9149V5.93457Z" fill="#FF5F00"/>
<path d="M23.5909 20.1511C23.5909 14.3821 26.2214 9.25408 30.2445 5.9346C27.2824 3.53083 23.5467 2.06567 19.4573 2.06567C9.79747 2.06567 1.99446 10.1469 1.99446 20.1511C1.99446 30.1554 9.79747 38.2367 19.4573 38.2367C23.5246 38.2367 27.2603 36.7714 30.2223 34.3677C26.1992 31.1169 23.5909 25.9431 23.5909 20.1511Z" fill="#EB001B"/>
<path d="M58.5164 20.1511C58.5164 30.1554 50.7133 38.2367 41.0535 38.2367C36.9862 38.2367 33.2504 36.7714 30.2885 34.3677C34.3557 31.0483 36.942 25.9202 36.942 20.1511C36.942 14.3821 34.3115 9.25408 30.2885 5.9346C33.2504 3.53083 36.9862 2.06567 41.0535 2.06567C50.7133 2.06567 58.5164 10.2156 58.5164 20.1511Z" fill="#F79E1B"/>
<path d="M107.707 34.3806H92.4259V5.93042H107.707V34.3806Z" fill="#6C6BBD"/>
<path d="M93.3974 20.1559C93.3974 14.3926 96.0031 9.24685 100.066 5.9307C97.0851 3.50648 93.3532 2.06567 89.2679 2.06567C79.6178 2.06567 71.8006 10.1616 71.8006 20.1559C71.8006 30.15 79.6178 38.246 89.2679 38.246C93.3532 38.246 97.0851 36.8051 100.066 34.381C96.0031 31.0648 93.3974 25.9419 93.3974 20.1559Z" fill="#D32011"/>
<path d="M128.332 20.1559C128.332 30.15 120.515 38.246 110.865 38.246C106.779 38.246 103.048 36.8051 100.066 34.381C104.13 31.0648 106.736 25.919 106.736 20.1559C106.736 14.3926 104.13 9.24685 100.066 5.9307C103.048 3.50648 106.779 2.06567 110.865 2.06567C120.515 2.06567 128.332 10.1616 128.332 20.1559Z" fill="#0099DF"/>
<path d="M112.874 42.4309C113.073 42.4309 113.36 42.4766 113.603 42.5681L113.294 43.5516C113.073 43.46 112.874 43.4372 112.653 43.4372C111.991 43.4372 111.66 43.8717 111.66 44.6721V47.348H110.667V42.5453H111.66V43.1399C111.925 42.7054 112.3 42.4309 112.874 42.4309ZM109.143 43.5058H107.486V45.6785C107.486 46.1587 107.641 46.4789 108.149 46.4789C108.414 46.4789 108.745 46.3874 109.032 46.2045L109.319 47.0964C109.01 47.325 108.502 47.4623 108.061 47.4623C106.868 47.4623 106.448 46.799 106.448 45.6785V43.483H105.499V42.5453H106.448V41.0815H107.464V42.5453H109.12V43.5058H109.143ZM96.2241 44.535C96.3345 43.8489 96.732 43.3685 97.4607 43.3685C98.1011 43.3685 98.5206 43.7802 98.6311 44.535H96.2241ZM99.6911 44.9466C99.6911 43.46 98.7857 42.4309 97.4828 42.4309C96.1137 42.4309 95.1642 43.46 95.1642 44.9466C95.1642 46.4789 96.1578 47.4623 97.549 47.4623C98.2557 47.4623 98.8961 47.2794 99.4482 46.7991L98.9623 46.0215C98.5648 46.3416 98.0791 46.5246 97.6152 46.5246C96.9749 46.5246 96.3787 46.2045 96.2241 45.3583H99.6689C99.6911 45.2211 99.6911 45.0838 99.6911 44.9466ZM104.13 43.7802C103.843 43.5973 103.268 43.3685 102.695 43.3685C102.142 43.3685 101.811 43.5744 101.811 43.9403C101.811 44.2606 102.164 44.352 102.606 44.4206L103.092 44.4892C104.108 44.6493 104.704 45.0838 104.704 45.9301C104.704 46.8448 103.931 47.5081 102.584 47.5081C101.833 47.5081 101.126 47.3022 100.575 46.8906L101.06 46.0672C101.391 46.3416 101.899 46.5704 102.606 46.5704C103.29 46.5704 103.666 46.3646 103.666 45.9757C103.666 45.7013 103.401 45.5641 102.849 45.4726L102.363 45.404C101.326 45.2439 100.751 44.7636 100.751 43.986C100.751 43.0256 101.502 42.4538 102.672 42.4538C103.401 42.4538 104.086 42.6139 104.572 42.9569L104.13 43.7802ZM116.562 43.4143C116.364 43.4143 116.164 43.4601 115.988 43.5286C115.811 43.5973 115.657 43.7116 115.524 43.8489C115.391 43.986 115.282 44.1461 115.215 44.3291C115.149 44.512 115.104 44.7179 115.104 44.9466C115.104 45.1753 115.149 45.3811 115.215 45.5641C115.282 45.7471 115.391 45.9071 115.524 46.0444C115.657 46.1815 115.811 46.296 115.988 46.3646C116.164 46.4331 116.364 46.4789 116.562 46.4789C116.761 46.4789 116.96 46.4331 117.137 46.3646C117.313 46.296 117.468 46.1815 117.6 46.0444C117.733 45.9071 117.843 45.7471 117.909 45.5641C117.975 45.3811 118.019 45.1753 118.019 44.9466C118.019 44.7179 117.975 44.512 117.909 44.3291C117.843 44.1461 117.733 43.986 117.6 43.8489C117.468 43.7116 117.313 43.5973 117.137 43.5286C116.982 43.4601 116.783 43.4143 116.562 43.4143ZM116.562 42.4309C116.915 42.4309 117.246 42.4996 117.555 42.6367C117.865 42.774 118.13 42.9341 118.351 43.1627C118.572 43.3915 118.748 43.6659 118.881 43.9632C119.013 44.2834 119.079 44.6036 119.079 44.9695C119.079 45.3354 119.013 45.6785 118.881 45.9757C118.748 46.2731 118.572 46.5475 118.351 46.7762C118.13 47.0049 117.865 47.1879 117.555 47.3022C117.246 47.4395 116.915 47.4851 116.562 47.4851C116.209 47.4851 115.877 47.4166 115.568 47.3022C115.259 47.165 114.995 47.0049 114.773 46.7762C114.553 46.5475 114.376 46.2731 114.244 45.9757C114.111 45.6556 114.045 45.3354 114.045 44.9695C114.045 44.6036 114.111 44.2605 114.244 43.9632C114.376 43.6659 114.553 43.3915 114.773 43.1627C114.995 42.9341 115.259 42.751 115.568 42.6367C115.877 42.4766 116.209 42.4309 116.562 42.4309ZM90.328 44.9466C90.328 44.1004 90.858 43.4143 91.7414 43.4143C92.5804 43.4143 93.1325 44.0776 93.1325 44.9466C93.1325 45.8156 92.5584 46.4789 91.7414 46.4789C90.8801 46.4789 90.328 45.7928 90.328 44.9466ZM94.1042 44.9466V42.5453H93.0883V43.1399C92.7571 42.7054 92.2934 42.4309 91.6309 42.4309C90.328 42.4309 89.3122 43.483 89.3122 44.9466C89.3122 46.4103 90.328 47.4623 91.6309 47.4623C92.2934 47.4623 92.7792 47.1879 93.0883 46.7533V47.348H94.1042V44.9466ZM88.4068 47.348V44.3291C88.4068 43.1856 87.7002 42.4309 86.574 42.4309C85.9778 42.4309 85.3595 42.6139 84.9399 43.2771C84.6307 42.751 84.1228 42.4309 83.4162 42.4309C82.9303 42.4309 82.4446 42.591 82.0471 43.1399V42.5453H81.0312V47.348H82.0471V44.6951C82.0471 43.8717 82.4887 43.4143 83.1733 43.4143C83.8357 43.4143 84.189 43.8717 84.189 44.6721V47.348H85.2049V44.6951C85.2049 43.8717 85.6686 43.4143 86.3311 43.4143C87.0157 43.4143 87.3469 43.8717 87.3469 44.6721V47.348H88.4068Z" fill="white"/>
<path fill-rule="evenodd" clip-rule="evenodd" d="M113.908 74.1296V82.6226H118.463V77.5897H123.627C125.8 77.573 127.645 76.1353 128.341 74.1296H113.908Z" fill="white"/>
<path fill-rule="evenodd" clip-rule="evenodd" d="M113.299 67.1311C113.565 70.6026 116.736 73.3435 120.609 73.3435C120.622 73.3435 128.531 73.3435 128.531 73.3435C128.589 73.0252 128.62 72.6966 128.62 72.3606C128.62 69.4849 126.38 67.1524 123.609 67.1312L113.299 67.1311Z" fill="white"/>
<path fill-rule="evenodd" clip-rule="evenodd" d="M106.557 73.2609L106.56 73.253L106.561 73.2532C106.608 73.1663 106.697 73.1076 106.799 73.1076C106.948 73.1076 107.069 73.2301 107.073 73.3829V82.5443H111.629V67.1311H107.073C106.495 67.151 105.843 67.5901 105.6 68.1291L101.975 76.1814C101.966 76.2144 101.952 76.245 101.933 76.2726L101.932 76.2753V76.2752C101.877 76.3569 101.785 76.4105 101.682 76.4105C101.514 76.4105 101.378 76.2696 101.378 76.0959V67.1311H96.8224V82.5443H101.378V82.5426C101.95 82.5116 102.587 82.0775 102.826 81.5463L106.547 73.2817C106.55 73.2746 106.553 73.2677 106.557 73.2609Z" fill="white"/>
<path fill-rule="evenodd" clip-rule="evenodd" d="M89.5447 73.5244L86.882 82.5443H83.6046L80.9403 73.5189C80.9145 73.3744 80.7923 73.2649 80.6453 73.2649C80.4796 73.2649 80.3453 73.4039 80.3453 73.5755C80.3453 73.5768 80.3453 73.5782 80.3454 73.5795L80.3453 82.5443H75.7895V67.1311H79.6999H80.8646C81.7029 67.1311 82.5813 67.8049 82.8263 68.6347L85.0435 76.1455C85.1539 76.5192 85.3328 76.5188 85.443 76.1455L87.6602 68.6347C87.9054 67.8043 88.7836 67.1311 89.622 67.1311H90.7862H94.6964V82.5443H90.1405V73.5795C90.1405 73.5782 90.1405 73.5768 90.1405 73.5755C90.1405 73.4039 90.0062 73.2649 89.8405 73.2649C89.6918 73.2649 89.5682 73.3772 89.5447 73.5244Z" fill="white"/>
<path d="M26.0293 83.3876H21.5364L24.3466 65.3918H28.8393L26.0293 83.3876Z" fill="white"/>
<path d="M42.3165 65.8318C41.4302 65.4677 40.0246 65.0657 38.2866 65.0657C33.8497 65.0657 30.7253 67.5161 30.7061 71.0193C30.6692 73.604 32.9431 75.0396 34.6438 75.9015C36.382 76.7821 36.9729 77.3569 36.9729 78.1419C36.9552 79.3475 35.5683 79.9032 34.2747 79.9032C32.481 79.9032 31.5198 79.6167 30.0592 78.9459L29.4675 78.6584L28.8388 82.6981C29.8926 83.1953 31.8341 83.6365 33.8497 83.6558C38.564 83.6558 41.6332 81.2434 41.6696 77.5101C41.6875 75.4615 40.4867 73.8918 37.8981 72.6091C36.3267 71.7857 35.3644 71.2305 35.3644 70.388C35.3828 69.6221 36.1783 68.8376 37.9523 68.8376C39.4128 68.7992 40.486 69.1628 41.299 69.5267L41.7054 69.7178L42.3165 65.8318Z" fill="white"/>
<path d="M48.2882 77.0124C48.6581 75.9785 50.082 71.9773 50.082 71.9773C50.0632 72.0157 50.4513 70.9244 50.673 70.2544L50.9871 71.805C50.9871 71.805 51.8379 76.1126 52.0227 77.0124C51.3204 77.0124 49.1756 77.0124 48.2882 77.0124ZM53.8342 65.3918H50.3588C49.2871 65.3918 48.473 65.7171 48.0105 66.8849L41.3369 83.3873H46.0512C46.0512 83.3873 46.8273 81.1663 46.9941 80.6879C47.5113 80.6879 52.0973 80.6879 52.7626 80.6879C52.8917 81.3197 53.2987 83.3873 53.2987 83.3873H57.4588L53.8342 65.3918Z" fill="white"/>
<path d="M17.7836 65.3918L13.3835 77.6632L12.9027 75.1745C12.0892 72.3027 9.53795 69.1827 6.69089 67.6312L10.7212 83.3685H15.4723L22.5345 65.3918H17.7836Z" fill="white"/>
<path d="M9.29711 65.3918H2.06842L1.99446 65.7555C7.6333 67.2488 11.3678 70.8486 12.9022 75.1752L11.3307 66.9046C11.0719 65.7552 10.277 65.4297 9.29711 65.3918Z" fill="white"/>
</svg>
