<svg width="131" height="86" fill="none" xmlns="http://www.w3.org/2000/svg"><path d="M12.273 47.394v-3.022c0-1.145-.685-1.9-1.834-1.9-.575 0-1.216.206-1.658.847-.332-.55-.818-.847-1.547-.847-.487 0-.973.16-1.349.71v-.596H4.868v4.808h1.017v-2.656c0-.847.442-1.26 1.105-1.26.664 0 1.017.459 1.017 1.26v2.656h1.017v-2.656c0-.847.486-1.26 1.105-1.26.686 0 1.017.459 1.017 1.26v2.656h1.127zm15.098-4.83h-1.658v-1.466h-1.017v1.465h-.928v.962h.928v2.22c0 1.1.442 1.763 1.592 1.763.442 0 .928-.16 1.26-.343l-.287-.916c-.288.206-.642.252-.885.252-.486 0-.685-.298-.685-.801v-2.152h1.658v-.985h.022zm8.643-.092c-.575 0-.973.297-1.216.71v-.596h-1.017v4.808h1.017v-2.725c0-.801.332-1.259.973-1.259a3.1 3.1 0 01.641.092l.287-1.008c-.199-.022-.486-.022-.685-.022zm-13.064.503c-.486-.343-1.171-.503-1.901-.503-1.171 0-1.945.595-1.945 1.556 0 .802.575 1.26 1.591 1.397l.487.046c.53.091.818.251.818.503 0 .344-.398.596-1.061.596a2.615 2.615 0 01-1.548-.504l-.486.801c.53.412 1.26.595 1.99.595 1.348 0 2.143-.664 2.143-1.556 0-.847-.64-1.305-1.591-1.466l-.486-.045c-.442-.046-.774-.16-.774-.458 0-.344.331-.55.884-.55.575 0 1.172.252 1.46.412l.419-.824zm27.079-.503c-.575 0-.973.297-1.216.71v-.596h-1.017v4.808h1.017v-2.725c0-.801.331-1.259.972-1.259.2 0 .443.046.641.092l.288-1.008c-.2-.022-.486-.022-.685-.022zM37.03 44.99c0 1.465.972 2.518 2.476 2.518.685 0 1.171-.16 1.657-.55l-.486-.846c-.398.297-.774.457-1.216.457-.817 0-1.414-.595-1.414-1.556 0-.916.574-1.511 1.414-1.557.442 0 .818.16 1.216.458l.486-.847c-.486-.412-.972-.55-1.657-.55-1.504-.045-2.476 1.008-2.476 2.473zm9.416 0v-2.404H45.43v.595c-.332-.458-.818-.71-1.46-.71-1.303 0-2.32 1.054-2.32 2.519s1.017 2.518 2.32 2.518c.686 0 1.172-.252 1.46-.71v.596h1.017V44.99zm-3.735 0c0-.847.53-1.557 1.414-1.557.818 0 1.415.664 1.415 1.557 0 .847-.574 1.557-1.414 1.557-.885-.046-1.415-.71-1.415-1.557zm-12.18-2.518c-1.348 0-2.321 1.007-2.321 2.518 0 1.51.973 2.518 2.387 2.518.686 0 1.349-.206 1.901-.664l-.486-.755c-.398.297-.884.503-1.348.503-.641 0-1.26-.297-1.415-1.144h3.448v-.412c.022-1.557-.862-2.564-2.166-2.564zm0 .892c.641 0 1.061.413 1.172 1.145h-2.432c.088-.641.53-1.145 1.26-1.145zM55.82 44.99v-4.327h-1.017v2.518c-.331-.458-.818-.71-1.459-.71-1.304 0-2.32 1.054-2.32 2.519s1.016 2.518 2.32 2.518c.685 0 1.172-.252 1.46-.71v.596h1.016V44.99zm-3.758 0c0-.847.53-1.557 1.415-1.557.818 0 1.415.664 1.415 1.557 0 .847-.575 1.557-1.415 1.557-.862-.046-1.415-.71-1.415-1.557zM18 44.99v-2.404h-1.017v.595c-.332-.458-.818-.71-1.46-.71-1.303 0-2.32 1.054-2.32 2.519s1.017 2.518 2.32 2.518c.686 0 1.172-.252 1.46-.71v.596H18V44.99zm-3.78 0c0-.847.53-1.557 1.414-1.557.818 0 1.415.664 1.415 1.557 0 .847-.575 1.557-1.415 1.557-.884-.046-1.414-.71-1.414-1.557z" fill="#fff"/><path d="M37.915 5.935H22.618V34.39h15.297V5.935z" fill="#FF5F00"/><path d="M23.59 20.151c0-5.769 2.631-10.897 6.654-14.216-2.962-2.404-6.697-3.87-10.787-3.87-9.66 0-17.463 8.082-17.463 18.086 0 10.004 7.803 18.086 17.463 18.086 4.068 0 7.803-1.466 10.765-3.87-4.023-3.25-6.631-8.424-6.631-14.216z" fill="#EB001B"/><path d="M58.516 20.151c0 10.004-7.803 18.086-17.462 18.086-4.068 0-7.804-1.466-10.766-3.87 4.068-3.319 6.654-8.447 6.654-14.216s-2.63-10.897-6.654-14.216c2.962-2.404 6.698-3.87 10.765-3.87 9.66 0 17.463 8.15 17.463 18.086z" fill="#F79E1B"/><path d="M107.707 34.38H92.426V5.93h15.281v28.45z" fill="#6C6BBD"/><path d="M93.397 20.156c0-5.763 2.606-10.91 6.669-14.225-2.98-2.425-6.713-3.865-10.798-3.865-9.65 0-17.467 8.096-17.467 18.09s7.817 18.09 17.467 18.09c4.085 0 7.817-1.44 10.798-3.865-4.063-3.316-6.669-8.44-6.669-14.225z" fill="#D32011"/><path d="M128.332 20.156c0 9.994-7.817 18.09-17.467 18.09-4.086 0-7.817-1.44-10.799-3.865 4.064-3.316 6.67-8.462 6.67-14.225s-2.606-10.91-6.67-14.225c2.982-2.425 6.713-3.865 10.799-3.865 9.65 0 17.467 8.096 17.467 18.09z" fill="#0099DF"/><path d="M112.874 42.43c.199 0 .486.047.729.138l-.309.984a1.584 1.584 0 00-.641-.115c-.662 0-.993.435-.993 1.235v2.676h-.993v-4.803h.993v.595c.265-.435.64-.71 1.214-.71zm-3.731 1.076h-1.657v2.172c0 .48.155.8.663.8.265 0 .596-.09.883-.273l.287.891c-.309.229-.817.366-1.258.366-1.193 0-1.613-.663-1.613-1.784v-2.195h-.949v-.938h.949v-1.464h1.016v1.464h1.656v.96h.023zm-12.919 1.029c.11-.686.508-1.166 1.237-1.166.64 0 1.06.411 1.17 1.166h-2.407zm3.467.412c0-1.487-.905-2.516-2.208-2.516-1.37 0-2.319 1.029-2.319 2.516 0 1.532.994 2.515 2.385 2.515.707 0 1.347-.183 1.9-.663l-.487-.777c-.397.32-.883.503-1.347.503-.64 0-1.236-.32-1.39-1.167h3.444c.022-.137.022-.274.022-.411zm4.439-1.167a2.929 2.929 0 00-1.435-.412c-.553 0-.884.206-.884.572 0 .32.353.412.795.48l.486.07c1.016.16 1.612.594 1.612 1.44 0 .915-.773 1.578-2.12 1.578-.751 0-1.458-.206-2.009-.617l.485-.824c.331.275.839.503 1.546.503.684 0 1.06-.205 1.06-.594 0-.275-.265-.412-.817-.503l-.486-.069c-1.037-.16-1.612-.64-1.612-1.418 0-.96.751-1.532 1.921-1.532.729 0 1.414.16 1.9.503l-.442.823zm12.432-.366a1.61 1.61 0 00-.574.115 1.316 1.316 0 00-.464.32 1.368 1.368 0 00-.309.48 1.807 1.807 0 00-.111.618c0 .228.045.434.111.617.067.183.176.343.309.48.133.138.287.252.464.32.176.07.376.115.574.115.199 0 .398-.046.575-.114.176-.069.331-.184.463-.32a1.37 1.37 0 00.309-.48 1.807 1.807 0 000-1.236 1.354 1.354 0 00-.309-.48 1.312 1.312 0 00-.463-.32 1.44 1.44 0 00-.575-.115zm0-.983c.353 0 .684.069.993.206.31.137.575.297.796.526.221.229.397.503.53.8.132.32.198.64.198 1.006s-.066.71-.198 1.007a2.781 2.781 0 01-.53.8 2.127 2.127 0 01-.796.526c-.309.138-.64.183-.993.183s-.685-.068-.994-.183c-.309-.137-.573-.297-.795-.526a2.778 2.778 0 01-.529-.8 2.542 2.542 0 01-.199-1.007c0-.365.066-.709.199-1.006a2.78 2.78 0 01.529-.8 2.14 2.14 0 01.795-.526c.309-.16.641-.206.994-.206zm-26.234 2.516c0-.847.53-1.533 1.413-1.533.84 0 1.391.664 1.391 1.533 0 .869-.574 1.532-1.39 1.532-.862 0-1.414-.686-1.414-1.532zm3.776 0v-2.402h-1.016v.595c-.33-.435-.795-.71-1.457-.71-1.303 0-2.319 1.053-2.319 2.517 0 1.463 1.016 2.515 2.319 2.515.662 0 1.148-.274 1.457-.709v.595h1.016v-2.401zm-5.697 2.401v-3.019c0-1.143-.707-1.898-1.833-1.898-.596 0-1.215.183-1.634.846-.31-.526-.817-.846-1.524-.846-.486 0-.971.16-1.369.709v-.595h-1.016v4.803h1.016v-2.653c0-.823.442-1.28 1.126-1.28.663 0 1.016.457 1.016 1.257v2.676h1.016v-2.653c0-.823.464-1.28 1.126-1.28.685 0 1.016.457 1.016 1.257v2.676h1.06z" fill="#fff"/><path fill-rule="evenodd" clip-rule="evenodd" d="M113.908 74.13v8.493h4.555V77.59h5.164c2.173-.017 4.018-1.455 4.714-3.46h-14.433zm-.609-6.999c.266 3.472 3.437 6.213 7.31 6.213h7.922a5.48 5.48 0 00.089-.983c0-2.876-2.24-5.209-5.011-5.23h-10.31zm-6.742 6.129l.003-.007h.001a.272.272 0 01.238-.145c.149 0 .27.122.274.275v9.161h4.556V67.131h-4.556c-.578.02-1.23.46-1.473.998l-3.625 8.052a.298.298 0 01-.042.092l-.001.002a.302.302 0 01-.25.135.31.31 0 01-.304-.314V67.13h-4.556v15.413h4.556v-.001c.572-.031 1.209-.466 1.448-.997l3.721-8.264a.172.172 0 01.01-.021zm-17.012.264l-2.663 9.02h-3.277L80.94 73.52a.303.303 0 00-.295-.254.305.305 0 00-.3.314v8.965H75.79V67.131h5.075c.838 0 1.716.674 1.961 1.504l2.218 7.51c.11.374.289.374.399 0l2.217-7.51c.245-.83 1.124-1.504 1.962-1.504h5.074v15.413h-4.555v-8.967a.305.305 0 00-.3-.311.303.303 0 00-.296.26z" fill="#fff"/><path d="M26.03 83.388h-4.494l2.81-17.996h4.493l-2.81 17.996zm16.286-17.556c-.886-.364-2.291-.766-4.03-.766-4.436 0-7.56 2.45-7.58 5.953-.037 2.585 2.237 4.02 3.938 4.882 1.738.881 2.329 1.456 2.329 2.24-.018 1.206-1.405 1.762-2.698 1.762-1.794 0-2.755-.286-4.216-.957l-.591-.288-.63 4.04c1.055.497 2.996.939 5.012.958 4.714 0 7.783-2.413 7.82-6.146.017-2.049-1.183-3.618-3.772-4.9-1.571-.824-2.534-1.38-2.534-2.222.019-.766.814-1.55 2.588-1.55 1.46-.039 2.534.325 3.347.689l.406.19.611-3.885zm5.972 11.18c.37-1.034 1.794-5.035 1.794-5.035-.019.039.37-1.053.591-1.723l.314 1.551s.85 4.308 1.036 5.207h-3.735zm5.546-11.62H50.36c-1.072 0-1.886.325-2.349 1.493l-6.673 16.502h4.714l.943-2.7h5.769c.129.633.536 2.7.536 2.7h4.16l-3.625-17.995zm-36.05 0l-4.4 12.271-.481-2.489c-.814-2.871-3.365-5.991-6.212-7.543l4.03 15.737h4.751l7.063-17.976h-4.751z" fill="#fff"/><path d="M9.297 65.392H2.068l-.074.364c5.64 1.493 9.374 5.093 10.908 9.42l-1.571-8.271c-.26-1.15-1.054-1.475-2.034-1.513z" fill="#fff"/></svg>