<svg width="119" height="29" fill="none" xmlns="http://www.w3.org/2000/svg"><path d="M59.64 15.856c2.387 0 4.333 1.815 4.333 4.316 0 2.485-1.946 4.317-4.333 4.317-2.387 0-4.333-1.832-4.333-4.317 0-2.502 1.946-4.316 4.333-4.316zm0 6.932c1.308 0 2.437-1.078 2.435-2.616 0-1.553-1.127-2.616-2.435-2.616s-2.437 1.063-2.437 2.616c0 1.537 1.13 2.616 2.437 2.616zm-9.45-6.932c2.387 0 4.332 1.815 4.333 4.316 0 2.485-1.946 4.317-4.333 4.317-2.387 0-4.333-1.832-4.333-4.317 0-2.502 1.946-4.316 4.333-4.316zm0 6.932c1.308 0 2.435-1.078 2.435-2.616 0-1.553-1.127-2.616-2.435-2.616s-2.437 1.063-2.437 2.616c0 1.537 1.129 2.616 2.437 2.616zm-11.244-5.607h-.001 6.165c.066.327.098.72.098 1.144 0 1.374-.376 3.075-1.586 4.285-1.177 1.226-2.68 1.88-4.675 1.88-3.695 0-6.802-3.009-6.802-6.704 0-3.696 3.107-6.703 6.802-6.703 2.042 0 3.498.802 4.593 1.848l-1.291 1.291c-.785-.737-1.848-1.309-3.303-1.309-2.697 0-4.806 2.176-4.806 4.873s2.108 4.872 4.806 4.872c1.75 0 2.748-.704 3.384-1.34.524-.523.867-1.276.998-2.305h-4.382V17.18zm45.98 1.423l.195.49-5.771 2.387c.44.866 1.126 1.308 2.092 1.308.965 0 1.635-.473 2.125-1.192l1.472.98c-.474.704-1.617 1.914-3.596 1.914-2.452 0-4.283-1.898-4.283-4.317 0-2.566 1.847-4.316 4.07-4.316 2.24 0 3.336 1.782 3.696 2.746zm-5.885 1.438L82.9 18.44c-.214-.54-.85-.916-1.603-.916-.965 0-2.306.85-2.256 2.518zm-4.693 4.186V11.54h1.898v12.688h-1.898zm-3.106-7.406h-.001v-.702h1.798v7.75c0 3.188-1.88 4.496-4.104 4.496-2.092 0-3.35-1.406-3.825-2.552l1.651-.685c.295.703 1.015 1.537 2.175 1.537 1.423 0 2.306-.884 2.306-2.535v-.621h-.066c-.424.523-1.242.98-2.272.98-2.157 0-4.136-1.88-4.136-4.3 0-2.434 1.978-4.332 4.136-4.332 1.03 0 1.846.456 2.272.964h.066zm-2.175 5.966c1.291 0 2.306-1.095 2.306-2.6 0-1.522-1.015-2.633-2.306-2.633-1.308 0-2.403 1.111-2.403 2.633 0 1.504 1.095 2.6 2.403 2.6zM93.81 11.54c2.099 0 4.162 1.52 4.162 3.94s-2.063 3.94-4.162 3.94h-2.644v4.807h-1.893V11.54h4.537zm.049 6.115c1.416 0 2.22-1.19 2.22-2.173 0-1.003-.804-2.175-2.22-2.175h-2.693v4.348h2.693zm11.703-1.821c2.17 0 3.851 1.256 3.853 3.509v4.864h-1.828v-.979h-.066c-.44.668-1.142 1.24-2.416 1.24-1.664 0-3.149-1.094-3.149-2.791 0-1.86 1.844-2.857 3.655-2.857.899 0 1.633.295 1.976.49v-.131c-.016-1.045-1.012-1.631-1.991-1.631-.702 0-1.372.228-1.73.93l-1.682-.702c.587-1.338 2.006-1.942 3.378-1.942zm-.229 6.952a2.298 2.298 0 002.253-2.008c-.506-.245-.898-.424-1.731-.424-.93 0-2.007.376-2.007 1.355 0 .767.865 1.077 1.485 1.077zm10.739-6.675h2.105l-5.207 11.964h-1.975l1.926-4.277-3.378-7.687h2.04l2.253 5.5h.066l2.17-5.5zm-17.055 8.117V11.54h1.893v12.688h-1.893zM33.233 8.267h-.749v-2.04h.595c.527-.454.785-1.23.774-2.33V.888h4.065v5.34h.68v2.041h-.747V6.977h-4.619v1.291h.001v-.001zm1.404-4.37c.012.962-.181 1.74-.578 2.33h3.078V1.633h-2.5v2.263zm10.064 2.292c-.6.615-1.343.923-2.233.923-.89 0-1.635-.308-2.233-.924-.599-.614-.898-1.366-.898-2.256 0-.891.298-1.643.898-2.257.597-.616 1.342-.924 2.233-.924.884 0 1.627.31 2.228.928.601.616.901 1.368.901 2.254.002.889-.298 1.641-.896 2.255v.001zm-3.886-.51a2.235 2.235 0 001.654.684 2.233 2.233 0 001.654-.684c.45-.457.677-1.04.677-1.75 0-.708-.227-1.29-.677-1.746a2.235 2.235 0 00-1.654-.684c-.652 0-1.202.227-1.654.684-.451.456-.676 1.04-.676 1.748s.225 1.291.676 1.748zm8.721 1.432c-.895 0-1.646-.304-2.253-.91-.608-.606-.91-1.364-.91-2.27 0-.908.301-1.665.91-2.27.606-.607 1.357-.911 2.253-.911.919 0 1.665.33 2.237.994l-.545.527c-.413-.517-.978-.773-1.692-.773-.664 0-1.224.224-1.68.67-.456.45-.683 1.034-.683 1.76s.227 1.315.684 1.76c.455.45 1.016.674 1.68.674.731 0 1.355-.295 1.87-.884l.545.545a2.96 2.96 0 01-1.047.794 3.2 3.2 0 01-1.369.294zm5.58-.135h-.783V1.635h-1.701v-.75h4.184v.749h-1.7v5.341zm7.073-6.09l-2.305 5.137c-.318.725-.79 1.088-1.419 1.088-.187 0-.388-.044-.605-.137l.205-.722c.13.073.266.11.408.11.181 0 .322-.034.42-.107.1-.071.191-.2.276-.387l.221-.485-2.049-4.5h.919l1.504 3.498h.033L61.268.885h.92zm.885 6.09V.886h4.406v6.088h-.784v-5.34h-2.84v5.34h-.782zm5.8 0V.886h.783v2.61H72.7V.887h.784v6.088H72.7V4.229h-3.043v2.748h-.782zm10.983-.787c-.599.615-1.343.923-2.232.923-.89 0-1.635-.308-2.23-.924-.6-.614-.898-1.366-.898-2.256 0-.891.298-1.643.897-2.257.597-.616 1.341-.924 2.231-.924.884 0 1.627.31 2.229.928.6.616.9 1.368.9 2.254 0 .889-.299 1.641-.897 2.255v.001zm-3.886-.51a2.235 2.235 0 001.654.684 2.233 2.233 0 001.654-.684c.451-.457.677-1.04.677-1.75 0-.708-.227-1.29-.677-1.746a2.235 2.235 0 00-1.654-.684c-.652 0-1.203.227-1.654.684-.451.456-.676 1.04-.676 1.748s.226 1.291.676 1.748zm7.982 1.296V.888h2.201c.477 0 .89.157 1.238.472.349.316.523.71.523 1.187 0 .29-.075.544-.226.765-.15.221-.357.395-.6.503v.033c.3.101.546.278.74.527.191.25.289.539.289.868 0 .498-.184.913-.549 1.24a1.874 1.874 0 01-1.297.495h-2.319v-.002zm.782-3.478h1.422c.296 0 .532-.096.71-.293a.935.935 0 00.267-.643.929.929 0 00-.26-.638.874.874 0 00-.683-.288h-1.456v1.862zm0 2.73h1.575a.935.935 0 00.731-.315 1.01 1.01 0 00.28-.69.985.985 0 00-.289-.684.986.986 0 00-.757-.31h-1.54v2z" fill="#fff"/><path d="M1.084 1.43c-.295.313-.47.797-.47 1.426v22.443c0 .628.174 1.113.47 1.426l.076.072 12.573-12.573v-.296L1.16 1.355l-.076.075z" fill="url(#paint0_linear)"/><path d="M17.92 18.42l-4.189-4.193v-.297l4.191-4.191.095.054 4.964 2.821c1.418.805 1.418 2.125 0 2.93l-4.964 2.823-.096.053z" fill="url(#paint1_linear)"/><path d="M18.017 18.366l-4.287-4.287L1.082 26.726c.468.495 1.239.555 2.109.061l14.826-8.421z" fill="url(#paint2_linear)"/><path d="M18.017 9.793L3.19 1.369C2.32.875 1.55.935 1.082 1.43l12.647 12.647 4.288-4.284z" fill="url(#paint3_linear)"/><path opacity=".2" d="M17.922 18.272l-14.73 8.367c-.824.468-1.561.437-2.033.011l-.076.076.076.073c.473.425 1.209.457 2.033-.011l14.825-8.424-.095-.094v.002z" fill="#4D9221"/><path opacity=".12" d="M1.084 26.58c-.295-.311-.47-.796-.47-1.426v.149c0 .627.174 1.113.47 1.425l.076-.077-.076-.071zm21.898-11.183l-5.06 2.874.095.095 4.964-2.822c.71-.403 1.065-.935 1.065-1.465-.06.48-.42.953-1.064 1.318z" fill="#4D9221"/><path opacity=".25" d="M3.193 1.519l19.79 11.244c.643.365 1.003.836 1.064 1.316 0-.53-.355-1.062-1.064-1.465L3.193 1.37C1.775.565.613 1.234.613 2.857v.149c0-1.624 1.16-2.293 2.58-1.487z" fill="#fff"/><defs><linearGradient id="paint0_linear" x1="8.62" y1="2.62" x2="-2.16" y2="13.4" gradientUnits="userSpaceOnUse"><stop stop-color="#00A0FF"/><stop offset=".007" stop-color="#00A1FF"/><stop offset=".26" stop-color="#00BEFF"/><stop offset=".512" stop-color="#00D2FF"/><stop offset=".76" stop-color="#00DFFF"/><stop offset="1" stop-color="#00E3FF"/></linearGradient><linearGradient id="paint1_linear" x1="24.829" y1="14.08" x2=".273" y2="14.08" gradientUnits="userSpaceOnUse"><stop stop-color="#FFE000"/><stop offset=".409" stop-color="#FFBD00"/><stop offset=".775" stop-color="orange"/><stop offset="1" stop-color="#FF9C00"/></linearGradient><linearGradient id="paint2_linear" x1="15.688" y1="18.112" x2="-2.718" y2="36.517" gradientUnits="userSpaceOnUse"><stop stop-color="#FF3A44"/><stop offset="1" stop-color="#C31162"/></linearGradient><linearGradient id="paint3_linear" x1="-2.102" y1="-.519" x2="6.117" y2="7.7" gradientUnits="userSpaceOnUse"><stop stop-color="#32A071"/><stop offset=".069" stop-color="#2DA771"/><stop offset=".476" stop-color="#15CF74"/><stop offset=".801" stop-color="#06E775"/><stop offset="1" stop-color="#00F076"/></linearGradient></defs></svg>