<svg width="119" height="29" viewBox="0 0 119 29" fill="none" xmlns="http://www.w3.org/2000/svg">
<path d="M59.64 15.8558C62.027 15.8558 63.9729 17.6708 63.9729 20.1722C63.9729 22.6571 62.027 24.4886 59.64 24.4886C57.253 24.4886 55.3071 22.6571 55.3071 20.1722C55.3071 17.6697 57.253 15.8558 59.64 15.8558ZM59.64 22.788C60.9479 22.788 62.0765 21.71 62.0754 20.1722C62.0754 18.619 60.9479 17.5564 59.64 17.5564C58.3321 17.5564 57.2035 18.619 57.2035 20.1722C57.2035 21.7089 58.3321 22.788 59.64 22.788ZM50.1899 15.8558C52.5769 15.8558 54.5217 17.6708 54.5228 20.1722C54.5228 22.6571 52.5769 24.4886 50.1899 24.4886C47.8029 24.4886 45.857 22.6571 45.857 20.1722C45.857 17.6697 47.8029 15.8558 50.1899 15.8558ZM50.1899 22.788C51.4978 22.788 52.6253 21.71 52.6253 20.1722C52.6253 18.619 51.4978 17.5564 50.1899 17.5564C48.882 17.5564 47.7534 18.619 47.7534 20.1722C47.7534 21.7089 48.882 22.788 50.1899 22.788ZM38.9457 17.1813H38.9446H45.1101C45.1761 17.508 45.208 17.9007 45.208 18.3253C45.208 19.6992 44.8318 21.3998 43.6218 22.6098C42.4448 23.8363 40.9411 24.4897 38.9468 24.4897C35.2519 24.4897 32.1455 21.4812 32.1455 17.7863C32.1455 14.0903 35.2519 11.0829 38.9468 11.0829C40.9895 11.0829 42.4448 11.8848 43.5404 12.9309L42.249 14.2223C41.4636 13.4853 40.401 12.9133 38.9457 12.9133C36.2485 12.9133 34.1398 15.0891 34.1398 17.7863C34.1398 20.4835 36.2485 22.6582 38.9457 22.6582C40.6958 22.6582 41.6935 21.9542 42.3304 21.3184C42.854 20.7948 43.1972 20.0424 43.3281 19.0128H38.9457V17.1813ZM84.9257 18.6036L85.1215 19.0942L79.3498 21.4812C79.7909 22.3469 80.4762 22.7891 81.442 22.7891C82.4067 22.7891 83.0766 22.3161 83.5672 21.5967L85.039 22.5779C84.5649 23.2808 83.422 24.4908 81.4431 24.4908C78.9912 24.4908 77.1597 22.5933 77.1597 20.1744C77.1597 17.6081 79.0066 15.858 81.2308 15.858C83.4704 15.858 84.566 17.64 84.9257 18.6036ZM79.0407 20.0424L82.8995 18.4397C82.6861 17.9007 82.0492 17.5245 81.2968 17.5245C80.3321 17.5245 78.9912 18.3737 79.0407 20.0424ZM74.3481 24.2279V11.5405H76.2456V24.2279H74.3481ZM71.2417 16.8216H71.2406V16.1198H73.0391V23.8704C73.0391 27.0582 71.1592 28.3661 68.935 28.3661C66.8428 28.3661 65.5844 26.9603 65.1103 25.8141L66.7614 25.1288C67.0562 25.8317 67.7756 26.6655 68.9361 26.6655C70.3595 26.6655 71.2417 25.7822 71.2417 24.1311V23.5096H71.1757C70.7522 24.0332 69.9338 24.4908 68.9042 24.4908C66.7471 24.4908 64.7682 22.6098 64.7682 20.1898C64.7682 17.7555 66.746 15.858 68.9042 15.858C69.9338 15.858 70.75 16.3145 71.1757 16.8216H71.2417ZM69.067 22.788C70.3584 22.788 71.3726 21.6935 71.3726 20.1876C71.3726 18.6663 70.3584 17.5553 69.067 17.5553C67.7591 17.5553 66.6635 18.6663 66.6635 20.1876C66.6635 21.6924 67.7591 22.788 69.067 22.788ZM93.81 11.5405C95.909 11.5405 97.972 13.0607 97.972 15.4807C97.972 17.9007 95.909 19.4209 93.81 19.4209H91.166V24.2268H89.273V11.5405H93.81ZM93.859 17.6554C95.275 17.6554 96.079 16.4641 96.079 15.4818C96.079 14.4786 95.275 13.3071 93.859 13.3071H91.166V17.6554H93.859ZM105.562 15.8338C107.732 15.8338 109.413 17.09 109.415 19.3428V24.207H107.587V23.228H107.521C107.081 23.8957 106.379 24.4677 105.105 24.4677C103.441 24.4677 101.956 23.3743 101.956 21.677C101.956 19.8169 103.8 18.8203 105.611 18.8203C106.51 18.8203 107.244 19.1151 107.587 19.3109V19.1789C107.571 18.1339 106.575 17.5476 105.596 17.5476C104.894 17.5476 104.224 17.7764 103.866 18.4782L102.184 17.7764C102.771 16.4377 104.19 15.8338 105.562 15.8338ZM105.333 22.7858C106.426 22.7858 107.437 21.9531 107.586 20.7783C107.08 20.533 106.688 20.3537 105.855 20.3537C104.925 20.3537 103.848 20.7299 103.848 21.7089C103.848 22.4756 104.713 22.7858 105.333 22.7858ZM116.072 16.111H118.177L112.97 28.0746H110.995L112.921 23.7978L109.543 16.111H111.583L113.836 21.611H113.902L116.072 16.111ZM99.017 24.2279V11.5405H100.91V24.2279H99.017ZM33.2334 8.2669H32.4843V6.2275H33.0794C33.6063 5.7732 33.8637 4.9977 33.8527 3.8977V0.887012H37.9183V6.2275H38.5981V8.268H37.8512V6.9766H33.2323V8.268H33.2334V8.2669ZM34.637 3.8966C34.6491 4.8591 34.4555 5.6368 34.0595 6.2264H37.1373V1.63391H34.637V3.8966ZM44.7009 6.189C44.1014 6.8039 43.3578 7.1119 42.4679 7.1119C41.578 7.1119 40.8333 6.8039 40.2349 6.1879C39.6365 5.5741 39.3373 4.8217 39.3373 3.9318C39.3373 3.0408 39.6354 2.2895 40.2349 1.67461C40.8322 1.05861 41.5769 0.750612 42.4679 0.750612C43.3523 0.750612 44.0948 1.06081 44.6965 1.67901C45.2971 2.295 45.5974 3.0474 45.5974 3.9329C45.5985 4.8217 45.2993 5.5741 44.7009 6.1879V6.189ZM40.8146 5.6786C41.2656 6.1351 41.8167 6.3628 42.469 6.3628C43.0918 6.3755 43.6915 6.1274 44.1234 5.6786C44.5733 5.2221 44.7999 4.6391 44.7999 3.9296C44.7999 3.2212 44.5733 2.6393 44.1234 2.1828C43.6913 1.73421 43.0917 1.48622 42.469 1.49861C41.8167 1.49861 41.2667 1.72631 40.8146 2.1828C40.3636 2.6393 40.1392 3.2223 40.1392 3.9307C40.1392 4.6391 40.3636 5.2221 40.8146 5.6786ZM49.5365 7.1108C48.6411 7.1108 47.8898 6.8072 47.2826 6.2011C46.6754 5.595 46.3729 4.8371 46.3729 3.9307C46.3729 3.0232 46.6743 2.2664 47.2826 1.66031C47.8887 1.05421 48.64 0.749512 49.5365 0.749512C50.455 0.749512 51.2008 1.07951 51.7728 1.74391L51.2283 2.2708C50.8147 1.75381 50.2504 1.49751 49.5365 1.49751C48.8721 1.49751 48.3122 1.72191 47.8568 2.1685C47.4003 2.6173 47.1726 3.2025 47.1726 3.9285C47.1726 4.6545 47.4003 5.243 47.8568 5.6885C48.3122 6.1373 48.8732 6.3617 49.5365 6.3617C50.268 6.3617 50.8917 6.0669 51.4076 5.4784L51.9521 6.0229C51.6669 6.3627 51.3091 6.6342 50.9049 6.8171C50.476 7.0148 50.0087 7.115 49.5365 7.1108ZM55.1157 6.9755H54.3325V1.63501H52.6319V0.885912H56.8163V1.63391H55.1157V6.9755ZM62.1887 0.885912L59.8842 6.0229C59.5663 6.7478 59.0933 7.1108 58.4652 7.1108C58.2782 7.1108 58.0769 7.0668 57.8602 6.9744L58.0648 6.2517C58.1957 6.3254 58.331 6.3617 58.4729 6.3617C58.6544 6.3617 58.7952 6.3276 58.8931 6.255C58.9921 6.1835 59.0845 6.0548 59.1692 5.8678L59.3903 5.3827L57.341 0.883712H58.2595L59.7643 4.3806H59.7973L61.268 0.884812H62.1887V0.885912ZM63.0742 6.9755V0.887012H67.4797V6.9755H66.6965V1.63501H63.8563V6.9755H63.0742ZM68.8745 6.9755V0.887012H69.6566V3.4973H72.7003V0.887012H73.4835V6.9755H72.7003V4.2277H69.6566V6.9755H68.8745ZM79.8569 6.189C79.2585 6.8039 78.5138 7.1119 77.625 7.1119C76.7351 7.1119 75.9904 6.8039 75.3942 6.1879C74.7947 5.5741 74.4966 4.8217 74.4966 3.9318C74.4966 3.0408 74.7947 2.2895 75.3942 1.67461C75.9915 1.05861 76.7351 0.750612 77.625 0.750612C78.5094 0.750612 79.2519 1.06081 79.8536 1.67901C80.4542 2.295 80.7545 3.0474 80.7545 3.9329C80.7545 4.8217 80.4553 5.5741 79.8569 6.1879V6.189ZM75.9706 5.6786C76.4216 6.1351 76.9727 6.3628 77.625 6.3628C78.2478 6.3755 78.8475 6.1274 79.2794 5.6786C79.7304 5.2221 79.9559 4.6391 79.9559 3.9296C79.9559 3.2212 79.7293 2.6393 79.2794 2.1828C78.8473 1.73421 78.2477 1.48622 77.625 1.49861C76.9727 1.49861 76.4216 1.72631 75.9706 2.1828C75.5196 2.6393 75.2952 3.2223 75.2952 3.9307C75.2952 4.6391 75.5207 5.2221 75.9706 5.6786ZM83.9533 6.9755V0.887012H86.1544C86.6307 0.887012 87.0432 1.04431 87.3919 1.35891C87.7406 1.67461 87.9155 2.0695 87.9155 2.5458C87.9155 2.8351 87.8396 3.0903 87.6889 3.3114C87.5398 3.532 87.3317 3.7062 87.0883 3.8141V3.8471C87.3886 3.9483 87.635 4.1254 87.8286 4.374C88.02 4.6237 88.1179 4.913 88.1179 5.2419C88.1179 5.7402 87.9342 6.1549 87.569 6.4827C87.2156 6.8069 86.7516 6.9836 86.2721 6.9766H83.9533V6.9755ZM84.7354 3.4973H86.1566C86.4525 3.4973 86.689 3.4005 86.8672 3.2036C87.0356 3.0318 87.1314 2.8018 87.1345 2.5612C87.1329 2.3231 87.04 2.0948 86.8749 1.92321C86.701 1.7303 86.4503 1.6247 86.1907 1.63501H84.7354V3.4973ZM84.7354 6.2275H86.3095C86.5882 6.2366 86.8565 6.1209 87.041 5.9118C87.2188 5.7259 87.319 5.4793 87.3215 5.2221C87.318 4.965 87.2142 4.7195 87.0322 4.5379C86.8368 4.3298 86.5607 4.2166 86.2754 4.2277H84.7354V6.2275Z" fill="white"/>
<path d="M1.0841 1.43027C0.789296 1.74267 0.613297 2.2267 0.613297 2.8559V25.2992C0.613297 25.9273 0.788196 26.4124 1.0841 26.7248L1.16 26.7974L13.733 14.2244V13.9285L1.16 1.35547L1.0841 1.43027Z" fill="url(#paint0_linear)"/>
<path d="M17.9209 18.42L13.731 14.2268V13.9298L17.922 9.73877L18.0166 9.79267L22.9809 12.6142C24.3988 13.4194 24.3988 14.7394 22.9809 15.5446L18.0166 18.3672L17.9209 18.42Z" fill="url(#paint1_linear)"/>
<path d="M18.0165 18.3658L13.7298 14.0791L1.082 26.7258C1.5495 27.2208 2.3206 27.2813 3.1907 26.7874L18.0165 18.3658Z" fill="url(#paint2_linear)"/>
<path d="M18.0165 9.7926L3.1907 1.36879C2.3206 0.874891 1.5495 0.935391 1.082 1.43039L13.7287 14.0771L18.0165 9.7926Z" fill="url(#paint3_linear)"/>
<path opacity="0.2" d="M17.9218 18.2716L3.19171 26.6393C2.36781 27.1068 1.63081 27.076 1.15891 26.6503L1.08301 26.7262L1.15891 26.7988C1.63191 27.2245 2.36781 27.2564 3.19171 26.7878L18.0175 18.364L17.9218 18.2705V18.2716Z" fill="#4D9221"/>
<path opacity="0.12" d="M1.0841 26.5799C0.789296 26.2686 0.613297 25.7835 0.613297 25.1543V25.3028C0.613297 25.9298 0.788196 26.416 1.0841 26.7284L1.16 26.6514L1.0841 26.5799Z" fill="#4D9221"/>
<path opacity="0.12" d="M22.9819 15.3969L17.9219 18.2712L18.0165 18.3658L22.9808 15.5443C23.6903 15.1406 24.0456 14.6093 24.0456 14.0791C23.9851 14.5598 23.6254 15.0317 22.9819 15.3969Z" fill="#4D9221"/>
<path opacity="0.25" d="M3.1928 1.51863L22.9829 12.7628C23.6264 13.128 23.9861 13.5988 24.0466 14.0795C24.0466 13.5482 23.6924 13.0169 22.9829 12.6143L3.1928 1.37013C1.7749 0.564927 0.613297 1.23373 0.613297 2.8573V3.0058C0.613297 1.38223 1.7738 0.713427 3.1928 1.51863Z" fill="white"/>
<defs>
<linearGradient id="paint0_linear" x1="8.6204" y1="2.6199" x2="-2.15966" y2="13.3998" gradientUnits="userSpaceOnUse">
<stop stop-color="#00A0FF"/>
<stop offset="0.0066" stop-color="#00A1FF"/>
<stop offset="0.2601" stop-color="#00BEFF"/>
<stop offset="0.5122" stop-color="#00D2FF"/>
<stop offset="0.7604" stop-color="#00DFFF"/>
<stop offset="1" stop-color="#00E3FF"/>
</linearGradient>
<linearGradient id="paint1_linear" x1="24.8288" y1="14.0799" x2="0.273404" y2="14.0799" gradientUnits="userSpaceOnUse">
<stop stop-color="#FFE000"/>
<stop offset="0.4087" stop-color="#FFBD00"/>
<stop offset="0.7754" stop-color="#FFA500"/>
<stop offset="1" stop-color="#FF9C00"/>
</linearGradient>
<linearGradient id="paint2_linear" x1="15.6877" y1="18.1121" x2="-2.71755" y2="36.5172" gradientUnits="userSpaceOnUse">
<stop stop-color="#FF3A44"/>
<stop offset="1" stop-color="#C31162"/>
</linearGradient>
<linearGradient id="paint3_linear" x1="-2.10182" y1="-0.518919" x2="6.1168" y2="7.6998" gradientUnits="userSpaceOnUse">
<stop stop-color="#32A071"/>
<stop offset="0.0685" stop-color="#2DA771"/>
<stop offset="0.4762" stop-color="#15CF74"/>
<stop offset="0.8009" stop-color="#06E775"/>
<stop offset="1" stop-color="#00F076"/>
</linearGradient>
</defs>
</svg>
