<svg width="60" height="38" viewBox="0 0 60 38" fill="none" xmlns="http://www.w3.org/2000/svg">
<path d="M14.9654 12.9883C16.0681 12.9883 17.0567 13.3633 17.8298 14.0903L19.9592 11.9983C18.6664 10.8093 16.9806 10.0703 14.9654 10.0703C12.0502 10.0703 9.5279 11.7233 8.2985 14.1273C7.7915 15.1293 7.5 16.2443 7.5 17.4333C7.5 18.6233 7.7915 19.7503 8.2985 20.7393L8.3031 20.7363C9.5342 23.1603 12.0538 24.7963 14.9654 24.7963C16.9806 24.7963 18.679 24.1453 19.9084 23.0183C21.3153 21.7413 22.1265 19.8503 22.1265 17.6093C22.1265 17.0953 22.0758 16.5943 21.9998 16.1063H14.9654V18.9363H18.9959C18.8184 19.8753 18.2988 20.6523 17.5003 21.1773C16.8285 21.6283 15.9667 21.8793 14.9654 21.8793C13.0135 21.8793 11.3658 20.5893 10.7827 18.8363H10.7785C10.6292 18.3893 10.5546 17.9293 10.5546 17.4333C10.5546 16.9453 10.6433 16.4693 10.7827 16.0183V15.9823C11.389 14.2603 13.0397 12.9883 14.9654 12.9883Z" fill="white"/>
<path fill-rule="evenodd" clip-rule="evenodd" d="M28.8712 23.9106V18.7256H31.6219C32.7619 18.7256 33.7129 18.3626 34.4859 17.6366C35.2969 16.9106 35.6899 16.0086 35.6899 14.9186C35.6899 13.8546 35.2849 12.9526 34.4859 12.2146C33.6999 11.4756 32.7499 11.0996 31.6219 11.0996H27.1982V23.9106H28.8712ZM28.8712 17.1476V12.6776H31.6599C32.3189 12.6776 32.8769 12.9026 33.3069 13.3536C33.7509 13.7916 33.9789 14.3056 33.9789 14.9066C33.9789 15.5206 33.7509 16.0456 33.3069 16.4846C32.8769 16.9226 32.3189 17.1476 31.6599 17.1476H28.8712Z" fill="white"/>
<path fill-rule="evenodd" clip-rule="evenodd" d="M39.5306 14.8574C40.7596 14.8574 41.7356 15.1824 42.4456 15.8344C43.1556 16.4854 43.5107 17.3744 43.5107 18.5134V23.9234H41.9137V22.7084H41.8376C41.1526 23.7104 40.2276 24.2114 39.0866 24.2114C38.1106 24.2114 37.2866 23.9234 36.6276 23.3474C35.9686 22.7714 35.6396 22.0574 35.6396 21.1934C35.6396 20.2924 35.9816 19.5654 36.6786 19.0274C37.3756 18.4884 38.3007 18.2254 39.4667 18.2254C40.4557 18.2254 41.2797 18.4014 41.9137 18.7644V18.3884C41.9137 17.8124 41.6846 17.3244 41.2286 16.9364C40.7726 16.5354 40.2277 16.3344 39.6187 16.3344C38.6937 16.3344 37.9457 16.7234 37.4007 17.4994L35.9306 16.5854C36.7546 15.4334 37.9456 14.8574 39.5306 14.8574ZM37.3756 21.2314C37.3756 21.6574 37.5656 22.0204 37.9336 22.3084C38.3006 22.5964 38.7316 22.7334 39.2266 22.7334C39.9236 22.7334 40.5566 22.4704 41.1016 21.9704C41.6466 21.4564 41.9257 20.8554 41.9257 20.1664C41.4067 19.7664 40.6837 19.5534 39.7457 19.5534C39.0737 19.5534 38.5036 19.7164 38.0476 20.0414C37.6036 20.3544 37.3756 20.7554 37.3756 21.2314Z" fill="white"/>
<path d="M52.6848 15.1406L47.1078 27.7756H45.3968L47.4628 23.3556L43.7998 15.1406H45.6128L48.2618 21.4516H48.2998L50.8728 15.1406H52.6848Z" fill="white"/>
<path fill-rule="evenodd" clip-rule="evenodd" d="M0 3.8C0 1.701 1.722 0 3.8462 0H56.154C58.278 0 60 1.701 60 3.8V34.2C60 36.299 58.278 38 56.154 38H3.8462C1.722 38 0 36.299 0 34.2V3.8ZM3.8462 0.760002H56.154C57.853 0.760002 59.231 2.121 59.231 3.8V34.2C59.231 35.879 57.853 37.24 56.154 37.24H3.8462C2.1468 37.24 0.769203 35.879 0.769203 34.2V3.8C0.769203 2.121 2.1468 0.760002 3.8462 0.760002Z" fill="white"/>
</svg>
