<svg width="60" height="38" fill="none" xmlns="http://www.w3.org/2000/svg"><path d="M14.965 12.988c1.103 0 2.092.375 2.865 1.102l2.13-2.092c-1.294-1.189-2.98-1.928-4.995-1.928A7.477 7.477 0 008.3 14.127a7.24 7.24 0 000 6.612l.004-.003a7.441 7.441 0 006.662 4.06c2.016 0 3.714-.65 4.943-1.778 1.407-1.277 2.218-3.168 2.218-5.409 0-.514-.05-1.015-.126-1.503h-7.035v2.83h4.03a3.382 3.382 0 01-1.495 2.241c-.672.451-1.533.702-2.535.702-1.951 0-3.6-1.29-4.182-3.043h-.005a4.365 4.365 0 01-.223-1.403c0-.488.088-.964.228-1.415v-.036c.606-1.722 2.257-2.994 4.182-2.994z" fill="#fff"/><path fill-rule="evenodd" clip-rule="evenodd" d="M28.871 23.91v-5.184h2.75c1.14 0 2.092-.363 2.865-1.09.81-.725 1.204-1.627 1.204-2.717 0-1.064-.405-1.966-1.204-2.704-.786-.74-1.736-1.115-2.864-1.115h-4.424v12.81h1.673zm0-6.762v-4.47h2.789c.659 0 1.217.225 1.647.676.444.438.672.952.672 1.553 0 .614-.228 1.139-.672 1.578-.43.438-.988.663-1.647.663h-2.79zm10.659-2.291c1.23 0 2.206.325 2.916.977.71.651 1.065 1.54 1.065 2.68v5.41h-1.597v-1.216h-.076c-.685 1.002-1.61 1.503-2.751 1.503-.976 0-1.8-.288-2.46-.864-.658-.576-.987-1.29-.987-2.154 0-.9.342-1.628 1.039-2.166.697-.539 1.622-.802 2.788-.802.989 0 1.813.176 2.447.54v-.377c0-.576-.23-1.064-.685-1.452a2.38 2.38 0 00-1.61-.602c-.925 0-1.673.39-2.218 1.165l-1.47-.914c.824-1.152 2.015-1.728 3.6-1.728zm-2.154 6.374c0 .426.19.79.558 1.077.367.288.798.425 1.293.425.697 0 1.33-.263 1.875-.763.545-.514.824-1.115.824-1.804-.52-.4-1.242-.613-2.18-.613-.672 0-1.242.163-1.698.488-.444.313-.672.714-.672 1.19z" fill="#fff"/><path d="M52.685 15.14l-5.577 12.636h-1.711l2.066-4.42L43.8 15.14h1.813l2.649 6.31h.038l2.573-6.31h1.812z" fill="#fff"/><path fill-rule="evenodd" clip-rule="evenodd" d="M0 3.8C0 1.701 1.722 0 3.846 0h52.308C58.278 0 60 1.701 60 3.8v30.4c0 2.099-1.722 3.8-3.846 3.8H3.846C1.722 38 0 36.299 0 34.2V3.8zM3.846.76h52.308c1.699 0 3.077 1.361 3.077 3.04v30.4c0 1.679-1.378 3.04-3.077 3.04H3.846c-1.7 0-3.077-1.361-3.077-3.04V3.8C.77 2.121 2.147.76 3.846.76z" fill="#fff"/></svg>