<svg width="18" height="18" viewBox="0 0 18 18" fill="none" xmlns="http://www.w3.org/2000/svg">
<path d="M17.6505 14.3129L15.655 12.9825L13.881 11.8001C13.5387 11.5723 13.0786 11.647 12.8259 11.9714L11.7282 13.3825C11.4924 13.6887 11.0683 13.7767 10.7301 13.5895C9.98533 13.1752 9.10457 12.7851 7.16122 10.8392C5.21788 8.89341 4.82529 8.01515 4.41098 7.27033C4.22378 6.9322 4.31177 6.50805 4.61798 6.27229L6.0291 5.17462C6.35348 4.92192 6.42819 4.46184 6.20041 4.11946L5.05433 2.40016L3.68758 0.350012C3.45495 0.0010554 2.98928 -0.103709 2.62964 0.111972L1.05339 1.05759C0.627405 1.30857 0.314272 1.71385 0.178852 2.1894C-0.252194 3.76097 -0.339099 7.2278 5.21693 12.7838C10.773 18.3399 14.2395 18.2527 15.811 17.8216C16.2866 17.6862 16.6919 17.3731 16.9428 16.9471L17.8885 15.3708C18.1042 15.0112 17.9994 14.5455 17.6505 14.3129Z" fill="white"/>
<path d="M10.2412 2.79304C13.1536 2.79627 15.5138 5.15643 15.517 8.06884C15.517 8.24023 15.656 8.3792 15.8274 8.3792C15.9988 8.3792 16.1377 8.24026 16.1377 8.06884C16.1342 4.8138 13.4963 2.17595 10.2413 2.17236C10.0699 2.17236 9.93091 2.3113 9.93091 2.48272C9.93087 2.65407 10.0698 2.79304 10.2412 2.79304Z" fill="white"/>
<path d="M10.2413 4.65514C12.1257 4.65735 13.6528 6.18445 13.655 8.06887C13.655 8.24026 13.7939 8.37923 13.9654 8.37923C14.1367 8.37923 14.2757 8.24029 14.2757 8.06887C14.2731 5.84179 12.4684 4.03699 10.2413 4.03442C10.0699 4.03442 9.93091 4.17336 9.93091 4.34478C9.93091 4.5162 10.0698 4.65514 10.2413 4.65514Z" fill="white"/>
<path d="M10.2412 6.51716C11.0978 6.51818 11.7919 7.2123 11.7929 8.06887C11.7929 8.24026 11.9319 8.37923 12.1033 8.37923C12.2747 8.37923 12.4136 8.24029 12.4136 8.06887C12.4123 6.86967 11.4405 5.89786 10.2413 5.89648C10.0699 5.89648 9.93091 6.03542 9.93091 6.20684C9.93087 6.37822 10.0698 6.51716 10.2412 6.51716Z" fill="white"/>
</svg>
