<svg width="18" height="18" fill="none" xmlns="http://www.w3.org/2000/svg"><path d="M17.65 14.313l-1.995-1.33-1.774-1.183a.786.786 0 00-1.055.171l-1.098 1.412a.782.782 0 01-.998.207c-.745-.415-1.625-.805-3.569-2.75-1.943-1.947-2.336-2.825-2.75-3.57a.782.782 0 01.207-.998l1.411-1.097A.786.786 0 006.2 4.119L5.054 2.4 3.688.35A.786.786 0 002.63.112l-1.577.946a1.92 1.92 0 00-.874 1.131c-.431 1.572-.518 5.039 5.038 10.595 5.556 5.556 9.023 5.469 10.594 5.038a1.93 1.93 0 001.132-.875l.945-1.576a.786.786 0 00-.238-1.058zm-7.409-11.52a5.282 5.282 0 015.276 5.276.31.31 0 00.62 0 5.903 5.903 0 00-5.896-5.897.31.31 0 000 .621z" fill="#fff"/><path d="M10.241 4.655a3.418 3.418 0 013.414 3.414.31.31 0 10.62 0 4.04 4.04 0 00-4.034-4.035.31.31 0 100 .621z" fill="#fff"/><path d="M10.241 6.517c.857.001 1.55.695 1.552 1.552a.31.31 0 00.62 0 2.175 2.175 0 00-2.172-2.173.31.31 0 000 .621z" fill="#fff"/></svg>