<svg width="16" height="15" viewBox="0 0 16 15" fill="none" xmlns="http://www.w3.org/2000/svg">
<path d="M15.396 0.566499C14.9932 0.188776 14.5105 0 13.9482 0H2.05218C1.48965 0 1.0071 0.188844 0.604195 0.566499C0.201362 0.94405 0 1.39651 0 1.92378V13.0761C0 13.6033 0.201325 14.0559 0.604195 14.4335C1.0071 14.8111 1.48976 15 2.05218 15H13.948C14.5103 15 14.9931 14.8111 15.3959 14.4335C15.7988 14.0559 16 13.6033 16 13.0761V1.92378C16 1.39641 15.7988 0.944187 15.396 0.566499ZM5.745 5.4052C6.37342 4.83562 7.12866 4.5507 8.01062 4.5507C8.8994 4.5507 9.65803 4.83562 10.2866 5.4052C10.9152 5.97488 11.2293 6.66342 11.2293 7.47069C11.2293 8.27785 10.9152 8.96642 10.2866 9.53593C9.65803 10.1058 8.89965 10.3906 8.01062 10.3906C7.1287 10.3906 6.37353 10.1055 5.745 9.53593C5.11643 8.96636 4.80218 8.27785 4.80218 7.47069C4.80218 6.66342 5.11643 5.97491 5.745 5.4052ZM14.1878 12.6759C14.1878 12.845 14.1251 12.9866 14.0002 13.1006C13.875 13.2145 13.7259 13.2715 13.5521 13.2715H2.41682C2.23629 13.2715 2.08513 13.2145 1.96371 13.1006C1.8421 12.9868 1.78135 12.845 1.78135 12.6759V6.34754H3.25007C3.11124 6.75776 3.04181 7.18426 3.04181 7.62687C3.04181 8.87715 3.52786 9.94304 4.50008 10.8254C5.47241 11.7074 6.64253 12.1486 8.01058 12.1486C8.91337 12.1486 9.74666 11.9467 10.5108 11.5431C11.2747 11.1392 11.8785 10.5908 12.3232 9.89741C12.7677 9.20401 12.99 8.44713 12.99 7.6269C12.99 7.18429 12.9203 6.75789 12.7815 6.34757H14.1879V12.6759H14.1878V12.6759ZM14.1878 3.95495C14.1878 4.14376 14.1183 4.3033 13.9792 4.43348C13.8404 4.56376 13.6703 4.62882 13.4688 4.62882H11.6564C11.4551 4.62882 11.2848 4.56373 11.146 4.43348C11.0071 4.3033 10.9377 4.14376 10.9377 3.95495V2.34378C10.9377 2.16146 11.0071 2.00361 11.146 1.87011C11.2848 1.73668 11.4551 1.66987 11.6564 1.66987H13.4688C13.6703 1.66987 13.8404 1.73664 13.9792 1.87011C14.1183 2.00361 14.1878 2.16146 14.1878 2.34378V3.95495Z" fill="white"/>
</svg>
