<svg width="15" height="15" fill="none" xmlns="http://www.w3.org/2000/svg"><g clip-path="url(#clip0)" fill-rule="evenodd" clip-rule="evenodd"><path d="M7.417 0C4.326 0 2.184.01 1.084 1.084.011 2.184 0 4.426 0 7.417c3.321-.1 4.84-.183 6.051-1.366C7.234 4.84 7.317 3.321 7.417 0zM1.084 13.916C.01 12.816 0 10.574 0 7.583c3.321.1 4.84.183 6.051 1.366C7.234 10.16 7.317 11.68 7.417 15c-3.091 0-5.233-.01-6.333-1.083zM7.583 15c.1-3.321.183-4.84 1.366-6.05C10.16 7.765 11.68 7.682 15 7.582c0 2.99-.01 5.233-1.084 6.333C12.816 14.99 10.674 15 7.583 15zm0-15c.1 3.321.183 4.84 1.366 6.051C10.16 7.234 11.68 7.317 15 7.417c0-2.99-.01-5.233-1.084-6.333C12.816.011 10.674 0 7.583 0z" fill="#fff"/><path d="M8.95 8.95C7.765 10.16 7.682 11.678 7.582 15c3.091 0 5.233-.01 6.333-1.084C14.989 12.816 15 10.574 15 7.583c-3.32.1-4.84.183-6.05 1.366zM0 7.582c0 2.99.01 5.233 1.084 6.333C2.184 14.99 4.326 15 7.417 15c-.1-3.321-.183-4.84-1.366-6.05C4.84 7.765 3.321 7.682.001 7.582zM7.417 0C4.326 0 2.184.01 1.084 1.084.011 2.184 0 4.426 0 7.417c3.321-.1 4.84-.183 6.051-1.366C7.234 4.84 7.317 3.321 7.417 0zM8.95 6.051C7.766 4.84 7.683 3.321 7.583 0c3.091 0 5.233.01 6.333 1.084C14.989 2.184 15 4.426 15 7.417c-3.32-.1-4.84-.183-6.05-1.366z" fill="url(#paint0_linear)"/></g><defs><linearGradient id="paint0_linear" x1="15" y1="15" x2="15" y2="0" gradientUnits="userSpaceOnUse"><stop stop-color="#fff" stop-opacity=".01"/><stop offset=".475" stop-color="#fff" stop-opacity=".01"/><stop offset=".76" stop-color="#fff" stop-opacity=".043"/><stop offset=".995" stop-color="#fff" stop-opacity=".099"/><stop offset="1" stop-color="#fff" stop-opacity=".1"/></linearGradient><clipPath id="clip0"><path fill="#fff" d="M0 0h15v15H0z"/></clipPath></defs></svg>