<svg width="16" height="15" fill="none" xmlns="http://www.w3.org/2000/svg"><path d="M15.396.566A2.042 2.042 0 0013.948 0H2.052C1.49 0 1.007.189.604.566.201.944 0 1.396 0 1.924v11.152c0 .527.201.98.604 1.357.403.378.886.567 1.448.567h11.896c.562 0 1.045-.189 1.448-.566.403-.378.604-.83.604-1.358V1.924c0-.528-.201-.98-.604-1.358zm-9.651 4.84c.628-.57 1.384-.855 2.266-.855.888 0 1.647.285 2.276.854.628.57.942 1.258.942 2.066 0 .807-.314 1.495-.942 2.065-.629.57-1.387.855-2.276.855-.882 0-1.637-.286-2.266-.855-.629-.57-.943-1.258-.943-2.065 0-.808.314-1.496.943-2.066zm8.443 7.27c0 .169-.063.31-.188.425a.643.643 0 01-.448.17H2.417a.637.637 0 01-.453-.17.558.558 0 01-.183-.425V6.348h1.47c-.14.41-.21.836-.21 1.279 0 1.25.487 2.316 1.46 3.198.971.882 2.142 1.324 3.51 1.324a5.27 5.27 0 002.5-.606 4.737 4.737 0 001.812-1.646c.445-.693.667-1.45.667-2.27 0-.443-.07-.87-.209-1.28h1.407v6.329zm0-8.721a.63.63 0 01-.209.478.718.718 0 01-.51.196h-1.813a.718.718 0 01-.51-.196.63.63 0 01-.208-.478V2.344c0-.183.07-.34.208-.474.139-.133.31-.2.51-.2h1.813a.71.71 0 01.51.2c.14.134.209.291.209.474v1.611z" fill="#fff"/></svg>