<svg width="26" height="15" fill="none" xmlns="http://www.w3.org/2000/svg"><path d="M25.862 12.944a1.707 1.707 0 00-.088-.164c-.451-.784-1.313-1.748-2.586-2.89l-.026-.026-.014-.013-.014-.013h-.013c-.578-.532-.943-.89-1.096-1.073-.28-.349-.343-.702-.19-1.06.108-.27.514-.84 1.218-1.713.37-.462.663-.833.88-1.112 1.561-2.005 2.238-3.287 2.03-3.845l-.08-.13c-.054-.079-.194-.15-.42-.216-.226-.066-.514-.076-.866-.033l-3.899.026a.523.523 0 00-.27.007l-.177.04-.068.032-.053.04a.594.594 0 00-.15.136.893.893 0 00-.134.23 21.04 21.04 0 01-1.45 2.942 27.7 27.7 0 01-.92 1.406c-.28.397-.514.689-.703.876-.19.188-.361.338-.515.452-.153.113-.27.161-.352.144a10.198 10.198 0 01-.23-.053.882.882 0 01-.305-.32 1.4 1.4 0 01-.155-.51 5.462 5.462 0 01-.048-.53 10.67 10.67 0 01.007-.628c.01-.27.014-.453.014-.55 0-.33.006-.69.02-1.078.014-.389.024-.696.034-.922.009-.227.013-.467.013-.72 0-.253-.016-.451-.047-.595a1.983 1.983 0 00-.142-.419.712.712 0 00-.277-.314 1.595 1.595 0 00-.454-.176C13.858.067 13.25.01 12.508.002 10.83-.016 9.751.089 9.273.316c-.19.096-.361.227-.514.392-.163.192-.185.297-.068.314.541.078.925.266 1.15.562l.082.157c.063.114.126.314.19.602.063.288.103.606.121.955a9.826 9.826 0 010 1.635c-.045.453-.088.806-.129 1.06-.04.252-.101.457-.182.614a2.568 2.568 0 01-.163.288.23.23 0 01-.067.065c-.118.043-.24.065-.366.065s-.28-.06-.46-.183a3.209 3.209 0 01-.562-.503 6.74 6.74 0 01-.657-.896 15.47 15.47 0 01-.758-1.36l-.216-.38c-.135-.244-.32-.6-.555-1.066a20.21 20.21 0 01-.623-1.354.866.866 0 00-.325-.418l-.067-.04a.937.937 0 00-.217-.11c-.1-.04-.203-.068-.311-.086L.866.655C.489.655.23.738.096.904L.04.982a.411.411 0 00-.041.21c0 .096.027.213.081.353a42.542 42.542 0 001.767 3.558c.636 1.142 1.189 2.062 1.658 2.76A32.6 32.6 0 004.94 9.837c.487.62.81 1.016.968 1.19.158.175.282.306.372.393l.339.313c.216.21.534.46.954.753.42.292.884.58 1.394.863.51.283 1.104.514 1.78.693a6.38 6.38 0 001.977.216h1.557c.316-.026.555-.122.717-.288l.054-.065a.852.852 0 00.101-.242c.032-.109.048-.229.048-.36-.01-.375.02-.712.088-1.013.067-.3.144-.528.23-.68.086-.153.183-.282.291-.386a1.17 1.17 0 01.23-.19.894.894 0 01.108-.045c.217-.07.472-.003.766.202.293.205.568.458.825.76.258.3.567.638.928 1.013.36.375.677.653.947.837l.27.157c.182.104.416.2.705.288.288.087.541.108.758.065l3.465-.052c.343 0 .61-.055.799-.164.19-.109.302-.229.338-.36a.978.978 0 00.007-.444 1.599 1.599 0 00-.095-.347z" fill="#fff"/></svg>