<svg width="26" height="15" viewBox="0 0 26 15" fill="none" xmlns="http://www.w3.org/2000/svg">
<path d="M25.8621 12.944C25.8306 12.8785 25.8013 12.8241 25.774 12.7805C25.3229 11.9955 24.4609 11.032 23.1884 9.88973L23.1615 9.86357L23.1481 9.85074L23.1345 9.83759H23.1208C22.5433 9.30568 22.1776 8.94803 22.0245 8.76492C21.7442 8.41611 21.6815 8.06304 21.8346 7.7053C21.9428 7.43501 22.3492 6.8642 23.053 5.99208C23.4231 5.52989 23.7163 5.15946 23.9328 4.88037C25.4942 2.87475 26.1711 1.59312 25.9634 1.035L25.8828 0.904577C25.8286 0.826056 25.6887 0.754223 25.4634 0.688713C25.2375 0.62334 24.9488 0.612529 24.5967 0.656096L20.6981 0.682116C20.635 0.660493 20.5448 0.662509 20.4273 0.688713C20.31 0.714917 20.2513 0.728065 20.2513 0.728065L20.1834 0.760821L20.1295 0.800172C20.0844 0.826193 20.0348 0.871959 19.9806 0.937378C19.9267 1.00257 19.8816 1.07907 19.8455 1.16625C19.4211 2.22134 18.9385 3.2023 18.3969 4.10909C18.063 4.64981 17.7563 5.11841 17.4762 5.51518C17.1965 5.91182 16.9619 6.20405 16.7725 6.39138C16.5828 6.57888 16.4117 6.7291 16.2579 6.84257C16.1045 6.95609 15.9873 7.00406 15.9062 6.98651C15.8249 6.96897 15.7483 6.95156 15.6758 6.93415C15.5495 6.85563 15.448 6.74884 15.3714 6.6137C15.2945 6.47856 15.2427 6.30846 15.2156 6.10354C15.1887 5.89849 15.1728 5.72212 15.1682 5.57382C15.164 5.42572 15.1659 5.21622 15.1751 4.94593C15.1845 4.67551 15.1887 4.49254 15.1887 4.39661C15.1887 4.06521 15.1954 3.70554 15.2088 3.31752C15.2225 2.92949 15.2335 2.62205 15.2428 2.39556C15.252 2.16884 15.2562 1.92897 15.2562 1.67609C15.2562 1.42321 15.2403 1.22489 15.2088 1.08095C15.1777 0.937194 15.13 0.797653 15.067 0.662371C15.0037 0.527227 14.9111 0.422686 14.7895 0.348471C14.6677 0.274348 14.5163 0.215526 14.3361 0.171822C13.8577 0.067234 13.2486 0.0106568 12.5084 0.00186104C10.8299 -0.0155473 9.75134 0.0891776 9.27303 0.315899C9.08351 0.411691 8.91202 0.542574 8.75868 0.708137C8.59619 0.900041 8.57353 1.00477 8.69083 1.02199C9.23239 1.10038 9.61578 1.28788 9.84143 1.58433L9.92274 1.74142C9.98599 1.85475 10.0491 2.05541 10.1124 2.3431C10.1755 2.6308 10.2162 2.94905 10.2341 3.29768C10.2792 3.93432 10.2792 4.4793 10.2341 4.93265C10.1889 5.38618 10.1463 5.73925 10.1055 5.99213C10.0648 6.24501 10.0039 6.44992 9.92274 6.60683C9.84143 6.76378 9.78733 6.85971 9.76021 6.89452C9.73314 6.92934 9.71057 6.95128 9.69264 6.9599C9.57534 7.00333 9.45334 7.02545 9.32708 7.02545C9.20063 7.02545 9.04729 6.96434 8.86683 6.84221C8.68642 6.72007 8.49918 6.55231 8.30511 6.33865C8.11105 6.12494 7.89218 5.82629 7.64843 5.44267C7.40486 5.05904 7.15214 4.60564 6.89042 4.08248L6.67388 3.70306C6.53851 3.45898 6.35359 3.10358 6.11894 2.63717C5.88415 2.17058 5.67661 1.71924 5.4962 1.28325C5.42409 1.10015 5.31575 0.960742 5.17137 0.864813L5.10361 0.82546C5.05857 0.790644 4.98626 0.753674 4.88707 0.714276C4.78774 0.674924 4.68409 0.646703 4.57571 0.629341L0.866541 0.655362C0.487513 0.655362 0.230338 0.738327 0.0949232 0.904027L0.0407288 0.98241C0.0136553 1.02607 0 1.09579 0 1.19177C0 1.2877 0.0270735 1.40543 0.0812679 1.54484C0.622738 2.77442 1.21157 3.96025 1.84778 5.10252C2.48398 6.24478 3.03683 7.1649 3.50599 7.86206C3.97525 8.55973 4.45357 9.21818 4.94094 9.83709C5.42831 10.4562 5.75091 10.853 5.90875 11.0273C6.06679 11.202 6.19092 11.3325 6.28115 11.4197L6.61964 11.7335C6.83622 11.9429 7.15428 12.1935 7.57394 12.4856C7.9937 12.7778 8.4584 13.0655 8.9683 13.3491C9.47828 13.6323 10.0716 13.8634 10.7485 14.0421C11.4253 14.221 12.0841 14.2928 12.7249 14.2581H14.2817C14.5975 14.2318 14.8367 14.1359 14.9992 13.9703L15.0531 13.9047C15.0893 13.8527 15.1232 13.7718 15.1545 13.663C15.1862 13.5541 15.2019 13.434 15.2019 13.3034C15.1927 12.9285 15.2222 12.5906 15.2897 12.2898C15.3572 11.9891 15.4341 11.7624 15.5201 11.6097C15.6061 11.4572 15.7031 11.3284 15.8111 11.2241C15.9193 11.1195 15.9964 11.0561 16.0416 11.0343C16.0865 11.0124 16.1224 10.9975 16.1495 10.9886C16.3661 10.9188 16.621 10.9864 16.9146 11.1915C17.2079 11.3964 17.4831 11.6494 17.7404 11.9501C17.9977 12.2511 18.3067 12.5888 18.6676 12.9636C19.0288 13.3386 19.3446 13.6174 19.6152 13.8008L19.8858 13.9577C20.0666 14.0625 20.3012 14.1584 20.5901 14.2456C20.8784 14.3327 21.131 14.3545 21.3479 14.3109L24.8133 14.2587C25.1561 14.2587 25.4228 14.2039 25.612 14.0951C25.8015 13.9861 25.9141 13.866 25.9504 13.7354C25.9867 13.6047 25.9886 13.4563 25.9573 13.2905C25.9252 13.1251 25.8936 13.0094 25.8621 12.944Z" fill="white"/>
</svg>
