<?xml version="1.0" standalone="no"?>
<!DOCTYPE svg PUBLIC "-//W3C//DTD SVG 20010904//EN"
 "http://www.w3.org/TR/2001/REC-SVG-20010904/DTD/svg10.dtd">
<svg version="1.0" xmlns="http://www.w3.org/2000/svg"
 width="1664.000000pt" height="1664.000000pt" viewBox="0 0 1664.000000 1664.000000"
 preserveAspectRatio="xMidYMid meet">
<metadata>
Created by potrace 1.11, written by Peter Selinger 2001-2013
</metadata>
<g transform="translate(0.000000,1664.000000) scale(0.100000,-0.100000)"
fill="#000000" stroke="none">
<path d="M7441 16636 c4 -4 0 -28 -8 -54 -36 -115 -90 -355 -85 -374 1 -5 -2
-8 -6 -8 -4 0 -8 -8 -9 -17 -1 -25 -11 -118 -13 -118 -3 0 -10 -41 -15 -85 -3
-25 -8 -61 -11 -80 -3 -19 -7 -52 -8 -72 -2 -20 -7 -41 -10 -47 -4 -6 -3 -11
3 -11 7 0 7 -8 2 -22 -10 -28 -13 -103 -12 -323 0 -245 2 -276 11 -312 5 -20
5 -33 -1 -33 -6 0 -6 -7 0 -18 6 -11 10 -27 10 -38 0 -10 2 -37 6 -59 3 -22 7
-56 9 -75 2 -19 5 -35 6 -35 2 0 8 -32 15 -85 3 -25 10 -61 15 -80 5 -19 11
-46 14 -60 13 -63 34 -149 43 -170 4 -8 7 -22 9 -30 2 -22 63 -202 74 -222 6
-10 10 -26 10 -36 0 -10 5 -23 12 -30 7 -7 8 -12 4 -12 -5 0 -3 -7 4 -15 7 -8
9 -15 4 -15 -5 0 -3 -4 4 -9 7 -4 15 -14 16 -22 4 -19 13 -42 46 -114 15 -33
34 -75 41 -92 8 -18 17 -33 21 -33 5 0 8 -7 8 -15 0 -8 8 -29 18 -47 41 -73
128 -230 137 -249 5 -10 13 -19 17 -19 5 0 8 -4 8 -9 0 -10 79 -142 90 -151 4
-3 26 -34 50 -70 24 -36 53 -77 64 -91 12 -15 30 -39 41 -54 11 -16 28 -38 37
-49 10 -12 37 -46 60 -76 23 -30 45 -57 48 -60 3 -3 21 -23 40 -46 19 -22 60
-69 90 -104 101 -118 521 -529 550 -538 5 -2 8 -8 4 -13 -3 -5 2 -9 10 -9 8 0
19 -6 23 -13 4 -7 36 -35 70 -62 35 -28 63 -53 63 -57 0 -5 7 -8 16 -8 8 0 13
-4 9 -9 -3 -5 4 -12 15 -16 11 -3 20 -11 20 -16 0 -6 4 -8 9 -5 5 4 11 3 13
-2 1 -4 28 -28 58 -52 30 -25 57 -47 60 -50 3 -3 21 -17 40 -30 19 -14 42 -30
50 -37 29 -23 88 -68 110 -83 12 -8 31 -23 42 -32 25 -21 44 -23 46 -5 3 36
12 105 16 126 3 13 8 49 12 80 3 31 11 59 18 63 8 6 8 8 -1 8 -7 0 -10 9 -7
23 3 12 7 42 9 67 2 25 4 45 5 45 2 0 3 11 5 25 1 14 5 63 10 110 4 47 9 99
10 115 1 17 3 32 4 35 2 3 4 37 6 75 2 39 6 124 10 190 8 145 8 621 0 725 -3
41 -7 108 -8 147 -1 40 -5 73 -9 73 -4 0 -6 17 -6 38 0 35 -2 60 -18 177 -4
28 -7 62 -8 78 0 15 -4 27 -7 27 -3 0 -6 6 -6 13 -1 29 -14 110 -27 174 -8 38
-17 80 -20 93 -9 45 -14 64 -26 110 -7 25 -13 52 -15 60 -8 37 -18 76 -24 85
-6 11 -10 28 -13 58 -1 9 -6 17 -10 17 -4 0 -8 8 -8 18 0 9 -13 52 -29 94 -16
42 -26 80 -23 83 3 3 0 5 -7 5 -8 0 -11 7 -7 15 3 8 1 15 -4 15 -6 0 -10 6
-10 14 0 14 -25 76 -68 166 -14 30 -25 58 -24 63 1 4 -2 7 -8 7 -6 0 -10 3 -9
8 2 15 -14 52 -22 52 -5 0 -8 3 -7 8 3 12 -26 66 -39 75 -8 5 -11 12 -8 17 3
6 -3 20 -14 32 -12 12 -21 28 -21 35 0 7 -5 13 -12 13 -6 0 -9 3 -6 6 9 8
-160 263 -174 264 -5 0 -8 6 -8 13 0 7 -9 19 -20 27 -11 8 -20 18 -20 23 0 4
-13 21 -30 37 -16 16 -30 32 -30 35 0 8 3 5 -133 144 -60 61 -111 111 -113
111 -2 0 -21 18 -44 41 -22 22 -40 38 -40 35 0 -3 -8 2 -18 12 -34 32 -77 67
-127 102 -28 19 -51 38 -53 42 -2 4 -10 8 -18 8 -8 0 -14 5 -14 10 0 6 -7 10
-15 10 -7 0 -18 6 -22 13 -4 7 -20 18 -35 24 -16 7 -28 17 -28 23 0 5 -6 10
-13 10 -7 0 -29 11 -49 25 -21 14 -77 46 -125 72 -49 25 -91 51 -95 57 -4 6
-10 7 -14 4 -4 -4 -19 1 -34 12 -16 11 -31 20 -34 20 -3 0 -31 12 -63 26 -32
14 -74 33 -93 41 -19 8 -54 23 -78 34 -23 10 -51 19 -62 19 -11 0 -20 4 -20 8
0 5 -6 9 -12 10 -7 0 -24 4 -38 8 -14 4 -22 4 -19 0z"/>
<path d="M12269 14316 c-2 -2 -33 -7 -69 -11 -35 -3 -68 -9 -72 -11 -4 -3 -24
-7 -45 -9 -54 -5 -105 -15 -115 -21 -5 -3 -19 -7 -31 -9 -12 -2 -31 -6 -42 -9
-11 -3 -47 -12 -80 -21 -33 -9 -69 -20 -80 -26 -11 -5 -29 -11 -40 -14 -75
-16 -374 -154 -417 -193 -10 -8 -18 -11 -18 -6 0 5 -6 2 -13 -7 -7 -9 -21 -19
-32 -22 -11 -4 -33 -19 -50 -34 -16 -16 -31 -26 -33 -24 -2 1 -15 -6 -28 -18
-13 -12 -27 -21 -30 -21 -8 0 -128 -101 -132 -111 -2 -5 -8 -9 -13 -9 -4 0
-36 -27 -70 -60 -34 -33 -65 -60 -70 -60 -5 0 -9 -4 -9 -9 0 -5 -19 -29 -42
-54 -70 -74 -98 -108 -98 -119 0 -5 -4 -6 -10 -3 -5 3 -10 -1 -10 -9 0 -8 -8
-20 -17 -25 -10 -6 -14 -11 -10 -11 4 0 -4 -11 -19 -25 -15 -14 -23 -25 -18
-25 5 0 2 -6 -6 -13 -17 -14 -124 -167 -116 -167 3 0 -6 -12 -19 -26 -14 -15
-25 -33 -25 -40 0 -8 -3 -14 -8 -14 -4 0 -15 -18 -25 -40 -9 -22 -21 -40 -27
-40 -5 0 -9 -3 -8 -7 4 -16 -14 -53 -23 -47 -5 3 -8 2 -7 -3 3 -10 -13 -56
-21 -63 -7 -6 -44 -81 -45 -92 -1 -4 -7 -13 -13 -19 -7 -7 -13 -20 -13 -29 0
-9 -4 -20 -9 -25 -11 -12 -111 -243 -114 -265 -2 -8 -7 -22 -12 -30 -5 -8 -10
-19 -11 -25 -7 -32 -80 -231 -87 -233 -4 -2 -5 -8 -2 -12 3 -5 -1 -26 -9 -47
-12 -32 -53 -172 -61 -208 -1 -5 -7 -30 -14 -55 -7 -25 -13 -45 -12 -45 1 0
-7 -31 -18 -68 l-19 -68 32 5 c29 5 168 42 174 47 1 1 5 2 10 3 60 14 112 32
112 38 0 5 4 7 9 4 5 -3 42 6 82 20 95 32 93 31 102 33 4 0 21 8 37 16 17 9
30 13 30 11 0 -3 21 4 48 15 26 11 56 24 67 29 11 4 36 15 55 23 19 8 45 18
58 22 12 3 22 11 22 16 0 6 4 8 8 5 5 -3 30 6 57 19 27 14 54 25 61 25 7 0 19
6 26 14 8 7 25 17 38 21 14 4 27 11 30 14 3 3 32 20 65 36 33 16 66 35 73 42
7 7 18 13 23 13 10 0 221 134 270 171 87 67 198 158 242 198 66 61 136 131
132 131 -2 0 15 20 38 44 54 56 77 84 77 95 0 5 7 11 15 15 8 3 15 13 15 21 0
9 4 14 8 11 4 -3 16 11 27 30 10 19 22 34 27 34 5 0 6 5 3 10 -3 6 0 13 8 16
8 3 18 13 21 22 5 17 26 52 36 62 7 7 22 35 75 140 26 52 56 112 67 133 10 20
16 37 12 37 -3 0 -1 7 6 15 7 8 9 15 5 15 -4 0 -3 6 3 13 14 17 81 233 87 282
1 11 6 28 10 38 4 9 5 23 2 31 -3 8 -2 16 3 18 5 2 11 23 14 48 4 25 9 61 12
80 17 117 27 321 23 463 0 16 -10 22 -20 13z"/>
<path d="M8077 11644 c-4 -4 -29 -8 -55 -9 -26 -1 -52 -3 -57 -6 -6 -2 -31 -4
-57 -4 -27 0 -48 -2 -48 -5 0 -3 -21 -6 -48 -6 -26 -1 -63 -5 -82 -8 -19 -3
-48 -8 -65 -10 -36 -4 -89 -14 -130 -23 -16 -4 -37 -7 -45 -8 -8 -1 -26 -5
-40 -8 -14 -4 -36 -9 -50 -11 -14 -3 -25 -5 -25 -6 0 -3 -39 -11 -66 -14 -14
-1 -30 -5 -35 -8 -5 -2 -27 -10 -49 -16 -52 -15 -157 -45 -170 -48 -46 -12
-222 -80 -227 -88 -4 -6 -8 -8 -8 -4 0 4 -20 -1 -45 -12 -25 -11 -45 -17 -45
-14 0 2 -10 -2 -23 -11 -13 -8 -27 -12 -30 -8 -4 3 -7 1 -7 -5 0 -6 -10 -14
-22 -17 -13 -4 -68 -29 -123 -54 -55 -26 -103 -47 -106 -47 -4 1 -15 -6 -25
-15 -11 -9 -37 -25 -59 -35 -22 -10 -42 -20 -45 -23 -6 -7 -32 -23 -80 -49
-19 -11 -61 -36 -92 -56 -32 -20 -60 -36 -64 -36 -3 1 -14 -8 -23 -19 -10 -11
-20 -19 -22 -16 -3 2 -18 -7 -34 -21 -17 -14 -42 -32 -57 -40 -16 -8 -28 -19
-28 -24 0 -6 -5 -10 -10 -10 -10 0 -109 -70 -138 -98 -8 -7 -30 -25 -50 -40
-21 -15 -41 -33 -45 -39 -4 -7 -15 -13 -24 -13 -9 0 -13 -3 -10 -7 4 -3 -6
-16 -21 -27 -43 -33 -80 -66 -153 -137 -37 -37 -70 -64 -73 -61 -3 3 -6 0 -6
-6 0 -6 -28 -40 -62 -75 -35 -35 -90 -94 -123 -131 -33 -38 -67 -75 -75 -84
-8 -9 -15 -18 -15 -22 0 -3 -11 -17 -23 -30 -13 -14 -38 -44 -55 -67 -17 -24
-34 -43 -38 -43 -4 0 -10 -8 -13 -17 -3 -10 -17 -30 -31 -45 -14 -16 -23 -28
-20 -28 5 0 -73 -110 -86 -120 -4 -3 -9 -15 -13 -27 -4 -13 -11 -23 -14 -23
-4 0 -16 -16 -26 -35 -11 -19 -23 -35 -28 -35 -5 0 -6 -4 -3 -10 3 -5 3 -10
-2 -10 -4 0 -21 -23 -38 -50 -16 -28 -33 -50 -37 -50 -4 0 -7 -3 -6 -7 0 -5
-7 -26 -17 -48 -28 -62 -25 -103 11 -131 24 -20 176 -86 224 -99 25 -6 89 -28
105 -36 12 -6 27 -11 35 -13 8 -2 24 -6 35 -10 11 -5 36 -14 56 -21 20 -8 39
-11 43 -8 3 4 6 2 6 -3 0 -8 61 -31 103 -40 4 -1 9 -3 12 -4 3 -1 10 -4 15 -5
6 -1 11 -3 13 -5 1 -1 9 -3 17 -5 8 -2 83 -27 165 -55 83 -29 157 -53 165 -55
8 -2 16 -4 18 -5 1 -2 7 -4 12 -5 6 -1 13 -4 18 -5 4 -1 10 -2 15 -1 4 0 7 -3
7 -9 0 -5 6 -7 14 -4 8 3 17 1 21 -5 3 -6 17 -11 30 -11 13 0 26 -4 29 -9 4
-5 24 -12 46 -16 22 -4 40 -10 40 -14 0 -4 6 -8 13 -8 6 0 32 -6 57 -13 25 -8
47 -14 50 -15 3 0 16 -7 30 -15 14 -7 27 -13 30 -12 7 2 54 -10 65 -17 6 -3
15 -6 20 -7 6 -1 29 -9 53 -18 23 -8 42 -13 42 -9 0 3 6 0 14 -6 8 -7 27 -14
42 -17 15 -3 32 -8 38 -12 6 -3 16 -7 21 -8 6 -1 18 -5 27 -9 11 -5 24 2 40
22 41 50 248 253 258 253 6 0 10 7 10 16 0 8 5 12 10 9 6 -3 10 -3 10 2 0 4
17 19 37 33 20 14 42 30 48 37 7 6 57 40 111 75 129 82 128 81 208 123 38 19
75 40 83 46 7 6 13 9 13 5 0 -4 18 3 40 14 22 11 40 18 40 15 0 -3 10 1 23 9
17 11 110 46 137 51 3 1 37 11 75 23 39 12 81 23 95 26 14 2 25 5 25 6 0 3
115 24 188 35 131 19 388 28 423 15 11 -5 27 -4 34 0 9 5 20 4 27 -2 9 -7 13
-7 13 1 0 8 5 9 18 2 10 -5 42 -11 72 -13 30 -2 60 -6 65 -9 6 -4 24 -7 40 -7
17 0 56 -8 89 -16 32 -9 63 -13 67 -10 5 3 9 1 9 -4 0 -5 20 -13 45 -16 24 -4
47 -11 50 -17 4 -5 10 -7 15 -4 5 3 17 1 27 -4 10 -6 47 -20 83 -32 36 -12 77
-28 93 -36 15 -7 27 -10 27 -6 0 5 4 2 8 -4 4 -7 17 -14 28 -16 12 -1 32 -9
45 -18 13 -8 38 -21 54 -29 17 -8 38 -21 48 -29 9 -8 17 -11 17 -8 0 19 291
-182 390 -269 81 -72 260 -257 260 -270 0 -2 9 -14 19 -26 61 -71 71 -84 71
-92 0 -5 10 -17 22 -27 11 -11 17 -19 12 -19 -5 0 -4 -4 1 -8 17 -12 176 -287
180 -312 0 -3 8 -21 17 -40 23 -50 31 -74 30 -82 -1 -5 3 -8 8 -8 5 0 9 -3 8
-7 -2 -11 13 -66 22 -78 6 -8 30 -88 36 -117 1 -5 3 -11 4 -15 2 -5 4 -12 5
-18 2 -5 4 -13 5 -17 1 -5 4 -12 5 -18 1 -5 3 -11 5 -12 1 -2 4 -16 6 -33 3
-16 7 -37 11 -45 3 -8 7 -26 8 -40 2 -14 6 -45 10 -70 12 -75 16 -112 19 -170
2 -30 5 -57 6 -60 5 -12 1 -130 -5 -139 -3 -6 -2 -11 2 -11 9 0 9 -21 -1 -102
-4 -35 -2 -48 7 -48 8 0 9 -2 1 -8 -6 -4 -14 -32 -18 -62 -6 -58 -12 -99 -22
-153 -3 -17 -7 -41 -9 -52 -2 -11 -4 -20 -5 -20 -1 0 -3 -7 -5 -15 -1 -8 -8
-35 -15 -60 -7 -25 -14 -54 -17 -65 -5 -26 -9 -37 -16 -55 -3 -8 -16 -44 -28
-80 -12 -36 -30 -85 -41 -109 -10 -24 -16 -46 -14 -48 3 -3 21 -7 40 -9 20 -1
42 -6 49 -11 6 -4 21 -8 32 -9 24 -1 134 -24 155 -32 18 -6 19 -6 95 -21 33
-7 67 -15 75 -18 8 -3 24 -8 35 -10 11 -3 25 -6 30 -7 6 -2 29 -7 53 -11 23
-4 42 -10 42 -14 0 -3 19 -7 42 -8 23 -2 44 -7 47 -11 3 -5 15 -9 26 -9 20 -1
60 -10 60 -13 0 -1 9 -3 20 -5 11 -2 31 -6 45 -10 14 -4 33 -7 42 -7 10 1 20
-4 23 -9 4 -5 10 -7 15 -4 4 3 26 -2 48 -9 22 -8 42 -12 45 -9 3 2 14 0 24 -5
10 -6 34 -13 53 -16 19 -3 78 -15 130 -27 92 -21 124 -27 165 -33 11 -2 31 -6
45 -9 29 -8 74 -17 110 -22 14 -2 36 -6 50 -10 44 -11 190 -15 190 -6 0 6 9
12 19 16 15 4 58 72 53 82 -1 2 5 18 13 37 8 18 17 49 20 67 3 18 10 38 14 44
5 5 8 17 8 25 1 18 9 54 22 98 5 18 10 35 10 37 1 3 2 7 2 10 3 10 5 21 12 55
4 19 9 46 12 60 3 14 8 41 11 60 3 19 8 42 11 50 4 8 7 27 8 43 2 15 3 28 4
30 2 1 4 13 6 27 12 91 20 150 31 230 9 68 14 150 19 310 3 80 7 156 8 170 2
14 1 30 -2 35 -3 6 -6 62 -7 125 -2 114 -9 227 -19 305 -3 22 -8 58 -10 80 -7
61 -15 117 -22 145 -3 14 -7 39 -9 55 -4 39 -19 116 -24 123 -2 1 -3 10 -4 20
-3 29 -22 120 -26 125 -1 1 -3 9 -5 17 -1 8 -11 44 -20 80 -10 36 -19 72 -20
80 -1 8 -7 28 -14 43 -6 16 -11 34 -11 41 0 7 -3 16 -7 20 -5 4 -8 11 -8 14
-1 18 -29 108 -36 116 -5 6 -9 16 -9 22 0 7 -5 25 -12 41 -6 15 -12 30 -13 33
-13 37 -36 92 -52 123 -8 15 -12 27 -9 27 8 0 -170 377 -184 390 -6 6 -49 84
-65 117 -5 13 -13 23 -17 23 -5 0 -8 7 -8 15 0 8 -4 15 -10 15 -5 0 -10 7 -10
15 0 9 -5 21 -10 28 -24 28 -61 83 -66 100 -4 9 -10 17 -15 17 -5 0 -9 7 -9
15 0 8 -5 15 -12 15 -6 0 -8 3 -5 6 4 4 -3 15 -15 25 -11 11 -18 19 -14 19 4
0 1 6 -6 14 -7 7 -20 24 -28 36 -30 45 -55 75 -67 83 -7 4 -13 13 -13 19 0 11
-117 155 -163 200 -15 16 -25 28 -23 28 3 0 -14 19 -37 43 -23 24 -63 66 -88
93 -65 68 -219 210 -309 283 -25 20 -46 39 -48 44 -2 4 -8 7 -13 7 -6 0 -21
11 -34 24 -14 14 -38 33 -55 42 -16 10 -30 22 -30 26 0 4 -7 8 -15 8 -9 0 -18
7 -21 15 -4 8 -10 12 -15 9 -5 -3 -9 -1 -9 4 0 5 -12 15 -27 23 -16 8 -35 21
-43 30 -8 9 -29 23 -47 32 -17 9 -37 22 -45 29 -7 7 -31 22 -53 33 -22 10 -47
25 -55 31 -29 24 -309 170 -377 197 -23 9 -64 26 -90 38 -101 45 -114 50 -134
54 -12 2 -27 9 -35 16 -8 6 -14 8 -14 4 0 -4 -6 -2 -14 4 -8 6 -18 11 -22 10
-5 -1 -22 3 -39 10 -63 27 -366 113 -402 114 -13 1 -23 4 -23 7 0 3 -8 6 -17
7 -10 0 -47 6 -83 13 -110 21 -114 21 -145 25 -16 1 -37 5 -45 8 -8 3 -22 6
-30 6 -8 0 -35 3 -60 6 -25 2 -74 7 -110 10 -36 3 -90 8 -120 10 -70 7 -68 7
-110 6 -19 0 -75 0 -125 0 -49 1 -109 -1 -132 -3 -24 -2 -44 0 -46 5 -1 4 -6
5 -10 1z"/>
<path d="M4425 8831 c-57 -18 -115 -73 -115 -109 0 -7 -3 -12 -8 -12 -6 0 -45
-117 -47 -140 0 -3 -3 -10 -7 -15 -3 -6 -9 -28 -13 -50 -4 -22 -10 -44 -13
-50 -3 -5 -7 -16 -9 -25 -8 -47 -13 -71 -27 -125 -9 -33 -18 -71 -20 -85 -3
-14 -5 -25 -6 -25 -3 0 -30 -145 -35 -185 -2 -14 -6 -36 -9 -49 -8 -35 -20
-132 -21 -168 0 -18 -3 -33 -6 -33 -4 0 -7 -10 -7 -22 0 -13 -3 -61 -6 -108
-4 -47 -8 -107 -10 -135 -2 -27 -4 -50 -5 -50 -1 0 -3 -24 -4 -53 -1 -28 1
-52 5 -52 4 0 3 -13 -2 -29 -4 -15 -4 -34 0 -42 5 -7 6 -17 3 -23 -10 -15 -6
-125 11 -353 3 -29 7 -57 11 -63 3 -5 1 -10 -5 -10 -8 0 -8 -6 0 -20 6 -10 9
-23 8 -27 -2 -7 9 -106 18 -158 2 -11 5 -36 9 -55 10 -64 11 -69 17 -76 4 -3
5 -11 2 -18 -4 -9 36 -199 72 -338 2 -10 6 -26 8 -35 3 -10 14 -47 26 -83 12
-36 24 -74 26 -85 8 -30 10 -38 18 -57 4 -9 9 -22 10 -30 2 -7 6 -21 10 -30 4
-9 9 -22 10 -30 1 -7 7 -23 14 -34 6 -12 8 -24 5 -28 -3 -3 0 -6 7 -6 7 0 10
-3 7 -7 -4 -3 -2 -12 4 -20 6 -7 8 -13 4 -13 -4 0 -3 -6 2 -12 9 -11 22 -54
24 -75 0 -5 6 -15 13 -23 7 -8 17 -28 21 -45 5 -16 10 -37 12 -45 2 -8 5 -21
5 -27 1 -7 5 -13 9 -13 6 0 17 -25 25 -63 2 -10 11 -28 19 -40 7 -12 14 -24
15 -27 4 -28 14 -50 23 -50 6 0 8 -3 4 -6 -22 -22 149 -234 189 -234 8 0 14
-4 14 -10 0 -5 6 -10 14 -10 8 0 16 -3 18 -7 3 -7 123 -67 137 -69 3 0 26 -9
51 -20 25 -10 48 -18 53 -16 4 1 7 -3 7 -10 0 -6 3 -9 6 -5 4 3 29 -3 58 -14
68 -26 338 -118 362 -122 18 -4 26 -6 89 -30 17 -6 35 -12 40 -13 6 -1 35 -9
65 -18 30 -9 58 -15 61 -13 3 1 13 -4 22 -12 10 -7 17 -11 17 -7 0 3 17 0 38
-8 36 -13 172 -56 196 -61 6 -1 18 -5 26 -8 20 -8 333 -111 340 -112 3 0 15
-6 28 -13 12 -7 22 -10 22 -7 0 3 13 -1 30 -10 16 -8 31 -15 32 -14 3 1 39
-13 91 -34 20 -9 40 -16 42 -16 3 0 20 -8 38 -18 17 -9 34 -18 37 -18 3 -1 31
-13 63 -29 60 -29 75 -48 30 -40 -14 3 -48 7 -74 8 -26 2 -52 7 -58 10 -6 4
-11 1 -11 -6 0 -8 -3 -9 -8 -3 -4 6 -14 10 -22 10 -8 0 -35 3 -60 8 -25 4 -61
10 -80 13 -19 3 -46 7 -60 10 -14 2 -43 7 -64 10 -22 3 -43 7 -48 10 -4 3 -27
7 -50 10 -23 3 -48 9 -54 15 -6 5 -13 6 -16 3 -3 -3 -23 -1 -44 5 -22 6 -50
12 -64 15 -14 2 -25 5 -25 6 0 1 -9 3 -20 5 -11 2 -42 8 -70 15 -27 6 -58 12
-67 14 -10 1 -20 5 -24 8 -3 4 -12 4 -20 1 -8 -3 -14 -1 -14 4 0 5 -10 9 -22
8 -13 -1 -40 4 -61 11 -20 7 -39 13 -42 14 -3 0 -6 0 -7 1 -2 1 -14 3 -28 5
-22 3 -51 9 -125 27 -11 3 -49 11 -85 17 -36 7 -72 15 -80 18 -18 7 -35 10
-77 14 -18 2 -33 6 -33 9 0 3 -13 6 -30 7 -57 4 -70 6 -70 12 0 3 -10 6 -22 6
-13 1 -43 4 -68 8 -25 4 -61 10 -80 13 -19 3 -64 6 -99 6 -54 0 -67 -3 -82
-22 -18 -22 -18 -75 0 -116 34 -75 43 -98 46 -113 2 -9 13 -37 25 -61 12 -25
23 -50 24 -55 2 -6 10 -28 19 -50 9 -21 17 -42 17 -47 0 -5 4 -9 8 -9 4 0 9
-10 9 -22 1 -13 6 -32 12 -43 9 -20 22 -54 26 -67 2 -5 4 -10 5 -13 1 -3 3 -8
4 -12 5 -23 61 -169 68 -178 4 -5 8 -19 8 -32 0 -13 5 -23 12 -23 6 0 9 -3 5
-6 -3 -3 3 -26 13 -50 11 -24 17 -44 13 -44 -3 0 -1 -6 4 -12 5 -7 16 -33 23
-58 7 -25 18 -51 23 -57 5 -7 6 -13 2 -13 -4 0 0 -11 9 -25 9 -13 16 -31 16
-39 0 -9 11 -40 24 -71 14 -30 22 -55 18 -55 -3 0 -1 -5 6 -12 7 -7 12 -22 12
-35 0 -13 5 -23 12 -23 6 0 9 -2 6 -5 -3 -3 24 -83 59 -178 35 -94 66 -179 68
-187 7 -21 60 -172 68 -190 3 -8 16 -42 27 -75 12 -33 24 -67 27 -75 4 -8 7
-18 8 -22 2 -5 4 -10 5 -13 1 -3 3 -8 4 -12 1 -5 7 -18 14 -30 7 -13 10 -23 7
-23 -3 0 1 -13 10 -30 8 -16 15 -32 15 -35 1 -7 10 -36 21 -63 5 -13 9 -32 9
-42 0 -11 3 -20 8 -20 6 0 18 -28 36 -85 2 -5 9 -23 15 -40 7 -16 14 -34 15
-40 1 -5 5 -16 9 -23 5 -6 5 -12 1 -12 -3 0 -1 -6 5 -14 7 -8 13 -22 15 -32 4
-20 51 -153 66 -189 11 -28 35 -89 36 -95 0 -3 4 -13 8 -22 4 -9 9 -22 10 -30
2 -7 6 -22 10 -33 5 -11 17 -45 28 -75 11 -30 23 -62 28 -71 8 -15 33 -101 31
-106 0 -2 8 -19 19 -38 11 -20 20 -44 20 -55 0 -10 5 -22 10 -25 6 -3 10 -17
10 -30 0 -13 5 -27 10 -30 6 -3 10 -15 10 -26 0 -10 5 -19 11 -19 5 0 8 -4 4
-9 -3 -5 -1 -12 5 -16 6 -4 8 -11 4 -16 -3 -5 0 -16 6 -24 7 -8 9 -15 6 -15
-4 0 -1 -10 6 -22 7 -13 13 -26 14 -30 1 -5 3 -10 4 -13 1 -3 3 -8 5 -12 2
-10 14 -41 25 -68 14 -35 54 -150 56 -160 2 -10 32 -88 49 -130 5 -11 9 -24
10 -30 0 -5 6 -20 13 -32 7 -12 11 -26 10 -30 -1 -4 4 -19 12 -33 7 -14 13
-27 13 -30 -1 -3 5 -21 13 -40 8 -19 16 -41 17 -50 2 -8 9 -25 15 -38 7 -12
10 -22 7 -22 -3 0 1 -13 10 -30 9 -16 13 -30 10 -30 -3 0 2 -8 12 -18 16 -17
61 -22 118 -13 6 1 35 25 66 54 31 28 94 86 139 127 46 41 94 84 106 95 21 19
95 85 183 164 19 17 39 31 44 31 6 0 7 3 4 6 -4 4 8 18 26 33 18 14 47 40 65
56 84 76 121 110 175 158 32 29 76 69 99 90 22 20 45 37 50 37 5 0 6 4 3 10
-3 5 -2 10 4 10 10 0 111 90 150 133 8 9 19 17 24 17 5 0 20 14 34 30 13 17
29 28 33 25 5 -3 11 3 15 14 3 10 17 27 32 37 14 11 46 38 70 61 25 24 48 43
53 43 4 0 10 7 14 15 3 8 13 15 22 15 10 0 14 3 11 6 -4 4 3 16 16 26 24 22
133 119 210 188 27 25 63 57 80 73 17 15 34 27 39 27 4 0 8 7 8 15 0 8 4 15 8
15 4 0 26 16 48 35 21 20 68 61 103 93 35 31 79 71 97 87 18 17 65 59 106 95
40 36 85 77 101 93 16 15 30 27 32 27 2 0 32 27 67 61 35 34 75 68 89 78 14 9
27 19 27 24 1 4 19 22 39 40 21 17 45 40 54 49 9 10 20 18 23 18 12 0 35 27
29 34 -4 3 0 6 7 6 7 0 26 14 42 30 15 17 33 30 38 30 6 0 10 7 10 15 0 8 5
15 11 15 6 0 23 12 39 27 15 16 60 57 101 93 40 36 93 84 118 108 24 23 51 42
58 42 7 0 12 4 11 8 -3 9 12 24 112 112 34 30 79 71 100 90 34 31 68 62 205
185 19 17 64 57 100 90 37 33 90 80 118 105 28 25 74 68 104 96 29 28 53 49
53 45 0 -3 11 6 24 22 13 15 28 27 35 27 6 0 11 7 11 15 0 8 4 15 8 15 4 0 24
15 44 33 193 175 204 183 238 207 64 44 431 380 415 380 -2 0 21 26 53 58 31
32 75 80 97 107 22 27 47 56 55 65 31 33 90 114 90 122 0 5 5 6 10 3 6 -3 10
0 10 8 0 8 7 17 15 21 8 3 15 10 15 16 0 9 39 67 78 115 4 6 28 40 52 78 24
37 48 67 53 67 4 0 6 3 3 8 -2 4 13 34 35 66 21 32 39 59 39 61 0 3 92 167
110 195 5 8 19 35 31 60 13 25 27 48 31 51 5 3 10 16 11 27 1 12 5 22 10 22 4
0 6 4 2 9 -3 5 -2 12 3 15 18 11 0 67 -27 84 -14 9 -28 19 -31 23 -5 6 -24 13
-245 89 -66 23 -127 44 -135 47 -8 4 -18 5 -22 5 -5 -1 -8 2 -8 6 0 5 -6 9
-14 9 -14 0 -146 39 -181 53 -27 12 -98 34 -110 36 -5 0 -19 4 -30 8 -45 17
-51 19 -63 22 -8 1 -21 6 -30 10 -9 4 -21 8 -27 10 -77 19 -111 30 -116 37 -3
5 -9 8 -13 7 -5 -2 -38 7 -56 14 -3 2 -18 6 -35 10 -16 4 -37 10 -45 13 -8 4
-17 7 -20 8 -20 6 -96 29 -102 31 -5 1 -10 3 -13 4 -3 1 -9 4 -15 5 -5 1 -11
3 -12 5 -2 1 -10 3 -18 5 -8 2 -34 10 -57 19 -24 8 -43 13 -43 10 0 -2 -14 3
-31 12 -17 9 -43 18 -57 20 -15 3 -32 10 -39 16 -7 6 -13 7 -13 4 0 -4 -9 -2
-21 4 -19 11 -30 14 -84 25 -20 4 -23 1 -77 -95 -27 -47 -119 -174 -130 -178
-4 -2 -8 -10 -8 -18 0 -8 -7 -14 -16 -14 -8 0 -12 -4 -9 -10 3 -5 1 -10 -4
-10 -6 0 -11 -4 -11 -10 0 -23 -248 -270 -271 -270 -6 0 -7 -4 -4 -10 3 -5 1
-10 -5 -10 -6 0 -21 -9 -33 -21 -12 -12 -33 -28 -47 -37 -14 -9 -29 -22 -33
-29 -4 -7 -14 -13 -21 -13 -8 0 -19 -6 -25 -14 -6 -7 -51 -37 -99 -67 -48 -29
-90 -57 -93 -62 -3 -5 -9 -8 -13 -7 -4 1 -48 -19 -99 -44 -81 -39 -147 -68
-154 -67 -2 0 -28 -11 -59 -25 -31 -14 -59 -23 -62 -20 -2 3 -14 0 -26 -6 -11
-7 -24 -11 -28 -10 -5 1 -8 -2 -8 -7 0 -5 -9 -7 -20 -4 -12 3 -20 0 -20 -6 0
-7 -3 -10 -8 -7 -4 2 -32 -2 -62 -10 -30 -8 -66 -17 -80 -19 -14 -3 -36 -7
-50 -10 -84 -17 -176 -28 -262 -29 -32 -1 -58 -3 -58 -6 0 -7 -153 -4 -255 5
-44 4 -95 7 -112 8 -18 1 -33 4 -33 7 0 3 -12 6 -27 5 -16 -1 -41 3 -58 8 -16
4 -39 10 -50 11 -11 2 -31 7 -45 10 -14 4 -36 8 -50 10 -14 2 -37 8 -51 14
-15 6 -43 14 -63 17 -20 4 -39 11 -42 16 -3 5 -13 9 -23 9 -16 0 -100 31 -181
67 -58 25 -165 78 -170 83 -3 3 -18 12 -35 20 -16 8 -56 31 -87 52 -31 21 -59
38 -62 38 -3 0 -14 6 -23 14 -100 80 -134 106 -138 106 -3 0 -24 18 -46 40
-22 22 -43 40 -46 40 -7 0 -137 134 -188 194 -22 26 -55 64 -72 84 -18 20 -33
42 -33 49 0 6 -3 13 -8 15 -21 9 -174 252 -165 262 4 3 1 6 -6 6 -7 0 -9 5 -6
10 3 6 1 10 -4 10 -6 0 -11 7 -11 15 0 8 -5 15 -12 15 -6 0 -9 3 -5 6 3 3 -3
22 -13 42 -10 21 -26 55 -35 77 -9 22 -21 49 -27 60 -5 12 -10 27 -12 35 -2 8
-9 29 -15 45 -7 17 -14 37 -16 45 -2 8 -4 15 -5 15 -3 0 -12 39 -13 58 -1 9
-4 17 -7 17 -4 0 -7 6 -8 13 0 6 -8 39 -17 72 -8 33 -17 74 -20 90 -2 17 -6
44 -9 60 -5 33 -13 93 -23 170 -8 65 -7 321 1 405 11 117 16 150 41 275 5 22
8 43 7 48 -1 4 2 7 6 7 4 0 9 9 10 20 1 11 3 29 4 40 1 11 6 20 11 20 4 0 5 5
2 10 -4 6 -1 17 5 25 6 8 9 19 5 25 -3 5 -1 10 5 10 6 0 9 4 6 8 -3 5 1 21 9
36 8 15 14 30 13 34 -1 4 8 27 19 52 11 25 24 56 28 70 4 14 21 49 36 77 16
29 25 53 21 53 -4 0 -2 4 3 8 6 4 19 25 30 47 10 22 28 53 38 68 20 30 18 39
-11 42 -9 1 -25 6 -35 10 -10 4 -26 9 -35 10 -50 5 -103 19 -108 26 -3 5 -10
7 -15 3 -5 -3 -25 0 -43 6 -19 6 -45 13 -58 15 -26 5 -39 8 -128 30 -35 9 -74
18 -85 20 -11 2 -20 4 -20 5 0 2 -30 9 -65 15 -14 2 -40 8 -58 14 -18 5 -35
10 -37 10 -3 1 -6 1 -7 2 -2 0 -10 2 -18 4 -8 1 -51 11 -95 20 -44 10 -87 19
-95 20 -8 1 -22 5 -30 9 -8 3 -31 8 -50 10 -19 3 -35 5 -35 6 0 2 -39 11 -60
13 -11 2 -26 6 -33 11 -7 4 -16 6 -19 3 -3 -3 -15 -2 -27 3 -20 7 -51 14 -121
25 -11 2 -54 11 -95 19 -89 19 -115 24 -225 40 -16 3 -30 5 -30 6 0 6 -133 6
-150 1z"/>
</g>
</svg>
