<svg width="25" height="25" viewBox="0 0 25 25" fill="none" xmlns="http://www.w3.org/2000/svg">
<path d="M10.7917 21.5833H13.875V18.5H10.7917V21.5833ZM12.3333 24.6667C5.53458 24.6667 0 19.1321 0 12.3333C0 5.53458 5.53458 0 12.3333 0C19.1321 0 24.6667 5.53458 24.6667 12.3333C24.6667 19.1321 19.1321 24.6667 12.3333 24.6667ZM12.3333 3.08333C8.92625 3.08333 6.16667 5.84292 6.16667 9.25H9.25C9.25 7.55417 10.6375 6.16667 12.3333 6.16667C14.0292 6.16667 15.4167 7.55417 15.4167 9.25C15.4167 12.3333 10.7917 11.9479 10.7917 16.9583H13.875C13.875 13.4896 18.5 13.1042 18.5 9.25C18.5 5.84292 15.7404 3.08333 12.3333 3.08333Z" fill="#EC6E1E" fill-opacity="0.9"/>
</svg>
