<svg width="21" height="21" fill="none" xmlns="http://www.w3.org/2000/svg"><path d="M17.925 13.076a10.524 10.524 0 00-3.99-2.41c1.59-1.056 2.635-2.822 2.635-4.819C16.57 2.623 13.847 0 10.5 0 7.153 0 4.43 2.623 4.43 5.847c0 1.997 1.045 3.763 2.635 4.818a10.525 10.525 0 00-3.99 2.411C1.092 14.986 0 17.526 0 20.228h1.64c0-4.706 3.975-8.534 8.86-8.534s8.86 3.828 8.86 8.534H21c0-2.702-1.092-5.242-3.075-7.152zM10.5 10.114c-2.443 0-4.43-1.914-4.43-4.267 0-2.353 1.987-4.267 4.43-4.267 2.443 0 4.43 1.914 4.43 4.267 0 2.353-1.987 4.267-4.43 4.267z" fill="#fff"/></svg>