<svg width="21" height="21" viewBox="0 0 21 21" fill="none" xmlns="http://www.w3.org/2000/svg">
<path d="M17.9246 13.0761C16.781 11.9745 15.4198 11.1591 13.9346 10.6654C15.5253 9.61016 16.5703 7.84407 16.5703 5.84706C16.5703 2.623 13.8472 0 10.5 0C7.15284 0 4.42969 2.623 4.42969 5.84706C4.42969 7.84407 5.47472 9.61016 7.06543 10.6654C5.58026 11.1591 4.21903 11.9745 3.07539 13.0761C1.09221 14.9864 0 17.5262 0 20.2277H1.64062C1.64062 15.5222 5.61492 11.6941 10.5 11.6941C15.3851 11.6941 19.3594 15.5222 19.3594 20.2277H21C21 17.5262 19.9078 14.9864 17.9246 13.0761ZM10.5 10.1138C8.05748 10.1138 6.07031 8.19979 6.07031 5.84706C6.07031 3.49433 8.05748 1.58029 10.5 1.58029C12.9425 1.58029 14.9297 3.49433 14.9297 5.84706C14.9297 8.19979 12.9425 10.1138 10.5 10.1138Z" fill="white"/>
</svg>
