<svg width="23" height="22" fill="none" xmlns="http://www.w3.org/2000/svg"><g clip-path="url(#clip0)"><path d="M21.703 20.038l-5.433-5.445a8.664 8.664 0 002.163-5.71C18.433 3.984 14.298 0 9.216 0 4.134 0 0 3.985 0 8.882c0 4.898 4.134 8.883 9.216 8.883a9.355 9.355 0 005.28-1.607l5.474 5.487c.23.229.537.355.867.355.312 0 .608-.115.833-.323a1.13 1.13 0 00.033-1.639zM9.216 2.319c3.757 0 6.812 2.944 6.812 6.564s-3.055 6.566-6.812 6.566c-3.756 0-6.812-2.945-6.812-6.566 0-3.62 3.056-6.565 6.812-6.565z" fill="#B2B2B2"/></g><defs><clipPath id="clip0"><path fill="#fff" d="M0 0h22.827v22H0z"/></clipPath></defs></svg>