<svg width="23" height="22" viewBox="0 0 23 22" fill="none" xmlns="http://www.w3.org/2000/svg">
<g clip-path="url(#clip0)">
<path d="M21.7031 20.0385L16.2703 14.5928C17.6671 12.9924 18.4325 10.9788 18.4325 8.88249C18.4325 3.98476 14.298 0 9.21624 0C4.13449 0 0 3.98476 0 8.88249C0 13.7802 4.13449 17.765 9.21624 17.765C11.124 17.765 12.942 17.2104 14.4963 16.1576L19.9704 21.6447C20.1992 21.8737 20.5069 22 20.8367 22C21.1489 22 21.445 21.8853 21.6698 21.6768C22.1474 21.2338 22.1627 20.4992 21.7031 20.0385ZM9.21624 2.31717C12.9725 2.31717 16.0282 5.2623 16.0282 8.88249C16.0282 12.5027 12.9725 15.4478 9.21624 15.4478C5.46002 15.4478 2.40424 12.5027 2.40424 8.88249C2.40424 5.2623 5.46002 2.31717 9.21624 2.31717Z" fill="#B2B2B2"/>
</g>
<defs>
<clipPath id="clip0">
<rect width="22.8266" height="22" fill="white"/>
</clipPath>
</defs>
</svg>
