<svg width="27" height="26" viewBox="0 0 27 26" fill="none" xmlns="http://www.w3.org/2000/svg">
<path d="M22.9655 8.66675H3.92097M6.36084 22.7501H20.5256C22.1825 22.7501 23.5256 21.4069 23.5256 19.7501V8.41675C23.5256 6.75989 22.1825 5.41675 20.5256 5.41675H6.36084C4.70399 5.41675 3.36084 6.75989 3.36084 8.41675V19.7501C3.36084 21.4069 4.70398 22.7501 6.36084 22.7501Z" stroke="white" stroke-width="1.8" stroke-linecap="round"/>
<path d="M8.40198 5.41675V2.97925" stroke="white" stroke-width="1.8" stroke-linecap="round" stroke-linejoin="round"/>
<path d="M18.4844 5.41675V2.97925" stroke="white" stroke-width="1.8" stroke-linecap="round" stroke-linejoin="round"/>
<path d="M9.24217 18.9583H7.56177M9.24217 15.7083H7.56177M9.24217 12.4583H7.56177M14.2834 18.9583H12.603M14.2834 15.7083H12.603M14.2834 12.4583H12.603M19.3246 18.9583H17.6442M19.3246 15.7083H17.6442M19.3246 12.4583H17.6442" stroke="white" stroke-width="1.8" stroke-linecap="round"/>
</svg>
