<svg width="27" height="26" fill="none" xmlns="http://www.w3.org/2000/svg"><path d="M22.965 8.667H3.921m2.44 14.083h14.165a3 3 0 003-3V8.417a3 3 0 00-3-3H6.36a3 3 0 00-3 3V19.75a3 3 0 003 3z" stroke="#fff" stroke-width="1.8" stroke-linecap="round"/><path d="M8.402 5.417V2.979m10.082 2.438V2.979" stroke="#fff" stroke-width="1.8" stroke-linecap="round" stroke-linejoin="round"/><path d="M9.242 18.958h-1.68m1.68-3.25h-1.68m1.68-3.25h-1.68m6.721 6.5h-1.68m1.68-3.25h-1.68m1.68-3.25h-1.68m6.722 6.5h-1.68m1.68-3.25h-1.68m1.68-3.25h-1.68" stroke="#fff" stroke-width="1.8" stroke-linecap="round"/></svg>