<svg width="32" height="16" fill="none" xmlns="http://www.w3.org/2000/svg"><g clip-path="url(#clip0)" fill-rule="evenodd" clip-rule="evenodd" fill="#429F3A"><path d="M20.667 14a1.333 1.333 0 112.666 0 1.333 1.333 0 01-2.666 0zM28 14a1.333 1.333 0 112.667 0A1.333 1.333 0 0128 14zM16 .667c0-.369.299-.667.667-.667h2.666c.318 0 .592.224.654.536l.56 2.797h10.786a.667.667 0 01.655.792l-1.067 5.598a2 2 0 01-1.993 1.61h-6.469a2 2 0 01-1.993-1.61L19.352 4.16a.69.69 0 01-.01-.056l-.555-2.77h-2.12A.667.667 0 0116 .667zm4.814 4l.96 4.796a.667.667 0 00.667.537h6.505a.667.667 0 00.666-.534l.916-4.8h-9.714z"/></g><path d="M6 3v5m0 5V8m0 0h5M6 8H1" stroke="#429F3A" stroke-width="1.5" stroke-linecap="round" stroke-linejoin="round"/><defs><clipPath id="clip0"><path fill="#fff" transform="translate(16)" d="M0 0h16v16H0z"/></clipPath></defs></svg>