<svg width="28" height="28" viewBox="0 0 28 28" fill="none" xmlns="http://www.w3.org/2000/svg">
<g clip-path="url(#clip0)">
<path d="M24.6745 10.6169C25.2705 9.44509 24.7395 8.56012 24.4027 8.28081C23.634 7.50637 22.7062 7.11804 21.6451 7.12645C21.5614 7.12702 21.4778 7.13811 21.3942 7.14393C21.4823 7.03483 21.5662 6.92618 21.6441 6.81782C22.2038 6.03521 22.3975 5.27805 22.2197 4.56746C21.9474 3.47999 20.8939 2.94703 20.849 2.92468L20.8281 2.91511C19.0042 2.14044 17.4553 3.81404 17.3902 3.88583L17.3342 3.96477C17.3128 4.0045 17.2937 4.04996 17.2729 4.09086C16.9192 3.22176 16.2886 2.59901 15.3964 2.24123C15.1817 2.12952 13.8258 1.48873 12.5804 2.46C12.4264 2.58056 12.2936 2.72321 12.1714 2.87488C11.7443 2.84015 11.2871 2.89402 10.8715 3.13892C10.3068 3.47224 10.0107 4.06489 10.079 4.72496C10.1516 5.42664 10.6311 6.02582 11.3003 6.25218C11.9127 6.45906 12.6868 6.91285 13.5093 7.86171C13.1397 7.90826 12.7946 8.01598 12.485 8.20091C10.6382 9.30115 5.03161 22.3151 4.36825 26.3142C4.31245 26.6515 4.43789 26.968 4.69632 27.1415C4.86778 27.2564 5.07595 27.2938 5.2824 27.2533C5.38677 27.2329 5.49055 27.1927 5.5888 27.1326C9.07848 24.9958 19.1069 14.9383 19.4267 12.8525C19.4702 12.5675 19.461 12.2796 19.4082 11.9917C20.5826 12.3051 21.2491 12.7034 21.6241 13.0499C22.1702 13.5548 22.9362 13.7828 23.629 13.647L23.6511 13.6427C24.2273 13.5228 24.6878 13.1582 24.9157 12.6421C25.2538 11.874 24.9438 11.1773 24.5996 10.7493C24.6252 10.7047 24.6522 10.661 24.6745 10.6169ZM23.8597 8.86153C23.9156 8.91088 24.3831 9.35918 23.9981 10.189C23.9778 10.1727 23.9571 10.1586 23.9366 10.1429C23.9017 10.1157 23.867 10.0897 23.8317 10.0634C23.7417 9.99561 23.6519 9.93103 23.5617 9.86999C23.534 9.85099 23.5064 9.83217 23.4789 9.81405C22.0212 8.85903 20.5528 8.75632 19.2872 9.00434C18.8384 9.09229 18.4148 9.22431 18.0262 9.37681C18.0659 9.34882 18.1071 9.32051 18.1474 9.29276C18.2035 9.25388 18.2596 9.21481 18.3173 9.176C18.3793 9.13433 18.4424 9.09337 18.5065 9.05237C18.5599 9.01804 18.6151 8.98427 18.6697 8.95043C18.7705 8.88858 18.8729 8.82768 18.9779 8.7683C19.0432 8.7311 19.1086 8.69403 19.1752 8.65876C19.2395 8.62428 19.3052 8.59083 19.3705 8.55762C19.4434 8.52111 19.5168 8.48614 19.5908 8.45177C19.6633 8.41806 19.7365 8.38477 19.8102 8.35338C19.9136 8.30925 20.018 8.26765 20.1232 8.22917C20.18 8.20839 20.2371 8.18901 20.2942 8.17015C20.7416 8.02089 21.1997 7.92511 21.6523 7.92096C22.5019 7.91427 23.2164 8.21502 23.8597 8.86153ZM18.0115 4.38633C18.2088 4.18696 19.3148 3.14716 20.5022 3.64058C20.5835 3.68406 21.2759 4.07568 21.4471 4.76096C21.5657 5.23535 21.414 5.77271 20.9957 6.3576C20.7507 6.70025 20.4398 7.05253 20.0712 7.40519C20.0206 7.42204 19.9711 7.44267 19.9207 7.46074C19.8145 7.49851 19.7085 7.53622 19.6044 7.57848C19.5322 7.60813 19.4623 7.64006 19.3912 7.67128C19.3095 7.70752 19.2279 7.74338 19.148 7.78218C19.0733 7.81778 19.0001 7.85471 18.9273 7.89249C18.8539 7.93037 18.7813 7.96847 18.7095 8.00768C18.6351 8.04851 18.5616 8.08933 18.4891 8.13143C18.4238 8.16937 18.3602 8.2077 18.2968 8.24635C18.222 8.2918 18.1474 8.33687 18.0748 8.38335C18.0257 8.41482 17.9788 8.44662 17.9308 8.47844C17.6185 8.68486 17.331 8.89389 17.0759 9.09348C17.0724 9.09617 17.0681 9.09956 17.0646 9.10225C17.2174 8.61258 17.3664 8.03821 17.4694 7.43002C17.4759 7.39195 17.4836 7.35473 17.4894 7.31641C17.5064 7.20831 17.5198 7.09872 17.5336 6.98888C17.541 6.92911 17.5496 6.86948 17.5556 6.80928C17.5665 6.70547 17.5734 6.60189 17.5805 6.49719C17.585 6.43088 17.5898 6.36472 17.5927 6.29819C17.5969 6.19587 17.5981 6.0936 17.5983 5.99116C17.5983 5.92319 17.5981 5.85564 17.596 5.78752C17.5932 5.68657 17.5874 5.58604 17.5795 5.48609C17.5767 5.45094 17.5773 5.41566 17.5741 5.38075C17.7107 5.01105 17.8544 4.68424 18.0115 4.38633ZM13.0843 3.07553C13.9839 2.38576 14.9912 2.92524 15.0319 2.94768C15.048 2.95674 15.0641 2.96451 15.0808 2.97127C15.7887 3.25054 16.2665 3.71903 16.5411 4.403C16.6584 4.69487 16.7291 5.01118 16.7688 5.33941L16.7728 5.37505C16.8424 5.99879 16.7908 6.6658 16.6832 7.29748C16.626 6.92058 16.5326 6.53911 16.3933 6.16408C16.389 6.15235 16.384 6.14111 16.3798 6.12991C16.3489 6.04886 16.3164 5.96833 16.2812 5.88776C16.2597 5.83859 16.2364 5.78976 16.213 5.74132C16.1939 5.70134 16.1746 5.66102 16.1539 5.62135C16.1203 5.55559 16.0851 5.49034 16.0481 5.42562C16.0382 5.40805 16.0275 5.39047 16.0171 5.37301C15.7188 4.86534 15.3107 4.39083 14.7622 3.98029C14.7471 3.96905 14.7318 3.95764 14.7167 3.9464C14.6386 3.88918 14.5589 3.83319 14.4752 3.77908C14.4347 3.75275 14.3919 3.72707 14.3499 3.7014C14.2859 3.66201 14.2229 3.62225 14.1555 3.58481C14.0326 3.51542 13.9054 3.44815 13.7714 3.38402C13.7706 3.38345 13.7673 3.38172 13.7659 3.38109C13.7294 3.35999 13.6496 3.31698 13.537 3.26287C13.5362 3.26266 13.5357 3.26203 13.5347 3.26167C13.4202 3.20686 13.2724 3.14307 13.0998 3.08197C13.094 3.07928 13.0896 3.07741 13.0843 3.07553ZM11.5571 5.49961C11.1815 5.37277 10.9125 5.03628 10.8715 4.64235C10.8548 4.47764 10.8601 4.06826 11.2767 3.8228C11.3943 3.75311 11.5206 3.70867 11.6509 3.68315C11.858 3.64256 12.0749 3.65179 12.2842 3.68566C12.2842 3.68566 12.285 3.68588 12.2854 3.68581C12.2909 3.68674 12.2961 3.68809 12.3015 3.68902C12.3737 3.70129 12.4451 3.71555 12.5143 3.73314C12.5486 3.74192 12.5808 3.75181 12.6143 3.76093C12.6702 3.77711 12.7258 3.79374 12.778 3.81138C12.7986 3.81829 12.8189 3.82523 12.8386 3.83231C13.0727 3.91726 13.2587 4.01018 13.3505 4.05906C13.3683 4.06887 13.3793 4.07529 13.3814 4.07596C13.392 4.08245 13.403 4.08796 13.4141 4.09343C13.6093 4.186 13.792 4.28814 13.9648 4.39768C14.014 4.42884 14.056 4.46307 14.1029 4.49525C14.2223 4.57697 14.3395 4.6608 14.4478 4.75091C14.4952 4.79062 14.5375 4.83208 14.582 4.87273C14.6828 4.96467 14.78 5.05969 14.87 5.15977C14.9053 5.19913 14.9394 5.23891 14.9725 5.2789C15.0724 5.3998 15.1665 5.5255 15.2512 5.6574C15.2645 5.67775 15.2791 5.69804 15.292 5.71863C15.71 6.39582 15.9353 7.21336 15.9617 8.16845C15.9799 8.83032 15.8968 9.45065 15.798 9.93702C15.6856 9.71306 15.5717 9.50306 15.458 9.29993C15.4393 9.26606 15.4199 9.2338 15.4009 9.20035C15.2956 9.01563 15.1896 8.83943 15.084 8.67154C15.066 8.64317 15.0484 8.61418 15.0303 8.58585C13.7733 6.6285 12.5021 5.81859 11.5571 5.49961ZM18.6395 12.7329C18.5431 13.3584 17.3238 14.9198 15.6321 16.7843C15.5962 16.7773 15.5605 16.7684 15.5216 16.7717C14.8696 16.8269 13.9785 16.6601 13.4571 16.1624C13.2984 16.0106 13.0454 16.017 12.8939 16.1753C12.7414 16.3338 12.747 16.5853 12.9062 16.737C13.4597 17.2647 14.239 17.4981 14.9188 17.5584C13.8519 18.7002 12.6525 19.9163 11.4499 21.0807C11.3815 21.0411 11.3046 21.0153 11.22 21.0222C10.8107 21.0571 10.2533 20.9546 9.93134 20.6478C9.77263 20.4963 9.52076 20.5017 9.36812 20.661C9.21605 20.8195 9.22147 21.071 9.38078 21.2227C9.74716 21.5722 10.2483 21.7391 10.7037 21.7967C8.48798 23.9 6.36276 25.7271 5.17285 26.4556C5.16502 26.4604 5.15758 26.4644 5.15222 26.4678C5.1525 26.4608 5.15327 26.4527 5.15475 26.4435C5.30488 25.5383 5.66822 24.2869 6.1587 22.8692C6.1755 22.8803 6.18784 22.8958 6.20658 22.9047C6.52757 23.0551 6.86085 23.1751 7.19658 23.2609C7.25602 23.2761 7.31601 23.2772 7.37268 23.2661C7.51841 23.2376 7.6423 23.1284 7.68213 22.9754C7.73709 22.7625 7.60913 22.546 7.39621 22.4919C7.10816 22.418 6.82224 22.315 6.546 22.1858C6.50255 22.1655 6.45722 22.1571 6.41208 22.1534C7.0284 20.449 7.79882 18.5583 8.59893 16.7462C8.82351 17.1033 9.14589 17.4455 9.56227 17.6314C9.64022 17.6664 9.72322 17.674 9.80154 17.6587C9.92421 17.6346 10.0337 17.5538 10.0889 17.4313C10.1788 17.2311 10.0893 16.9961 9.88859 16.9064C9.48162 16.7247 9.17657 16.2489 9.05442 15.8578C9.04776 15.836 9.03274 15.8199 9.02281 15.8C9.65075 14.4179 10.281 13.1167 10.8558 12.02C11.1682 12.6256 11.68 13.2591 12.3805 13.5714C12.4584 13.6062 12.5414 13.614 12.6195 13.5987C12.7424 13.5746 12.8522 13.4935 12.907 13.371C12.9968 13.1707 12.9075 12.936 12.7068 12.8463C12.0475 12.5521 11.5561 11.7925 11.3617 11.1706C11.3565 11.1542 11.3446 11.1423 11.3376 11.1271C12.0131 9.9109 12.5733 9.07481 12.8948 8.88298C13.0731 8.77681 13.2649 8.70368 13.4724 8.66302C13.6686 8.62456 13.8795 8.61512 14.1067 8.63474C14.3545 8.98832 14.5942 9.37848 14.8251 9.7986C14.8402 9.82607 14.8551 9.85302 14.8699 9.88092C14.9662 10.0587 15.0603 10.2434 15.1534 10.432C15.1743 10.4745 15.1951 10.5145 15.2162 10.5578C15.3243 10.7822 15.4307 11.0126 15.534 11.2513C15.5407 11.2671 15.5516 11.2799 15.5604 11.2948C15.5688 11.3088 15.5758 11.3242 15.586 11.3371C15.5888 11.341 15.5913 11.345 15.5945 11.3488C15.6034 11.3596 15.6148 11.367 15.6246 11.3764C15.6271 11.3788 15.6296 11.3811 15.6326 11.3834C15.6439 11.3938 15.6539 11.4055 15.6663 11.4145C15.669 11.4164 15.6711 11.4187 15.6739 11.4207L15.6742 11.4206C15.6757 11.4214 15.6771 11.4221 15.6783 11.4226C15.6913 11.4315 15.7063 11.4369 15.7207 11.4443C15.724 11.446 15.727 11.4474 15.7303 11.4493C15.742 11.4551 15.7528 11.4626 15.765 11.4671C15.7698 11.4691 15.7749 11.4698 15.7801 11.4711C15.79 11.4744 15.8004 11.4761 15.8107 11.4784C15.8205 11.4805 15.8295 11.4811 15.8392 11.4828C15.8522 11.4849 15.8642 11.4898 15.8773 11.4905C16.1132 11.5033 16.3431 11.5193 16.5684 11.5378C16.6195 11.542 16.6673 11.5472 16.7173 11.5517C16.894 11.5671 17.0687 11.5839 17.2384 11.603C17.2819 11.6077 17.3231 11.613 17.366 11.6184C17.5431 11.6396 17.7171 11.662 17.8855 11.687C17.9147 11.6913 17.9436 11.6954 17.9725 11.6998C18.1662 11.7295 18.355 11.7608 18.5367 11.7953C18.5372 11.7952 18.5375 11.7955 18.538 11.7954C18.6534 12.1145 18.6871 12.4227 18.6395 12.7329ZM24.186 12.3225C24.027 12.6835 23.7194 12.8166 23.4892 12.8641C23.4845 12.865 23.4799 12.8659 23.4752 12.8669C23.0285 12.9544 22.5279 12.8016 22.1653 12.4663C21.4793 11.8327 20.3849 11.3644 18.9103 11.0608C18.9079 11.0602 18.9058 11.0581 18.9028 11.0576C18.8864 11.0542 18.8687 11.0517 18.8523 11.0483C18.7243 11.0224 18.591 10.9988 18.4569 10.9757C18.341 10.9554 18.2236 10.936 18.1033 10.9174C17.9813 10.8989 17.8583 10.8805 17.7311 10.8637C17.557 10.8405 17.3772 10.8203 17.1952 10.8009C17.1269 10.7936 17.0642 10.7842 16.9947 10.7774C17.0239 10.7587 17.0575 10.7396 17.0878 10.7207C17.0989 10.7152 17.1116 10.7156 17.1221 10.7096C18.2549 10.027 20.2574 9.18901 22.312 10.0863C22.4182 10.1329 22.5247 10.1898 22.6312 10.2462C22.6823 10.273 22.7333 10.2947 22.7844 10.3239C23.109 10.5099 23.4345 10.7429 23.7572 11.0288L23.8197 11.0851C23.8217 11.0867 23.8242 11.0871 23.8256 11.0888C23.9942 11.244 24.4446 11.7361 24.186 12.3225Z" fill="#429F3A"/>
<path d="M16.4946 12.0575C15.6352 11.9104 14.7859 11.5094 13.971 10.8657C13.7984 10.7295 13.5481 10.7589 13.4113 10.9309C13.2746 11.1029 13.3036 11.3527 13.4761 11.4889C14.3965 12.2158 15.3666 12.6709 16.3591 12.841C16.4082 12.8492 16.4568 12.8484 16.5033 12.8393C16.6608 12.8085 16.7902 12.6836 16.8196 12.5164C16.8568 12.3003 16.7114 12.0948 16.4946 12.0575Z" fill="#429F3A"/>
</g>
<defs>
<clipPath id="clip0">
<rect width="23.4373" height="23.4373" fill="white" transform="translate(0 4.50732) rotate(-11.0877)"/>
</clipPath>
</defs>
</svg>
