<svg width="31" height="31" viewBox="0 0 31 31" fill="none" xmlns="http://www.w3.org/2000/svg">
<path d="M31 0H0V31H31V0Z" fill="white"/>
<path d="M0 4.95996V6.19996H17.4181C17.6652 6.19996 17.98 6.5148 17.98 6.76184V23.56H11.7219C11.4264 21.8017 9.8982 20.46 8.06 20.46C6.2218 20.46 4.69359 21.8017 4.39813 23.56H1.86C1.51609 23.56 1.24 23.2839 1.24 22.94V17.36H0V22.94C0 23.9596 0.840391 24.8 1.86 24.8H4.39813C4.69359 26.5582 6.2218 27.9 8.06 27.9C9.8982 27.9 11.4264 26.5582 11.7219 24.8H21.1381C21.4336 26.5582 22.9618 27.9 24.8 27.9C26.6382 27.9 28.1664 26.5582 28.4619 24.8H29.14C29.6559 24.8 30.1087 24.5675 30.4381 24.2381C30.7675 23.9087 31 23.4558 31 22.94V16.9918C31 16.2943 30.7336 15.655 30.4963 15.1706C30.2589 14.6862 30.0119 14.3375 30.0119 14.3375V14.3181L27.4738 10.9081H27.4544V10.8887C26.9046 10.2009 26.023 9.29996 24.8 9.29996H19.84C19.6172 9.29996 19.4137 9.34113 19.22 9.41621V6.76184C19.22 5.76887 18.4111 4.95996 17.4181 4.95996H0ZM0 7.43996V8.67996H11.16V7.43996H0ZM0 9.91996V11.16H9.3V9.91996H0ZM19.84 10.54H22.32V16.12C22.32 16.6358 22.5525 17.0887 22.8819 17.4181C23.2113 17.7475 23.6641 17.98 24.18 17.98H29.76V22.94C29.76 23.0441 29.6825 23.2112 29.5469 23.3468C29.4113 23.4825 29.2441 23.56 29.14 23.56H28.4619C28.1664 21.8017 26.6382 20.46 24.8 20.46C22.9618 20.46 21.4336 21.8017 21.1381 23.56H19.22V11.16C19.22 11.0558 19.2975 10.8887 19.4331 10.7531C19.5688 10.6175 19.7359 10.54 19.84 10.54ZM23.56 10.54H24.8C25.311 10.54 26.023 11.1139 26.4662 11.6637L29.0044 15.0543L29.0238 15.0737C29.0359 15.0907 29.203 15.328 29.3919 15.7131C29.5493 16.0328 29.6316 16.413 29.6825 16.74H24.18C24.0759 16.74 23.9088 16.6625 23.7731 16.5268C23.6375 16.3912 23.56 16.2241 23.56 16.12V10.54ZM0 12.4V13.64H7.44V12.4H0ZM0 14.88V16.12H5.58V14.88H0ZM8.06 21.7C9.43805 21.7 10.54 22.8019 10.54 24.18C10.54 25.558 9.43805 26.66 8.06 26.66C6.68195 26.66 5.58 25.558 5.58 24.18C5.58 22.8019 6.68195 21.7 8.06 21.7ZM24.8 21.7C26.178 21.7 27.28 22.8019 27.28 24.18C27.28 25.558 26.178 26.66 24.8 26.66C23.422 26.66 22.32 25.558 22.32 24.18C22.32 22.8019 23.422 21.7 24.8 21.7Z" fill="#429F3A"/>
</svg>
