<svg width="28" height="28" fill="none" xmlns="http://www.w3.org/2000/svg"><g clip-path="url(#clip0)" fill="#429F3A"><path d="M24.674 10.617c.596-1.172.066-2.057-.271-2.336-.769-.775-1.697-1.163-2.758-1.155-.084.001-.167.012-.25.018a7.36 7.36 0 00.25-.326c.559-.783.753-1.54.575-2.25-.273-1.088-1.326-1.621-1.371-1.643l-.02-.01c-1.825-.775-3.374.899-3.439.97l-.056.08c-.021.04-.04.085-.061.126-.354-.87-.984-1.492-1.877-1.85-.214-.111-1.57-.752-2.816.219a2.55 2.55 0 00-.409.415c-.427-.035-.884.019-1.3.264-.564.333-.86.926-.792 1.586.073.702.552 1.3 1.221 1.527.613.207 1.387.66 2.21 1.61-.37.046-.715.154-1.025.339-1.847 1.1-7.453 14.114-8.117 18.113-.056.337.07.654.328.828.172.114.38.152.586.111a.93.93 0 00.307-.12c3.49-2.137 13.518-12.195 13.838-14.28a2.586 2.586 0 00-.019-.861c1.175.313 1.841.711 2.216 1.058.546.505 1.312.733 2.005.597l.022-.004a1.744 1.744 0 001.265-1c.338-.769.028-1.466-.316-1.894.025-.044.052-.088.074-.132zm-.814-1.755c.056.049.523.497.138 1.327l-.061-.046a6.562 6.562 0 00-.458-.329c-1.458-.955-2.926-1.058-4.192-.81a7.31 7.31 0 00-1.26.373l.12-.084c.056-.04.113-.078.17-.117a9.96 9.96 0 01.19-.124l.163-.102a10.021 10.021 0 01.7-.392 8.279 8.279 0 01.753-.329l.171-.059a4.45 4.45 0 011.358-.249c.85-.007 1.564.294 2.208.94zm-5.848-4.476c.197-.199 1.303-1.239 2.49-.745.082.043.774.435.945 1.12.119.474-.033 1.012-.451 1.597a7.56 7.56 0 01-.925 1.047c-.05.017-.1.038-.15.056a7.686 7.686 0 00-.317.117c-.072.03-.142.062-.213.093-.081.037-.163.072-.243.111a10.519 10.519 0 00-.851.464c-.075.046-.15.09-.222.137l-.144.095c-.313.207-.6.416-.855.615l-.011.01c.152-.49.301-1.065.404-1.673.007-.038.015-.075.02-.114.017-.108.03-.217.045-.327.007-.06.016-.12.022-.18.01-.104.017-.207.024-.312.005-.066.01-.132.013-.199a7.856 7.856 0 00-.014-.812c-.002-.035-.002-.07-.005-.105.137-.37.28-.697.438-.995zm-4.928-1.31c.9-.69 1.907-.15 1.948-.128a.312.312 0 00.049.023c.708.28 1.186.748 1.46 1.432a3.7 3.7 0 01.228.936l.004.036c.07.624.018 1.29-.09 1.922a5.717 5.717 0 00-.29-1.133l-.013-.034a5.474 5.474 0 00-.226-.509 4.735 4.735 0 00-.106-.195l-.03-.053a4.71 4.71 0 00-1.256-1.393c-.015-.01-.03-.022-.045-.034a5.009 5.009 0 00-.242-.167l-.125-.078c-.064-.039-.127-.079-.194-.116a6.388 6.388 0 00-.39-.204 3.728 3.728 0 00-.229-.118l-.002-.001a4.475 4.475 0 00-.45-.186zM11.557 5.5a1.018 1.018 0 01-.686-.858.825.825 0 01.406-.82c.117-.069.244-.113.374-.139a1.81 1.81 0 01.634.003c.006 0 .011.002.017.003.072.012.143.027.212.044l.1.028a3.936 3.936 0 01.225.071c.234.085.42.178.511.227l.031.017.033.017c.195.093.378.195.55.305.05.03.092.065.139.097.12.082.236.166.345.256.047.04.09.081.134.122a4.119 4.119 0 01.39.406c.1.12.194.247.28.378l.04.062c.418.677.643 1.494.67 2.45a7.913 7.913 0 01-.164 1.768 15.865 15.865 0 00-.34-.637l-.057-.1c-.105-.184-.211-.36-.317-.528l-.054-.086c-1.257-1.958-2.528-2.767-3.473-3.086zm7.083 7.233c-.097.625-1.316 2.187-3.008 4.051-.036-.007-.072-.016-.11-.012-.652.055-1.543-.112-2.065-.61a.4.4 0 00-.563.013.396.396 0 00.012.562c.554.528 1.333.761 2.013.821a100.778 100.778 0 01-3.47 3.523.392.392 0 00-.229-.059c-.41.035-.967-.067-1.289-.374a.399.399 0 00-.55.575c.366.35.867.516 1.323.574-2.216 2.103-4.341 3.93-5.531 4.659l-.02.012c0-.007 0-.015.002-.024.15-.906.513-2.157 1.004-3.575.017.011.029.027.048.036.32.15.654.27.99.356a.4.4 0 00.485-.286.396.396 0 00-.286-.483 4.868 4.868 0 01-.85-.306.386.386 0 00-.134-.033A87.212 87.212 0 018.6 16.746c.225.357.547.7.963.885a.398.398 0 00.527-.2c.09-.2 0-.435-.2-.525-.407-.181-.712-.657-.835-1.048-.006-.022-.021-.038-.031-.058a76.509 76.509 0 011.833-3.78c.312.606.824 1.24 1.524 1.551a.397.397 0 00.527-.2c.09-.2 0-.435-.2-.525-.66-.294-1.15-1.053-1.345-1.675-.005-.017-.017-.029-.024-.044.675-1.216 1.235-2.052 1.557-2.244.178-.106.37-.18.577-.22a2.27 2.27 0 01.635-.028c.248.353.487.743.718 1.164l.045.082c.096.178.19.362.283.551l.063.126c.108.224.215.455.318.693.007.016.018.029.026.044.009.014.016.03.026.042l.008.012.03.027a.093.093 0 00.009.007c.01.01.02.023.033.032l.008.006a.05.05 0 00.004.002c.013.008.028.014.043.021l.01.005c.011.006.022.014.034.018l.015.004.03.007.03.005c.012.002.024.007.037.008.236.012.466.028.691.047l.15.014c.176.015.35.032.52.051l.128.015c.177.022.351.044.52.069l.087.013c.193.03.382.06.564.095h.001c.115.32.15.628.102.938zm5.546-.41a.936.936 0 01-.697.541.693.693 0 00-.014.003c-.447.087-.947-.065-1.31-.4-.686-.634-1.78-1.103-3.255-1.406-.002 0-.004-.003-.007-.003l-.05-.01a17.888 17.888 0 00-1.657-.247c-.07-.007-.132-.017-.201-.024l.093-.056c.01-.006.024-.005.034-.011 1.133-.683 3.135-1.521 5.19-.624.106.047.213.104.32.16.05.027.101.049.152.078.325.186.65.419.973.705l.063.056.006.004c.168.155.619.647.36 1.233z"/><path d="M16.495 12.057c-.86-.147-1.71-.548-2.524-1.191a.4.4 0 00-.56.065.396.396 0 00.065.558c.92.727 1.89 1.182 2.883 1.352a.4.4 0 00.46-.325.398.398 0 00-.324-.459z"/></g><defs><clipPath id="clip0"><path fill="#fff" transform="rotate(-11.088 23.219 2.254)" d="M0 0h23.437v23.437H0z"/></clipPath></defs></svg>