<svg width="32" height="35" viewBox="0 0 32 35" fill="none" xmlns="http://www.w3.org/2000/svg">
<g clip-path="url(#clip0)">
<path fill-rule="evenodd" clip-rule="evenodd" d="M10.3585 27.7387C10.3583 26.6411 11.2479 25.7512 12.3455 25.751C13.4431 25.7508 14.333 26.6404 14.3332 27.738C14.3334 28.8355 13.4438 29.7255 12.3462 29.7257C11.2486 29.7259 10.3587 28.8363 10.3585 27.7387Z" fill="#4BB742"/>
<path fill-rule="evenodd" clip-rule="evenodd" d="M21.2889 27.7367C21.2887 26.6392 22.1783 25.7492 23.2759 25.749C24.3735 25.7488 25.2634 26.6384 25.2636 27.736C25.2638 28.8336 24.3742 29.7235 23.2766 29.7237C22.1791 29.7239 21.2891 28.8343 21.2889 27.7367Z" fill="#4BB742"/>
<path fill-rule="evenodd" clip-rule="evenodd" d="M3.39923 7.86659C3.39913 7.31781 3.84393 6.87284 4.39272 6.87274L8.36739 6.87202C8.841 6.87193 9.24885 7.20611 9.34188 7.67049L10.1772 11.84L26.2543 11.8371C26.5505 11.837 26.8312 11.9691 27.02 12.1972C27.2088 12.4254 27.286 12.7258 27.2306 13.0167L25.6409 21.3613C25.5047 22.0476 25.1315 22.6641 24.5866 23.1029C24.0444 23.5395 23.3665 23.7725 22.6707 23.7618L13.0294 23.7635C12.3336 23.7746 11.6557 23.5418 11.1134 23.1053C10.5685 22.6669 10.1952 22.0509 10.0586 21.365C10.0586 21.3647 10.0587 21.3653 10.0586 21.365L8.39713 13.0717C8.39039 13.0443 8.38479 13.0164 8.38038 12.9881L7.55326 8.8595L4.39308 8.86008C3.84429 8.86018 3.39933 8.41538 3.39923 7.86659ZM10.5753 13.8273L12.0076 20.9767C12.0531 21.2054 12.1776 21.4108 12.3593 21.557C12.541 21.7033 12.7683 21.7809 13.0014 21.7764L13.0205 21.7762L22.6789 21.7744L22.698 21.7746C22.9311 21.779 23.1584 21.7013 23.3401 21.555C23.5209 21.4095 23.645 21.2052 23.6909 20.9777L25.0536 13.8247L10.5753 13.8273Z" fill="#4BB742"/>
</g>
<g clip-path="url(#clip1)">
<path d="M26.8326 9.62828C27.1983 8.90935 26.8724 8.36641 26.6659 8.19506C26.1942 7.71993 25.625 7.48169 24.9741 7.48685C24.9227 7.4872 24.8714 7.494 24.8201 7.49757C24.8741 7.43064 24.9256 7.36398 24.9734 7.2975C25.3168 6.81736 25.4357 6.35284 25.3266 5.91689C25.1595 5.24971 24.5132 4.92274 24.4856 4.90902L24.4728 4.90315C23.3538 4.42789 22.4035 5.45466 22.3636 5.4987L22.3293 5.54713C22.3161 5.57151 22.3044 5.5994 22.2916 5.62449C22.0747 5.09129 21.6878 4.70922 21.1404 4.48972C21.0087 4.42119 20.1768 4.02805 19.4128 4.62394C19.3183 4.6979 19.2368 4.78542 19.1618 4.87847C18.8998 4.85717 18.6193 4.89021 18.3643 5.04046C18.0179 5.24496 17.8362 5.60855 17.8781 6.01351C17.9227 6.444 18.2168 6.8116 18.6274 6.95047C19.0031 7.0774 19.478 7.3558 19.9826 7.93794C19.7559 7.96649 19.5442 8.03258 19.3543 8.14604C18.2212 8.82105 14.7815 16.8052 14.3745 19.2587C14.3403 19.4657 14.4173 19.6598 14.5758 19.7663C14.681 19.8368 14.8087 19.8597 14.9354 19.8349C14.9994 19.8223 15.0631 19.7977 15.1233 19.7608C17.2643 18.4498 23.4168 12.2795 23.613 10.9998C23.6397 10.825 23.634 10.6484 23.6017 10.4717C24.3222 10.664 24.7311 10.9084 24.9611 11.121C25.2962 11.4307 25.7662 11.5706 26.1912 11.4873L26.2048 11.4846C26.5582 11.4111 26.8408 11.1874 26.9805 10.8708C27.188 10.3995 26.9978 9.97206 26.7866 9.7095C26.8023 9.68216 26.8189 9.65532 26.8326 9.62828ZM26.3327 8.55133C26.367 8.58161 26.6538 8.85665 26.4176 9.36573C26.4051 9.35577 26.3925 9.34708 26.3799 9.33746C26.3585 9.32076 26.3372 9.30481 26.3155 9.28871C26.2603 9.2471 26.2052 9.20748 26.1499 9.17003C26.1329 9.15838 26.116 9.14683 26.0991 9.13572C25.2048 8.5498 24.3039 8.48679 23.5274 8.63895C23.2521 8.69291 22.9922 8.7739 22.7538 8.86746C22.7781 8.85029 22.8034 8.83292 22.8281 8.8159C22.8626 8.79204 22.897 8.76808 22.9324 8.74427C22.9704 8.7187 23.0091 8.69357 23.0485 8.66842C23.0812 8.64735 23.1151 8.62664 23.1486 8.60588C23.2104 8.56793 23.2733 8.53057 23.3377 8.49414C23.3777 8.47131 23.4179 8.44857 23.4587 8.42693C23.4982 8.40578 23.5385 8.38526 23.5785 8.36489C23.6233 8.34248 23.6683 8.32103 23.7137 8.29994C23.7582 8.27926 23.8031 8.25884 23.8483 8.23958C23.9117 8.21251 23.9758 8.18698 24.0403 8.16338C24.0752 8.15063 24.1102 8.13873 24.1453 8.12717C24.4197 8.03559 24.7007 7.97683 24.9784 7.97429C25.4997 7.97018 25.938 8.1547 26.3327 8.55133ZM22.7448 5.80576C22.8658 5.68345 23.5444 5.04552 24.2729 5.34824C24.3227 5.37491 24.7475 5.61517 24.8526 6.0356C24.9253 6.32664 24.8323 6.65632 24.5756 7.01515C24.4253 7.22537 24.2346 7.4415 24.0084 7.65786C23.9774 7.66819 23.947 7.68085 23.9161 7.69194C23.8509 7.71511 23.7859 7.73824 23.7221 7.76417C23.6777 7.78236 23.6348 7.80195 23.5913 7.82111C23.5411 7.84334 23.4911 7.86534 23.442 7.88915C23.3962 7.91098 23.3513 7.93364 23.3066 7.95682C23.2616 7.98006 23.2171 8.00343 23.173 8.02749C23.1274 8.05254 23.0823 8.07759 23.0378 8.10341C22.9977 8.12669 22.9587 8.15021 22.9198 8.17392C22.874 8.2018 22.8281 8.22945 22.7836 8.25796C22.7535 8.27727 22.7247 8.29678 22.6952 8.31631C22.5037 8.44295 22.3273 8.57119 22.1708 8.69364C22.1686 8.69529 22.166 8.69737 22.1639 8.69902C22.2576 8.3986 22.349 8.04622 22.4122 7.67309C22.4162 7.64973 22.4209 7.6269 22.4245 7.60339C22.4349 7.53707 22.4431 7.46983 22.4516 7.40245C22.4562 7.36578 22.4614 7.32919 22.4651 7.29226C22.4718 7.22857 22.476 7.16502 22.4804 7.10079C22.4832 7.06011 22.4861 7.01952 22.4878 6.9787C22.4904 6.91593 22.4911 6.85319 22.4913 6.79033C22.4913 6.74863 22.4911 6.70719 22.4899 6.6654C22.4882 6.60347 22.4846 6.54179 22.4798 6.48047C22.478 6.45891 22.4784 6.43726 22.4764 6.41585C22.5602 6.18903 22.6484 5.98853 22.7448 5.80576ZM19.7219 5.00157C20.2738 4.57839 20.8918 4.90937 20.9168 4.92313C20.9266 4.9287 20.9365 4.93346 20.9468 4.93761C21.3811 5.10894 21.6742 5.39636 21.8427 5.81599C21.9146 5.99505 21.958 6.18911 21.9824 6.39048L21.9849 6.41235C22.0276 6.79502 21.9959 7.20423 21.9299 7.59177C21.8947 7.36054 21.8374 7.12651 21.752 6.89642C21.7493 6.88923 21.7463 6.88233 21.7437 6.87546C21.7248 6.82574 21.7048 6.77633 21.6832 6.7269C21.67 6.69673 21.6557 6.66678 21.6414 6.63706C21.6296 6.61253 21.6178 6.58779 21.6051 6.56346C21.5845 6.52311 21.5629 6.48308 21.5402 6.44337C21.5342 6.43259 21.5276 6.42181 21.5212 6.4111C21.3382 6.09964 21.0878 5.80852 20.7513 5.55665C20.742 5.54976 20.7327 5.54275 20.7234 5.53586C20.6755 5.50076 20.6266 5.4664 20.5752 5.43321C20.5504 5.41705 20.5241 5.4013 20.4984 5.38555C20.4591 5.36139 20.4205 5.33699 20.3791 5.31402C20.3037 5.27145 20.2256 5.23018 20.1435 5.19083C20.143 5.19049 20.1409 5.18942 20.1401 5.18903C20.1177 5.17609 20.0687 5.1497 19.9996 5.11651C19.9992 5.11638 19.9988 5.11599 19.9982 5.11577C19.928 5.08215 19.8373 5.04301 19.7314 5.00552C19.7279 5.00387 19.7252 5.00272 19.7219 5.00157ZM18.7849 6.48876C18.5545 6.41095 18.3895 6.20451 18.3643 5.96283C18.3541 5.86178 18.3573 5.61062 18.6129 5.46003C18.6851 5.41727 18.7626 5.39001 18.8425 5.37435C18.9696 5.34945 19.1026 5.35512 19.2311 5.3759C19.2311 5.3759 19.2315 5.37603 19.2318 5.37598C19.2351 5.37655 19.2383 5.37738 19.2417 5.37795C19.286 5.38548 19.3297 5.39423 19.3722 5.40502C19.3932 5.41041 19.413 5.41648 19.4335 5.42207C19.4679 5.432 19.5019 5.4422 19.534 5.45302C19.5466 5.45726 19.5591 5.46152 19.5712 5.46586C19.7148 5.51798 19.8289 5.57499 19.8852 5.60498C19.8962 5.61099 19.9029 5.61493 19.9042 5.61535C19.9107 5.61933 19.9174 5.6227 19.9242 5.62606C20.044 5.68285 20.1561 5.74552 20.2621 5.81272C20.2923 5.83184 20.318 5.85284 20.3468 5.87258C20.4201 5.92272 20.492 5.97415 20.5584 6.02943C20.5875 6.0538 20.6135 6.07923 20.6408 6.10417C20.7026 6.16058 20.7623 6.21887 20.8175 6.28027C20.8391 6.30442 20.86 6.32882 20.8803 6.35336C20.9416 6.42753 20.9993 6.50465 21.0513 6.58557C21.0595 6.59806 21.0684 6.6105 21.0764 6.62314C21.3328 7.0386 21.471 7.54017 21.4872 8.12613C21.4984 8.53219 21.4474 8.91276 21.3868 9.21116C21.3178 9.07376 21.2479 8.94492 21.1782 8.8203C21.1667 8.79952 21.1548 8.77973 21.1431 8.7592C21.0785 8.64587 21.0135 8.53777 20.9487 8.43477C20.9377 8.41737 20.9269 8.39958 20.9158 8.38221C20.1446 7.18135 19.3647 6.68446 18.7849 6.48876ZM23.1301 10.9264C23.0709 11.3102 22.3229 12.2681 21.285 13.412C21.263 13.4077 21.2411 13.4023 21.2172 13.4043C20.8172 13.4382 20.2705 13.3358 19.9506 13.0305C19.8532 12.9374 19.698 12.9413 19.6051 13.0384C19.5116 13.1357 19.515 13.2899 19.6126 13.383C19.9522 13.7067 20.4303 13.8499 20.8474 13.8869C20.1929 14.5874 19.457 15.3335 18.7192 16.0479C18.6772 16.0236 18.63 16.0078 18.5782 16.012C18.3271 16.0334 17.9851 15.9705 17.7875 15.7823C17.6902 15.6894 17.5356 15.6927 17.442 15.7904C17.3487 15.8876 17.352 16.0419 17.4498 16.135C17.6745 16.3494 17.982 16.4518 18.2614 16.4872C16.902 17.7776 15.5982 18.8985 14.8682 19.3454C14.8634 19.3484 14.8588 19.3509 14.8555 19.353C14.8557 19.3487 14.8561 19.3437 14.8571 19.338C14.9492 18.7827 15.1721 18.015 15.473 17.1452C15.4833 17.152 15.4909 17.1615 15.5024 17.1669C15.6993 17.2592 15.9038 17.3329 16.1097 17.3855C16.1462 17.3948 16.183 17.3955 16.2178 17.3887C16.3072 17.3712 16.3832 17.3042 16.4076 17.2103C16.4413 17.0797 16.3628 16.9469 16.2322 16.9137C16.0555 16.8684 15.8801 16.8052 15.7106 16.7259C15.6839 16.7135 15.6561 16.7083 15.6284 16.706C16.0066 15.6604 16.4792 14.5004 16.9701 13.3887C17.1079 13.6077 17.3057 13.8177 17.5611 13.9317C17.6089 13.9532 17.6599 13.9579 17.7079 13.9485C17.7832 13.9337 17.8504 13.8841 17.8842 13.809C17.9394 13.6861 17.8844 13.5419 17.7613 13.4869C17.5116 13.3754 17.3245 13.0836 17.2495 12.8436C17.2454 12.8302 17.2362 12.8204 17.2301 12.8082C17.6154 11.9602 18.0021 11.1619 18.3547 10.4891C18.5464 10.8606 18.8603 11.2493 19.2901 11.4409C19.3379 11.4622 19.3888 11.467 19.4368 11.4576C19.5121 11.4428 19.5795 11.3931 19.6131 11.318C19.6682 11.195 19.6134 11.0511 19.4903 10.996C19.0858 10.8155 18.7844 10.3495 18.6651 9.96799C18.6619 9.95789 18.6546 9.95059 18.6503 9.94126C19.0647 9.19513 19.4084 8.68218 19.6057 8.56449C19.715 8.49936 19.8327 8.45449 19.96 8.42955C20.0804 8.40595 20.2098 8.40016 20.3491 8.4122C20.5012 8.62912 20.6482 8.86849 20.7899 9.12623C20.7991 9.14309 20.8083 9.15963 20.8174 9.17674C20.8764 9.28579 20.9342 9.39912 20.9913 9.51481C21.0041 9.54091 21.0169 9.56546 21.0298 9.59199C21.0962 9.72968 21.1614 9.87105 21.2248 10.0175C21.2289 10.0272 21.2356 10.035 21.241 10.0442C21.2462 10.0528 21.2505 10.0622 21.2567 10.0701C21.2584 10.0725 21.2599 10.075 21.262 10.0773C21.2674 10.0839 21.2744 10.0885 21.2804 10.0942C21.2819 10.0957 21.2834 10.0971 21.2853 10.0985C21.2923 10.1049 21.2984 10.1121 21.306 10.1176C21.3076 10.1187 21.3089 10.1202 21.3106 10.1214L21.3108 10.1214C21.3117 10.1219 21.3126 10.1222 21.3133 10.1225C21.3213 10.128 21.3305 10.1314 21.3394 10.1359C21.3414 10.1369 21.3432 10.1378 21.3452 10.139C21.3524 10.1425 21.3591 10.1471 21.3666 10.1499C21.3695 10.1511 21.3726 10.1515 21.3758 10.1523C21.3819 10.1544 21.3883 10.1554 21.3946 10.1568C21.4006 10.1581 21.4061 10.1585 21.4121 10.1595C21.42 10.1608 21.4274 10.1638 21.4354 10.1642C21.5801 10.1721 21.7212 10.1819 21.8594 10.1933C21.8908 10.1958 21.9201 10.199 21.9508 10.2017C22.0592 10.2113 22.1664 10.2215 22.2705 10.2332C22.2972 10.2362 22.3225 10.2394 22.3488 10.2427C22.4574 10.2557 22.5641 10.2695 22.6675 10.2848C22.6854 10.2874 22.7032 10.29 22.7208 10.2926C22.8397 10.3108 22.9556 10.33 23.067 10.3512C23.0673 10.3512 23.0675 10.3514 23.0678 10.3513C23.1386 10.547 23.1593 10.7362 23.1301 10.9264ZM26.5329 10.6747C26.4353 10.8961 26.2466 10.9778 26.1054 11.0069C26.1025 11.0075 26.0997 11.0081 26.0968 11.0086C25.8227 11.0623 25.5157 10.9686 25.2932 10.7629C24.8723 10.3742 24.2009 10.0869 23.2962 9.90063C23.2947 9.90026 23.2934 9.89895 23.2916 9.89864C23.2815 9.89658 23.2707 9.89502 23.2606 9.89296C23.1821 9.87706 23.1003 9.86257 23.018 9.8484C22.947 9.83594 22.8749 9.82402 22.8011 9.81265C22.7262 9.80128 22.6508 9.79001 22.5728 9.7797C22.4659 9.76543 22.3556 9.75306 22.244 9.74118C22.2021 9.73665 22.1636 9.73089 22.121 9.72672C22.1389 9.71527 22.1595 9.70352 22.1781 9.69194C22.1849 9.68859 22.1927 9.68885 22.1991 9.68513C22.8941 9.26634 24.1227 8.75225 25.3832 9.30273C25.4483 9.33133 25.5137 9.36625 25.579 9.40085C25.6104 9.41729 25.6417 9.4306 25.673 9.4485C25.8722 9.56262 26.0718 9.70559 26.2698 9.88098L26.3082 9.9155C26.3094 9.91649 26.3109 9.91675 26.3118 9.91781C26.4152 10.013 26.6915 10.3149 26.5329 10.6747Z" fill="#429F3A"/>
<path d="M21.8143 10.5127C21.287 10.4224 20.7659 10.1764 20.266 9.78148C20.1601 9.69793 20.0066 9.71594 19.9226 9.82149C19.8387 9.92703 19.8565 10.0803 19.9624 10.1638C20.5271 10.6098 21.1222 10.889 21.7311 10.9933C21.7612 10.9984 21.7911 10.9979 21.8196 10.9923C21.9162 10.9734 21.9956 10.8968 22.0136 10.7942C22.0364 10.6616 21.9473 10.5356 21.8143 10.5127Z" fill="#429F3A"/>
</g>
<defs>
<clipPath id="clip0">
<rect width="23.848" height="23.848" fill="white" transform="translate(3.39905 6.87292) rotate(-0.0104589)"/>
</clipPath>
<clipPath id="clip1">
<rect width="14.379" height="14.379" fill="white" transform="translate(11.6948 5.88098) rotate(-11.0877)"/>
</clipPath>
</defs>
</svg>
